<svg width="103" height="74" viewBox="0 0 103 74" fill="none" xmlns="http://www.w3.org/2000/svg">
<path d="M93.8614 40.1797C89.0073 45.4942 78.5607 48.898 73.6257 44.3907C68.6907 39.8834 71.1363 29.1718 75.9903 23.8573C80.8443 18.5427 88.7799 17.8883 93.7148 22.3956C98.6498 26.9029 98.7154 34.8651 93.8614 40.1797Z" fill="url(#paint0_radial_318_981)"/>
<g filter="url(#filter0_f_318_981)">
<circle cx="85.1959" cy="23.4397" r="1.86179" transform="rotate(42.4068 85.1959 23.4397)" fill="white" fill-opacity="0.6"/>
</g>
<g filter="url(#filter1_f_318_981)">
<circle cx="79.5465" cy="29.6264" r="0.930893" transform="rotate(42.4068 79.5465 29.6264)" fill="white"/>
</g>
<path d="M22.4453 31.4682C29.3371 33.5443 36.9264 41.4892 34.9985 47.8887C33.0707 54.2881 22.3557 56.7188 15.464 54.6427C8.57226 52.5666 4.54824 45.6957 6.47608 39.2963C8.40393 32.8968 15.5536 29.3921 22.4453 31.4682Z" fill="url(#paint1_radial_318_981)"/>
<g opacity="0.6" filter="url(#filter2_f_318_981)">
<circle cx="11.998" cy="46.2162" r="2.0033" transform="rotate(-73.235 11.998 46.2162)" fill="white"/>
</g>
<path d="M44.4884 25.2034C47.0147 31.9432 45.2961 42.7951 39.0378 45.141C32.7795 47.4868 24.3512 40.4381 21.825 33.6983C19.2987 26.9586 22.3242 19.5933 28.5825 17.2475C34.8409 14.9016 41.9622 18.4636 44.4884 25.2034Z" fill="url(#paint2_radial_318_981)"/>
<g opacity="0.8" filter="url(#filter3_f_318_981)">
<circle cx="25.6395" cy="25.3092" r="1.86179" transform="rotate(-20.5474 25.6395 25.3092)" fill="white"/>
</g>
<g filter="url(#filter4_f_318_981)">
<circle cx="28.5803" cy="33.1542" r="0.930893" transform="rotate(-20.5474 28.5803 33.1542)" fill="white"/>
</g>
<g filter="url(#filter5_i_318_981)">
<path d="M57.876 25.5236L58.0719 29.4703L61.1955 31.8905L57.2489 32.0865L54.8287 35.2101L54.6327 31.2634L51.5091 28.8432L55.4557 28.6472L57.876 25.5236Z" fill="#F3B740"/>
</g>
<g filter="url(#filter6_i_318_981)">
<path d="M71.876 8.52364L71.6243 12.1998L75.3085 12.2648L71.999 13.8849L73.7848 17.108L70.727 15.0519L68.8287 18.2101L69.0803 14.5339L65.3962 14.4689L68.7056 12.8488L66.9198 9.62573L69.9776 11.6818L71.876 8.52364Z" fill="#F3B740"/>
</g>
<g filter="url(#filter7_i_318_981)">
<path d="M5.57404 65.4886L5.59845 68.0943L8.08421 68.8763L5.61354 69.7048L5.63795 72.3105L4.08658 70.2168L1.61591 71.0452L3.12778 68.9228L1.5764 66.829L4.06216 67.611L5.57404 65.4886Z" fill="#F3B740"/>
</g>
<g filter="url(#filter8_i_318_981)">
<path d="M10.4781 15.97L10.3934 19.3152L13.6184 20.2081L10.4107 21.1613L10.5581 24.5043L8.66038 21.7482L5.52652 22.9214L7.5613 20.2649L5.47711 17.6469L8.63239 18.7612L10.4781 15.97Z" fill="#F3B740"/>
</g>
<g filter="url(#filter9_i_318_981)">
<path d="M92.2287 54.3987L92.2604 57.7848L95.4906 58.8009L92.28 59.8775L92.3117 63.2636L90.2958 60.5428L87.0852 61.6193L89.0498 58.8613L87.0339 56.1405L90.264 57.1567L92.2287 54.3987Z" fill="#F3B740"/>
</g>
<g filter="url(#filter10_i_318_981)">
<path d="M44.887 3.29566L44.0771 6.1976L45.7441 8.70725L42.7339 8.83381L40.8622 11.1947L39.8117 8.37097L36.9879 7.32042L39.3488 5.4487L39.4754 2.43854L41.985 4.10549L44.887 3.29566Z" fill="#F3B740"/>
</g>
<path d="M64.8444 71.2825C63.1837 71.2728 61.5569 71.0404 59.9882 70.4933C58.4389 69.9559 57.0591 69.1377 55.8487 68.029C54.2219 66.5378 53.1132 64.7028 52.3482 62.6548C51.8253 61.2556 51.5251 59.8031 51.3266 58.3264C51.133 56.8836 51.1233 55.436 51.162 53.9884C51.2201 51.8193 51.5445 49.6939 52.2611 47.6411C52.8324 46.0143 53.6458 44.5231 54.769 43.211C56.2651 41.4729 58.1242 40.2964 60.3175 39.6379C61.3197 39.3377 62.3364 39.1392 63.3774 39.0763C63.9293 39.0424 64.4812 39.0036 65.0332 39.0133C66.994 39.0424 68.9016 39.3474 70.7075 40.1511C71.8405 40.6546 72.8765 41.3083 73.8061 42.1362C75.4474 43.5983 76.561 45.4139 77.3211 47.4571C77.8295 48.8127 78.1442 50.2119 78.2991 51.6499C78.3669 52.2502 78.4056 52.8554 78.4395 53.4606C78.4734 54.0416 78.5122 54.6226 78.5025 55.2036C78.4637 57.3484 78.2652 59.4739 77.6552 61.5412C77.0887 63.4682 76.2366 65.2499 74.9633 66.8137C73.4479 68.6632 71.5403 69.9414 69.2551 70.6483C68.3545 70.9242 67.4346 71.1131 66.4953 71.1857C65.9482 71.2244 65.3963 71.2486 64.8444 71.2825ZM62.5543 40.645C62.0798 40.7418 61.6005 40.8386 61.126 40.9354C60.7823 41.042 60.4337 41.1291 60.0947 41.255C59.7655 41.376 59.446 41.5358 59.1216 41.6811C59.0635 41.7053 59.0006 41.7295 58.9425 41.7585C57.5239 42.4799 56.3522 43.487 55.4081 44.7603C54.7351 45.6657 54.2025 46.6533 53.8055 47.7088C53.67 48.0719 53.5635 48.4496 53.4424 48.8224C53.3988 48.958 53.3359 49.0887 53.3069 49.2242C53.1374 50.0473 52.9534 50.8704 52.8179 51.6983C52.7307 52.2357 52.7113 52.7828 52.6629 53.3251C52.6532 54.2305 52.6387 55.1358 52.629 56.0412C52.6436 56.3704 52.6484 56.7045 52.6678 57.0337C52.6775 57.179 52.7065 57.3242 52.7259 57.4695C52.784 57.9439 52.8421 58.4233 52.9002 58.8977C52.9583 59.2221 53.0164 59.5465 53.0793 59.8709C53.2197 60.4035 53.3601 60.9361 53.5005 61.4686C53.6264 61.8221 53.7523 62.1803 53.8733 62.5338C54.1348 63.0712 54.3914 63.6086 54.6528 64.146C54.6625 64.1702 54.6674 64.1944 54.677 64.2138C55.4372 65.5549 56.4103 66.7169 57.6546 67.632C59.5864 69.0554 61.7845 69.6993 64.1617 69.7768C64.9606 69.801 65.7691 69.7623 66.568 69.6993C67.0812 69.6606 67.5847 69.525 68.0882 69.433C68.8726 69.2732 69.623 69.0021 70.3396 68.6487C72.9443 67.3753 74.6389 65.2789 75.7234 62.6403C75.9413 61.9867 76.164 61.3331 76.377 60.6794C76.4303 60.5197 76.4448 60.3454 76.4787 60.1759C76.5126 60.0597 76.561 59.9435 76.5804 59.8225C76.6578 59.3335 76.7353 58.8396 76.8031 58.3506C76.866 57.8762 76.9144 57.4065 76.9725 56.9321C76.9774 56.7529 76.9822 56.5786 76.9871 56.3995C77.0016 55.804 77.021 55.2084 77.0355 54.6081C77.0355 54.4919 77.0403 54.3708 77.0355 54.2547C76.9968 53.6398 76.958 53.02 76.9144 52.4052C76.8951 52.1243 76.8515 51.8484 76.8176 51.5676C76.6724 50.8365 76.5368 50.1054 76.3819 49.3743C76.3092 49.0403 76.1931 48.7159 76.0962 48.3915C76.0575 48.285 76.0236 48.1784 75.9848 48.0719C75.9703 48.0235 75.9558 47.98 75.9364 47.9315C75.9316 47.9122 75.9316 47.8977 75.9267 47.8783C75.2199 46.0385 74.2128 44.3875 72.6926 43.1045C72.2036 42.693 71.6468 42.3686 71.1239 42.0006C70.3977 41.5552 69.6133 41.2453 68.7999 41.0032C68.6014 40.9451 68.3981 40.9064 68.1996 40.8628C67.5799 40.7563 66.9601 40.6498 66.3404 40.5433C65.4738 40.4706 64.6023 40.4561 63.7308 40.5094C63.6243 40.5191 63.5178 40.5288 63.4161 40.5384C63.1256 40.5723 62.8399 40.6111 62.5543 40.645Z" fill="#F9E065"/>
<path d="M48.3733 54.5209C48.3733 58.7137 48.3733 62.9114 48.3733 67.1042C48.3733 68.5712 47.2403 69.8445 45.783 69.9559C44.9842 70.0188 44.1805 69.985 43.3768 69.9946C42.9023 69.9995 42.4278 69.9946 41.9679 69.8397C40.7817 69.4427 39.9828 68.3485 39.978 67.0945C39.9731 65.0417 39.978 62.9888 39.978 60.936C39.978 56.3946 39.978 51.8532 39.978 47.3166C39.978 47.1859 39.9683 47.0552 39.9586 46.9245C39.9441 46.7502 39.8666 46.7066 39.7068 46.7986C39.3728 46.9922 39.0435 47.1956 38.7095 47.3941C38.1963 47.6943 37.6976 48.0235 37.1699 48.2898C35.4656 49.1419 33.3256 48.0187 33.0545 46.1353C32.9189 45.196 33.0109 44.2955 33.621 43.5111C33.9066 43.1432 34.2794 42.8818 34.6764 42.6445C36.4484 41.5697 38.2108 40.4852 39.978 39.4103C40.4234 39.1392 40.9172 39.0036 41.4401 39.0036C42.7716 38.9988 44.1079 38.9988 45.4393 39.0036C46.9595 39.0085 48.1748 40.0881 48.3684 41.5939C48.383 41.7004 48.3781 41.8069 48.3781 41.9134C48.3733 46.1208 48.3733 50.3233 48.3733 54.5209ZM41.445 64.6447C41.445 65.0369 41.445 65.429 41.445 65.8212C41.445 66.2618 41.4401 66.7024 41.4401 67.1429C41.445 67.8692 42.0598 68.5131 42.7861 68.5276C43.5511 68.5421 44.3209 68.5276 45.0907 68.5276C45.2456 68.5276 45.4006 68.5373 45.5555 68.5325C46.2672 68.5034 46.9014 67.8837 46.9111 67.172C46.9256 66.315 46.9111 65.4629 46.9111 64.6059C46.9111 63.7393 46.9111 62.8678 46.9111 62.0012C46.9111 61.9237 46.916 61.8463 46.916 61.7688C46.916 56.9272 46.916 52.0808 46.916 47.2392C46.916 45.472 46.916 43.7048 46.916 41.9376C46.916 41.2937 46.6061 40.8434 46.0251 40.5771C45.7249 40.4416 45.4102 40.4658 45.0955 40.4706C43.8512 40.4706 42.6118 40.4658 41.3675 40.4706C41.2368 40.4706 41.1061 40.5336 40.9753 40.5675C40.9318 40.582 40.8785 40.5868 40.8398 40.6062C40.4089 40.8676 39.9828 41.1291 39.5519 41.3905C39.121 41.652 38.695 41.9134 38.2641 42.1749C37.7993 42.4605 37.3345 42.7413 36.8697 43.027C36.6276 43.1722 36.3807 43.3078 36.1386 43.4579C35.7852 43.6758 35.4317 43.9033 35.0783 44.1309C34.7878 44.3149 34.5941 44.5763 34.5263 44.9055C34.4731 45.1524 34.4731 45.4139 34.4779 45.6657C34.4828 46.7695 35.6496 47.4667 36.6227 46.9342C37.1118 46.6679 37.5765 46.358 38.051 46.0675C38.4335 45.8448 38.816 45.6221 39.1985 45.3994C39.4938 45.3655 39.7892 45.3267 40.0845 45.2928C40.4234 45.3848 40.7429 45.5107 40.9802 45.7867C41.3433 46.1498 41.4401 46.6049 41.4401 47.0939C41.4401 51.2771 41.4401 55.4602 41.4401 59.6433C41.4401 60.3792 41.4401 61.12 41.4401 61.8559C41.4401 62.4176 41.4401 62.9743 41.4401 63.5359C41.445 63.9087 41.445 64.2767 41.445 64.6447Z" fill="#F9E065"/>
<path d="M77.0355 54.2595C76.9967 53.6446 76.958 53.0249 76.9144 52.41C76.8951 52.1292 76.8515 51.8532 76.8176 51.5724C76.6723 50.8413 76.5368 50.1102 76.3818 49.3792C76.3092 49.0451 76.193 48.7207 76.0962 48.3963C75.9558 48.3237 75.9122 48.222 75.9848 48.0768C75.9703 48.0284 75.9558 47.9848 75.9364 47.9364C75.9316 47.917 75.9316 47.9025 75.9267 47.8831C75.2199 46.0433 74.2128 44.3923 72.6926 43.1093C72.2035 42.6978 71.6468 42.3734 71.1239 42.0054C70.3976 41.56 69.6133 41.2502 68.7999 41.0081C68.6014 40.95 68.3981 40.9112 68.1996 40.8677C68.2238 40.8919 68.248 40.9112 68.2722 40.9354C68.7467 41.2743 69.2308 41.5939 69.6859 41.9522C70.0103 42.2088 70.3105 42.4993 70.601 42.7946C70.8382 43.0415 71.0464 43.3175 71.2691 43.579C71.303 43.6128 71.3418 43.6516 71.3757 43.6855C71.4095 43.7242 71.4483 43.7581 71.4822 43.7968C71.5209 43.8549 71.5548 43.913 71.5935 43.9711C71.6177 44.005 71.6419 44.0437 71.6661 44.0776C71.9469 44.5279 72.2375 44.9685 72.4989 45.4236C73.0315 46.3483 73.4236 47.336 73.7335 48.3576C74.0192 49.292 74.2177 50.241 74.3581 51.2045C74.4307 51.7031 74.4936 52.2066 74.513 52.7053C74.5566 53.9206 74.5662 55.1407 74.5904 56.3559C74.5808 56.4285 74.5711 56.5012 74.5614 56.5689C74.7066 56.6464 74.7067 56.7142 74.5566 56.782C74.5082 57.271 74.4597 57.76 74.4065 58.2441C74.3823 58.4717 74.3629 58.6944 74.3387 58.9219C74.3 59.1447 74.2612 59.3674 74.2177 59.5852C74.1644 59.8418 74.1111 60.0936 74.0579 60.3502C74.0095 60.5632 73.9562 60.7763 73.9078 60.9941C73.8497 61.2217 73.7916 61.4492 73.7335 61.672C73.7626 61.6526 73.7916 61.6332 73.8255 61.6139C73.7964 61.6332 73.7626 61.6526 73.7335 61.672C73.6125 62.006 73.4963 62.3401 73.3752 62.6693C73.2445 62.9792 73.1138 63.289 72.9831 63.5989C72.9734 63.6328 72.9589 63.6715 72.9492 63.7054C72.7942 64.0153 72.6393 64.3252 72.4844 64.635C72.373 64.848 72.2665 65.0611 72.1551 65.2741C72.1309 65.2983 72.1116 65.3225 72.0874 65.3467C71.8743 65.6663 71.6564 65.9907 71.4434 66.3102C71.2546 66.5426 71.0658 66.7798 70.8721 67.0122C70.3395 67.6707 69.715 68.2323 69.042 68.7407C68.7321 68.9779 68.4077 69.1958 68.0882 69.4233C68.8725 69.2636 69.623 68.9925 70.3395 68.639C72.9443 67.3657 74.6389 65.2693 75.7234 62.6306C75.9413 61.977 76.164 61.3234 76.377 60.6698C76.4302 60.51 76.4448 60.3357 76.4787 60.1662C76.5126 60.05 76.561 59.9338 76.5804 59.8128C76.6578 59.3238 76.7353 58.8299 76.8031 58.3409C76.866 57.8665 76.9144 57.3968 76.9725 56.9224C76.9483 56.9417 76.9241 56.9611 76.8999 56.9805C76.9241 56.9611 76.9532 56.9417 76.9725 56.9224C76.9774 56.7432 76.9822 56.5689 76.987 56.3898C77.0016 55.7943 77.0209 55.1988 77.0355 54.5984C77.0355 54.4919 77.0403 54.3757 77.0355 54.2595Z" fill="#BE9323"/>
<path d="M76.0962 48.3964C75.9558 48.3237 75.9122 48.222 75.9848 48.0768C76.0236 48.1833 76.0575 48.2898 76.0962 48.3964Z" fill="#C29625"/>
<path d="M45.4441 64.1799C45.4441 64.4656 45.4441 64.7512 45.4489 65.0369C45.4441 65.0611 45.4441 65.0853 45.4441 65.1046V66.2134C45.4441 66.3102 45.449 66.4022 45.4441 66.499C45.4344 66.8767 45.4586 67.2591 45.3957 67.6271C45.3473 67.937 45.1972 68.2275 45.0907 68.5276C44.3208 68.5276 43.551 68.547 42.7861 68.5276C42.0598 68.5131 41.445 67.8643 41.4401 67.1429C41.4353 66.7024 41.4401 66.2618 41.445 65.8212C41.445 65.429 41.445 65.0369 41.4401 64.6447C41.445 64.2719 41.445 63.9039 41.445 63.536V61.8559C41.4401 61.12 41.4401 60.3841 41.4401 59.6433V47.0988C41.4401 46.6049 41.3433 46.1498 40.9802 45.7916C40.7429 45.5156 40.4234 45.3897 40.0845 45.2977C39.7891 45.3316 39.4938 45.3703 39.1985 45.4042C38.816 45.6269 38.4335 45.8496 38.051 46.0772C37.5765 46.3628 37.1117 46.6727 36.6227 46.939C35.6496 47.4716 34.4827 46.7744 34.4779 45.6705C34.4779 45.4188 34.4779 45.1573 34.5263 44.9104C34.5941 44.5812 34.7878 44.3197 35.0783 44.1357C35.4317 43.913 35.7851 43.6855 36.1386 43.4628C36.3806 43.3127 36.6276 43.1771 36.8697 43.0318C37.3344 42.751 37.7992 42.4654 38.264 42.1797C38.6901 41.9183 39.121 41.6568 39.5519 41.3954C39.9779 41.1339 40.4089 40.8725 40.8398 40.6111C40.8785 40.5868 40.9269 40.582 40.9705 40.5723C41.1012 40.5384 41.2319 40.4755 41.3627 40.4706C42.6069 40.4658 43.8464 40.4706 45.0907 40.4706C45.2795 40.8628 45.4441 41.2647 45.4441 41.7101V62.9985H45.4489C45.4489 63.3956 45.4441 63.7877 45.4441 64.1799Z" fill="#F1BB2D"/>
<path d="M46.9111 64.6108C46.9111 63.7442 46.9111 62.8727 46.9111 62.006C46.9111 61.9286 46.9159 61.8511 46.9159 61.7736C46.9159 56.9321 46.9159 52.0856 46.9159 47.244C46.9159 45.4769 46.9159 43.7097 46.9159 41.9425C46.9159 41.2986 46.6061 40.8483 46.0251 40.582C45.7249 40.4464 45.4102 40.4707 45.0955 40.4755C45.2892 40.8677 45.4489 41.2695 45.4489 41.7149C45.4489 48.2656 45.4489 54.8114 45.4489 61.3621C45.4489 61.9092 45.4489 62.4563 45.4489 63.0034H45.4586C45.4586 63.3956 45.4538 63.7877 45.4538 64.1799C45.4538 64.4656 45.4586 64.7512 45.4586 65.0369C45.4586 65.0611 45.4586 65.0853 45.4538 65.1046C45.4538 65.4726 45.4538 65.8406 45.4538 66.2134C45.4538 66.3102 45.4586 66.4022 45.4538 66.499C45.4441 66.8767 45.4683 67.2591 45.4054 67.6271C45.3569 67.937 45.2069 68.2275 45.1003 68.5276C45.2553 68.5276 45.4102 68.5373 45.5651 68.5325C46.2769 68.5034 46.9111 67.8837 46.9208 67.172C46.9256 66.3199 46.9111 65.4629 46.9111 64.6108Z" fill="#BA9023"/>
<path d="M74.5566 56.7868C74.5566 56.7142 74.5614 56.6415 74.5614 56.5737C74.7066 56.6512 74.7067 56.7238 74.5566 56.7868Z" fill="#C29625"/>
<path d="M70.0539 62.1803C69.8264 62.5676 69.6085 62.9549 69.3664 63.3326C69.2163 63.565 69.0372 63.778 68.8726 63.9959C68.6547 64.2041 68.4465 64.4268 68.2141 64.6156C67.9188 64.8528 67.6041 65.061 67.2991 65.2789C66.8197 65.5016 66.3308 65.7001 65.803 65.7921C65.0574 65.9277 64.3118 65.9131 63.5759 65.734C63.3386 65.6759 63.1111 65.5984 62.8787 65.5306C62.5107 65.3273 62.1379 65.1288 61.77 64.9254C61.5569 64.756 61.3488 64.5914 61.1357 64.4219C60.9421 64.1992 60.7242 63.9959 60.5644 63.7489C60.2352 63.2454 59.935 62.7225 59.6203 62.2093C59.3056 61.4734 59.0442 60.7278 58.865 59.9435C58.6665 59.0575 58.5552 58.1569 58.4729 57.2467C58.3663 56.0702 58.4244 54.8937 58.4099 53.7172C58.4099 53.5235 58.4341 53.3299 58.4438 53.1313C58.468 52.8021 58.4825 52.4729 58.5213 52.1437C58.5697 51.7467 58.623 51.3545 58.7004 50.9623C58.7876 50.5217 58.8844 50.086 59.0054 49.6551C59.1216 49.229 59.2766 48.8078 59.4121 48.3866C59.4363 48.3382 59.4654 48.2946 59.4848 48.2462C59.7268 47.6652 60.0367 47.1229 60.4288 46.6291C60.6612 46.3386 60.913 46.0626 61.1551 45.7818C61.2761 45.6753 61.3972 45.5736 61.523 45.4671C61.7942 45.288 62.0701 45.104 62.3413 44.9248C62.4865 44.8571 62.6269 44.7893 62.777 44.7264C63.6921 44.3487 64.641 44.2325 65.619 44.3777C66.2242 44.4649 66.7907 44.6683 67.3378 44.9345C67.6138 45.1234 67.8849 45.3122 68.1609 45.501C68.3255 45.6414 68.4949 45.7867 68.6595 45.9271C68.8145 46.1062 68.9694 46.2853 69.1243 46.4645C69.3035 46.7162 69.4778 46.968 69.6569 47.2198C69.8796 47.7088 70.1072 48.1978 70.3299 48.6916C70.388 48.8175 70.4316 48.9434 70.48 49.0692C70.5429 49.2871 70.601 49.505 70.664 49.7229C71.0368 51.0979 71.1723 52.5068 71.2353 53.9254C71.2353 54.7 71.2547 55.4698 71.2256 56.2445C71.1627 57.9875 70.9642 59.7111 70.3735 61.3669C70.2767 61.6429 70.1604 61.9091 70.0539 62.1803ZM59.8721 55.1455C59.8527 55.1455 59.8334 55.1454 59.8188 55.1503C59.8818 56.0992 59.9302 57.0482 60.0173 57.9923C60.1432 59.2802 60.4434 60.5244 60.9953 61.6961C61.4117 62.5773 61.9782 63.3326 62.8206 63.8603C64.2392 64.7512 66.1226 64.5769 67.3475 63.4391C68.219 62.6306 68.7709 61.6332 69.1195 60.5148C69.5601 59.1059 69.7053 57.6582 69.7634 56.1961C69.7828 55.6683 69.7828 55.1406 69.7683 54.6129C69.7441 53.8963 69.715 53.1798 69.6569 52.4632C69.5698 51.3787 69.3616 50.3232 68.9839 49.3017C68.6208 48.314 68.127 47.4134 67.3136 46.7065C66.108 45.6608 64.2586 45.4817 62.9029 46.3096C61.8571 46.9487 61.2084 47.9073 60.7581 49.016C60.1432 50.5314 59.9883 52.134 59.8769 53.7414C59.8479 54.2062 59.8721 54.6758 59.8721 55.1455Z" fill="#F9E065"/>
<path d="M71.5887 43.9711C71.5499 43.913 71.516 43.8549 71.4773 43.7968C71.516 43.85 71.5499 43.913 71.5887 43.9711Z" fill="#C29625"/>
<path d="M71.4774 43.792C71.4435 43.7532 71.4047 43.7193 71.3708 43.6806C71.4096 43.7193 71.4435 43.7581 71.4774 43.792Z" fill="#C29625"/>
<path d="M74.5082 52.7053C74.4936 52.2066 74.4307 51.7031 74.3581 51.2044C74.2177 50.2409 74.0192 49.2872 73.7287 48.3576C73.414 47.336 73.0266 46.3483 72.4941 45.4236C72.2326 44.9636 71.9373 44.523 71.6613 44.0728C71.6371 44.0389 71.6129 44.005 71.5887 43.9662C71.55 43.9081 71.5161 43.8501 71.4773 43.792C71.4434 43.7532 71.4047 43.7193 71.3708 43.6806C71.3369 43.6467 71.2982 43.6128 71.2643 43.5741C71.0416 43.3126 70.8382 43.0367 70.5961 42.7897C70.3057 42.4944 70.0103 42.2039 69.6811 41.9473C69.226 41.589 68.7418 41.2695 68.2673 40.9306C68.2431 40.9064 68.2189 40.887 68.1947 40.8628C67.575 40.7563 66.9553 40.6498 66.3356 40.5432C65.8175 40.4997 65.2994 40.4755 64.7862 40.4755C64.4328 40.4755 64.0794 40.49 63.7308 40.5094H63.7259C63.6243 40.519 63.5178 40.5239 63.4112 40.5384C63.1256 40.5723 62.8399 40.6062 62.5494 40.6449C62.075 40.7418 61.6005 40.8337 61.1212 40.9306C60.7774 41.0371 60.4288 41.1242 60.0899 41.2501C59.7607 41.376 59.446 41.5358 59.1216 41.6762C59.0587 41.7004 59.0006 41.7246 58.9425 41.7536C57.5239 42.475 56.3522 43.4821 55.4033 44.7554C54.7303 45.6656 54.1977 46.6485 53.8007 47.704C53.6651 48.0719 53.5586 48.4496 53.4376 48.8175C53.3891 48.9531 53.3311 49.0838 53.302 49.2242C53.1326 50.0473 52.9486 50.8704 52.813 51.6983C52.7259 52.2357 52.7113 52.7828 52.6629 53.325C52.6484 54.2304 52.6387 55.1309 52.6242 56.0363C52.6387 56.3704 52.6436 56.6996 52.6629 57.0288C52.6726 57.1741 52.7017 57.3193 52.7259 57.4646C52.784 57.9439 52.8421 58.4184 52.9002 58.8929C52.9582 59.2173 53.0163 59.5465 53.0793 59.8708C53.2197 60.4034 53.3601 60.936 53.5005 61.4686C53.6264 61.8269 53.7523 62.1803 53.8733 62.5337C54.1348 63.076 54.3914 63.6134 54.6528 64.1508C54.6625 64.1702 54.6674 64.1944 54.677 64.2138C55.4372 65.5597 56.4103 66.7169 57.6546 67.6319C59.5864 69.0602 61.7845 69.6993 64.1617 69.7767C64.9605 69.8058 65.7643 69.7622 66.5631 69.7041C67.0763 69.6605 67.5798 69.525 68.0882 69.433C68.4029 69.2054 68.7322 68.9876 69.042 68.7552C69.7102 68.242 70.3395 67.6803 70.8721 67.0219C71.0609 66.7895 71.2498 66.5571 71.4434 66.3198C71.6565 66.0003 71.8695 65.6759 72.0874 65.3564C72.1067 65.3322 72.1309 65.308 72.1552 65.2838C72.2617 65.0707 72.373 64.8577 72.4844 64.6447C72.6393 64.3348 72.7942 64.0249 72.9492 63.7151C72.9589 63.6812 72.9685 63.6425 72.9831 63.6086C73.1138 63.2987 73.2445 62.9889 73.3704 62.679C73.4914 62.3449 73.6125 62.0108 73.7287 61.6768C73.7868 61.4541 73.8449 61.2265 73.903 60.9989C73.9562 60.7859 74.0046 60.5729 74.053 60.3599C74.1063 60.1032 74.1644 59.8467 74.2177 59.5949C74.2612 59.3722 74.2951 59.1494 74.3387 58.9316C74.3581 58.704 74.3823 58.4765 74.4065 58.2489C74.4549 57.7648 74.5033 57.2758 74.5517 56.7868C74.5566 56.7141 74.5566 56.6464 74.5614 56.5737C74.5662 56.5011 74.576 56.4285 74.5856 56.3559C74.5614 55.1406 74.5517 53.9254 74.5082 52.7053ZM71.2256 56.2493C71.1578 57.9875 70.9641 59.7111 70.3735 61.3669C70.2766 61.6429 70.1604 61.9092 70.0491 62.1803C69.8215 62.5628 69.6036 62.955 69.3615 63.3326C69.2115 63.565 69.0323 63.778 68.8677 63.9959C68.6499 64.2041 68.4416 64.4268 68.2092 64.6156C67.9139 64.8529 67.5992 65.0611 67.2942 65.2838C66.8149 65.5065 66.3259 65.7001 65.7981 65.797C65.0525 65.9325 64.3069 65.918 63.571 65.7389C63.3386 65.6808 63.1062 65.6033 62.8738 65.5355C62.501 65.3322 62.1331 65.1288 61.7651 64.9303C61.5521 64.7609 61.3439 64.5963 61.1308 64.4268C60.9372 64.2041 60.7193 64.0007 60.5595 63.7538C60.2303 63.2503 59.9301 62.7274 59.6154 62.2142C59.3056 61.4831 59.0393 60.7327 58.865 59.9532C58.6616 59.0623 58.5551 58.1618 58.4728 57.2564C58.3663 56.0799 58.4196 54.9034 58.4099 53.7317C58.4099 53.5332 58.4341 53.3396 58.4486 53.1459C58.4728 52.8167 58.4825 52.4826 58.5212 52.1582C58.5696 51.7612 58.6229 51.3642 58.7004 50.9769C58.7875 50.5363 58.8843 50.1005 59.0054 49.6696C59.1216 49.2436 59.2765 48.8223 59.4121 48.4011C59.4363 48.3527 59.4605 48.3091 59.4847 48.2607C59.7268 47.6749 60.0366 47.1327 60.4288 46.6388C60.6564 46.3483 60.9082 46.0723 61.1502 45.7915C61.1551 45.7915 61.1551 45.7915 61.1551 45.7915C61.2761 45.685 61.3971 45.5785 61.5182 45.4768C61.7893 45.2928 62.0653 45.1137 62.3364 44.9297C62.4816 44.8619 62.6221 44.7942 62.7722 44.7312C63.6872 44.3536 64.6313 44.2422 65.6142 44.3826C66.2194 44.4698 66.7858 44.6731 67.3329 44.9394C67.6089 45.1282 67.88 45.317 68.156 45.5059C68.3255 45.6463 68.4901 45.7915 68.6547 45.9319C68.8096 46.1111 68.9645 46.2902 69.1195 46.4693C69.2986 46.7211 69.4778 46.9729 69.6521 47.2246V47.2295C69.8796 47.7185 70.1023 48.2075 70.325 48.6965C70.3831 48.8224 70.4267 48.9482 70.48 49.079C70.5381 49.292 70.601 49.5099 70.6591 49.7277C71.0319 51.1028 71.1675 52.5117 71.2304 53.9302C71.2304 54.7001 71.2546 55.4747 71.2256 56.2493Z" fill="#F1BB2D"/>
<path d="M59.6203 62.2191C59.3056 61.4832 59.0441 60.7376 58.865 59.9532C58.6665 59.0672 58.5552 58.1667 58.4728 57.2564C58.3663 56.0799 58.4244 54.9034 58.4099 53.7269C58.4099 53.5333 58.4341 53.3396 58.4438 53.1411C58.468 52.8119 58.4825 52.4826 58.5212 52.1534C58.5697 51.7564 58.6229 51.3642 58.7004 50.9721C58.7876 50.5315 58.8844 50.0957 59.0054 49.6648C59.1216 49.2388 59.2765 48.8176 59.4121 48.3964C59.4363 48.3479 59.4654 48.3043 59.4847 48.2559C59.7268 47.6749 60.0367 47.1327 60.4288 46.6389C60.6612 46.3484 60.913 46.0724 61.1551 45.7916C61.0631 45.7916 60.9663 45.7867 60.8743 45.7867C60.792 45.7867 60.7097 45.7867 60.6225 45.7867C60.5015 45.8013 60.3853 45.8109 60.2642 45.8255C60.119 45.8594 59.9786 45.8932 59.8333 45.9271C59.7268 45.9659 59.6203 46.0046 59.5138 46.0385C59.3589 46.1111 59.2039 46.1789 59.049 46.2515C58.9473 46.3242 58.836 46.3871 58.744 46.4645C58.5309 46.6485 58.3276 46.8422 58.1194 47.031C57.979 47.186 57.8338 47.3409 57.6934 47.4958C57.4271 47.9654 57.1269 48.4206 56.9042 48.9096C56.512 49.7859 56.328 50.7251 56.1828 51.6741C55.9988 52.8748 55.9794 54.0852 55.9455 55.2908C55.9407 55.5474 55.9649 55.7991 55.9746 56.0557C55.9891 56.3947 55.9939 56.7336 56.0133 57.0676C56.0327 57.3581 56.0666 57.6438 56.1053 57.9343C56.1537 58.3361 56.2118 58.7331 56.2651 59.1301C56.3619 59.5126 56.4539 59.8903 56.5507 60.2727C56.6573 60.5826 56.7589 60.8925 56.8654 61.2023C57.1414 61.7155 57.4174 62.2239 57.6885 62.7371C57.703 62.7468 57.7224 62.7565 57.7321 62.771C58.1533 63.3472 58.6956 63.7781 59.3347 64.0928C59.3589 64.1025 59.3831 64.117 59.4024 64.1267C59.9544 64.3494 60.5257 64.4559 61.126 64.4123C60.9324 64.1896 60.7145 63.9863 60.5547 63.7393C60.2303 63.2552 59.9302 62.7323 59.6203 62.2191Z" fill="#AF8721"/>
<defs>
<filter id="filter0_f_318_981" x="81.3341" y="19.5779" width="7.72357" height="7.72359" filterUnits="userSpaceOnUse" color-interpolation-filters="sRGB">
<feFlood flood-opacity="0" result="BackgroundImageFix"/>
<feBlend mode="normal" in="SourceGraphic" in2="BackgroundImageFix" result="shape"/>
<feGaussianBlur stdDeviation="1" result="effect1_foregroundBlur_318_981"/>
</filter>
<filter id="filter1_f_318_981" x="76.6156" y="26.6955" width="5.86182" height="5.8618" filterUnits="userSpaceOnUse" color-interpolation-filters="sRGB">
<feFlood flood-opacity="0" result="BackgroundImageFix"/>
<feBlend mode="normal" in="SourceGraphic" in2="BackgroundImageFix" result="shape"/>
<feGaussianBlur stdDeviation="1" result="effect1_foregroundBlur_318_981"/>
</filter>
<filter id="filter2_f_318_981" x="7.99414" y="42.2124" width="8.00766" height="8.00766" filterUnits="userSpaceOnUse" color-interpolation-filters="sRGB">
<feFlood flood-opacity="0" result="BackgroundImageFix"/>
<feBlend mode="normal" in="SourceGraphic" in2="BackgroundImageFix" result="shape"/>
<feGaussianBlur stdDeviation="1" result="effect1_foregroundBlur_318_981"/>
</filter>
<filter id="filter3_f_318_981" x="21.7772" y="21.4469" width="7.72458" height="7.72458" filterUnits="userSpaceOnUse" color-interpolation-filters="sRGB">
<feFlood flood-opacity="0" result="BackgroundImageFix"/>
<feBlend mode="normal" in="SourceGraphic" in2="BackgroundImageFix" result="shape"/>
<feGaussianBlur stdDeviation="1" result="effect1_foregroundBlur_318_981"/>
</filter>
<filter id="filter4_f_318_981" x="25.6492" y="30.2231" width="5.8623" height="5.86229" filterUnits="userSpaceOnUse" color-interpolation-filters="sRGB">
<feFlood flood-opacity="0" result="BackgroundImageFix"/>
<feBlend mode="normal" in="SourceGraphic" in2="BackgroundImageFix" result="shape"/>
<feGaussianBlur stdDeviation="1" result="effect1_foregroundBlur_318_981"/>
</filter>
<filter id="filter5_i_318_981" x="51.5091" y="25.5236" width="9.68643" height="11.6864" filterUnits="userSpaceOnUse" color-interpolation-filters="sRGB">
<feFlood flood-opacity="0" result="BackgroundImageFix"/>
<feBlend mode="normal" in="SourceGraphic" in2="BackgroundImageFix" result="shape"/>
<feColorMatrix in="SourceAlpha" type="matrix" values="0 0 0 0 0 0 0 0 0 0 0 0 0 0 0 0 0 0 127 0" result="hardAlpha"/>
<feOffset dy="2"/>
<feGaussianBlur stdDeviation="2"/>
<feComposite in2="hardAlpha" operator="arithmetic" k2="-1" k3="1"/>
<feColorMatrix type="matrix" values="0 0 0 0 0 0 0 0 0 0 0 0 0 0 0 0 0 0 0.15 0"/>
<feBlend mode="normal" in2="shape" result="effect1_innerShadow_318_981"/>
</filter>
<filter id="filter6_i_318_981" x="65.3961" y="8.52364" width="9.91232" height="11.6864" filterUnits="userSpaceOnUse" color-interpolation-filters="sRGB">
<feFlood flood-opacity="0" result="BackgroundImageFix"/>
<feBlend mode="normal" in="SourceGraphic" in2="BackgroundImageFix" result="shape"/>
<feColorMatrix in="SourceAlpha" type="matrix" values="0 0 0 0 0 0 0 0 0 0 0 0 0 0 0 0 0 0 127 0" result="hardAlpha"/>
<feOffset dy="2"/>
<feGaussianBlur stdDeviation="2"/>
<feComposite in2="hardAlpha" operator="arithmetic" k2="-1" k3="1"/>
<feColorMatrix type="matrix" values="0 0 0 0 0 0 0 0 0 0 0 0 0 0 0 0 0 0 0.15 0"/>
<feBlend mode="normal" in2="shape" result="effect1_innerShadow_318_981"/>
</filter>
<filter id="filter7_i_318_981" x="1.57642" y="65.4886" width="6.50778" height="8.82195" filterUnits="userSpaceOnUse" color-interpolation-filters="sRGB">
<feFlood flood-opacity="0" result="BackgroundImageFix"/>
<feBlend mode="normal" in="SourceGraphic" in2="BackgroundImageFix" result="shape"/>
<feColorMatrix in="SourceAlpha" type="matrix" values="0 0 0 0 0 0 0 0 0 0 0 0 0 0 0 0 0 0 127 0" result="hardAlpha"/>
<feOffset dy="2"/>
<feGaussianBlur stdDeviation="2"/>
<feComposite in2="hardAlpha" operator="arithmetic" k2="-1" k3="1"/>
<feColorMatrix type="matrix" values="0 0 0 0 0 0 0 0 0 0 0 0 0 0 0 0 0 0 0.15 0"/>
<feBlend mode="normal" in2="shape" result="effect1_innerShadow_318_981"/>
</filter>
<filter id="filter8_i_318_981" x="5.47711" y="15.97" width="8.14127" height="10.5343" filterUnits="userSpaceOnUse" color-interpolation-filters="sRGB">
<feFlood flood-opacity="0" result="BackgroundImageFix"/>
<feBlend mode="normal" in="SourceGraphic" in2="BackgroundImageFix" result="shape"/>
<feColorMatrix in="SourceAlpha" type="matrix" values="0 0 0 0 0 0 0 0 0 0 0 0 0 0 0 0 0 0 127 0" result="hardAlpha"/>
<feOffset dy="2"/>
<feGaussianBlur stdDeviation="2"/>
<feComposite in2="hardAlpha" operator="arithmetic" k2="-1" k3="1"/>
<feColorMatrix type="matrix" values="0 0 0 0 0 0 0 0 0 0 0 0 0 0 0 0 0 0 0.15 0"/>
<feBlend mode="normal" in2="shape" result="effect1_innerShadow_318_981"/>
</filter>
<filter id="filter9_i_318_981" x="87.0339" y="54.3987" width="8.45667" height="10.8649" filterUnits="userSpaceOnUse" color-interpolation-filters="sRGB">
<feFlood flood-opacity="0" result="BackgroundImageFix"/>
<feBlend mode="normal" in="SourceGraphic" in2="BackgroundImageFix" result="shape"/>
<feColorMatrix in="SourceAlpha" type="matrix" values="0 0 0 0 0 0 0 0 0 0 0 0 0 0 0 0 0 0 127 0" result="hardAlpha"/>
<feOffset dy="2"/>
<feGaussianBlur stdDeviation="2"/>
<feComposite in2="hardAlpha" operator="arithmetic" k2="-1" k3="1"/>
<feColorMatrix type="matrix" values="0 0 0 0 0 0 0 0 0 0 0 0 0 0 0 0 0 0 0.15 0"/>
<feBlend mode="normal" in2="shape" result="effect1_innerShadow_318_981"/>
</filter>
<filter id="filter10_i_318_981" x="36.9879" y="2.43854" width="8.75616" height="10.7561" filterUnits="userSpaceOnUse" color-interpolation-filters="sRGB">
<feFlood flood-opacity="0" result="BackgroundImageFix"/>
<feBlend mode="normal" in="SourceGraphic" in2="BackgroundImageFix" result="shape"/>
<feColorMatrix in="SourceAlpha" type="matrix" values="0 0 0 0 0 0 0 0 0 0 0 0 0 0 0 0 0 0 127 0" result="hardAlpha"/>
<feOffset dy="2"/>
<feGaussianBlur stdDeviation="2"/>
<feComposite in2="hardAlpha" operator="arithmetic" k2="-1" k3="1"/>
<feColorMatrix type="matrix" values="0 0 0 0 0 0 0 0 0 0 0 0 0 0 0 0 0 0 0.15 0"/>
<feBlend mode="normal" in2="shape" result="effect1_innerShadow_318_981"/>
</filter>
<radialGradient id="paint0_radial_318_981" cx="0" cy="0" r="1" gradientUnits="userSpaceOnUse" gradientTransform="translate(84.9258 32.0185) rotate(132.407) scale(16.7561 13.6143)">
<stop stop-color="#D9D9D9"/>
<stop offset="1" stop-color="#2095EA"/>
</radialGradient>
<radialGradient id="paint1_radial_318_981" cx="0" cy="0" r="1" gradientUnits="userSpaceOnUse" gradientTransform="translate(18.9547 43.0555) rotate(16.765) scale(16.7561 13.6143)">
<stop stop-color="#D9D9D9"/>
<stop offset="1" stop-color="#EE1045"/>
</radialGradient>
<radialGradient id="paint2_radial_318_981" cx="0" cy="0" r="1" gradientUnits="userSpaceOnUse" gradientTransform="translate(33.1567 29.4509) rotate(69.4526) scale(16.7561 13.6143)">
<stop stop-color="#D9D9D9"/>
<stop offset="1" stop-color="#58B5A0"/>
</radialGradient>
</defs>
</svg>
