<svg xmlns="http://www.w3.org/2000/svg" xmlns:xlink="http://www.w3.org/1999/xlink" x="0px" y="0px"
	 viewBox="0 0 100 100" style="enable-background:new 0 0 100 100;" xml:space="preserve">
<g transform="translate(0 25.002)" class="st0">
	<g>
		<g transform="translate(0 -25.002)">
			<path d="M50.5,51.6c0.8-0.3,1.2-1.1,1-1.9c-0.3-0.8-1.2-1.2-2-0.9c-0.8,0.3-1.2,1.1-1,1.9c0,0,0,0,0,0
				C48.8,51.5,49.7,51.9,50.5,51.6C50.5,51.6,50.5,51.6,50.5,51.6"/>
			<path d="M49.4,54.1c-0.8,0.3-1.2,1.1-0.9,1.9c0.3,0.8,1.2,1.2,2,0.9c0,0,0,0,0,0
				c0.8-0.3,1.2-1.1,0.9-1.9c0,0,0,0,0,0C51.1,54.2,50.2,53.8,49.4,54.1"/>
			<path d="M43.9,48.8c-0.8,0.3-1.2,1.1-0.9,1.9c0,0,0,0,0,0c0.3,0.8,1.1,1.2,1.9,0.9c0,0,0,0,0,0
				c0.8-0.3,1.2-1.1,0.9-1.9c0,0,0,0,0,0C45.6,48.9,44.7,48.5,43.9,48.8"/>
			<path d="M49.5,43.4c-0.8,0.3-1.2,1.1-0.9,1.9c0.3,0.8,1.2,1.2,2,0.9c0.8-0.3,1.2-1.1,0.9-1.9
				c0,0,0,0,0,0C51.1,43.6,50.3,43.2,49.5,43.4"/>
			<path d="M55,48.8c-0.8,0.3-1.2,1.1-0.9,1.9c0.3,0.8,1.2,1.2,2,0.9c0.8-0.3,1.2-1.1,0.9-1.9c0,0,0,0,0,0
				C56.7,48.9,55.8,48.5,55,48.8"/>
			<path d="M44.9,56.9c0.8-0.3,1.2-1.1,1-1.9c-0.3-0.8-1.1-1.2-1.9-0.9c-0.8,0.3-1.2,1.1-1,1.9c0,0,0,0,0,0
				C43.3,56.7,44.1,57.1,44.9,56.9"/>
			<path d="M55,54.1c-0.8,0.3-1.2,1.1-0.9,1.9c0.3,0.8,1.1,1.2,1.9,0.9c0,0,0,0,0,0
				c0.8-0.3,1.2-1.1,0.9-1.8c0,0,0,0,0,0C56.6,54.2,55.8,53.8,55,54.1"/>
			<path d="M44,43.5c-0.8,0.3-1.2,1.1-0.9,1.9c0.3,0.8,1.1,1.2,1.9,0.9c0.8-0.3,1.2-1.1,0.9-1.8l0,0
				C45.6,43.6,44.7,43.2,44,43.5"/>
			<path d="M55,43.5c-0.8,0.3-1.2,1.1-0.9,1.9c0.3,0.7,1.2,1.1,1.9,0.8c0.8-0.3,1.2-1.1,0.9-1.8
				C56.6,43.6,55.8,43.2,55,43.5C55,43.5,55,43.5,55,43.5"/>
			<path d="M50.5,62.2c0.8-0.3,1.1-1.1,0.9-1.8c-0.3-0.7-1.1-1.1-1.9-0.9c0,0,0,0,0,0
				c-0.8,0.3-1.2,1.1-0.9,1.8c0,0,0,0,0,0C48.9,62,49.7,62.4,50.5,62.2C50.5,62.2,50.5,62.2,50.5,62.2"/>
			<path d="M39.4,51.5c0.8-0.3,1.2-1.1,0.9-1.8c0,0,0,0,0,0c-0.3-0.7-1.1-1.1-1.9-0.9c0,0,0,0,0,0
				c-0.8,0.3-1.1,1.1-0.9,1.8C37.8,51.3,38.6,51.7,39.4,51.5C39.4,51.5,39.4,51.5,39.4,51.5"/>
			<path d="M39.4,56.8c0.8-0.3,1.2-1.1,0.9-1.8c-0.3-0.7-1.1-1.1-1.9-0.8c-0.8,0.3-1.2,1.1-0.9,1.8
				C37.8,56.7,38.7,57.1,39.4,56.8"/>
			<path d="M44.9,62.1c0.8-0.3,1.1-1.1,0.9-1.8c-0.3-0.7-1.1-1.1-1.9-0.9c-0.8,0.3-1.1,1.1-0.9,1.8
				C43.3,62,44.1,62.4,44.9,62.1C44.9,62.1,44.9,62.1,44.9,62.1"/>
			<path d="M39.4,46.1c0.8-0.3,1.1-1.1,0.9-1.8c0,0,0,0,0,0c-0.3-0.7-1.1-1.1-1.9-0.8
				c-0.7,0.3-1.1,1.1-0.8,1.8C37.9,46,38.7,46.3,39.4,46.1"/>
			<path d="M55,59.5c-0.8,0.3-1.2,1-0.9,1.8c0,0,0,0,0,0c0.3,0.7,1.1,1.1,1.8,0.9s1.1-1,0.9-1.8
				C56.6,59.7,55.8,59.3,55,59.5C55,59.5,55,59.5,55,59.5"/>
			<path d="M49.6,38.2c-0.8,0.2-1.2,1-0.9,1.8c0.3,0.7,1.1,1.1,1.8,0.9c0.8-0.2,1.2-1,0.9-1.8
				C51.1,38.4,50.3,38,49.6,38.2"/>
			<path d="M60.5,48.9c-0.8,0.3-1.1,1.1-0.9,1.8c0,0,0,0,0,0c0.3,0.7,1.1,1.1,1.8,0.8
				c0.8-0.3,1.1-1.1,0.9-1.8C62.1,49,61.3,48.6,60.5,48.9"/>
			<path d="M44,38.2c-0.7,0.3-1.1,1-0.9,1.8c0.3,0.7,1.1,1.1,1.8,0.8c0.7-0.2,1.1-1,0.9-1.7c0,0,0,0,0,0
				C45.6,38.3,44.7,37.9,44,38.2C44,38.2,44,38.2,44,38.2"/>
			<path d="M60.5,54.2c-0.7,0.3-1.1,1-0.8,1.8c0,0,0,0,0,0c0.3,0.7,1.1,1.1,1.8,0.8
				c0.7-0.3,1.1-1.1,0.8-1.8C62.1,54.3,61.3,54,60.5,54.2C60.6,54.2,60.6,54.2,60.5,54.2"/>
			<path d="M60.6,43.6c-0.7,0.3-1.1,1-0.8,1.7c0,0,0,0,0,0c0.3,0.7,1.1,1.1,1.8,0.8
				c0.7-0.3,1.1-1.1,0.9-1.8C62.1,43.7,61.3,43.3,60.6,43.6C60.6,43.6,60.6,43.6,60.6,43.6"/>
			<path d="M55.1,38.2c-0.7,0.2-1.1,1-0.9,1.7c0.2,0.7,1,1.1,1.8,0.9c0,0,0.1,0,0.1,0
				c0.7-0.3,1.1-1,0.8-1.7C56.5,38.4,55.8,38,55.1,38.2"/>
			<path d="M39.4,62.1c0.7-0.3,1.1-1,0.8-1.7c-0.3-0.7-1-1-1.7-0.8c0,0,0,0,0,0c-0.7,0.3-1.1,1-0.8,1.7
				C37.8,61.9,38.6,62.3,39.4,62.1"/>
			<path d="M60.5,59.6c-0.7,0.3-1.1,1-0.8,1.7c0.3,0.7,1,1,1.7,0.8c0.7-0.2,1.1-1,0.9-1.6c0,0,0,0,0,0
				C62,59.7,61.3,59.4,60.5,59.6C60.5,59.6,60.5,59.6,60.5,59.6"/>
			<path d="M33.9,51.4c0.7-0.3,1.1-1,0.8-1.7c-0.3-0.7-1-1-1.7-0.8c-0.7,0.2-1.1,1-0.9,1.6c0,0,0,0,0,0
				C32.4,51.2,33.1,51.6,33.9,51.4C33.8,51.4,33.8,51.4,33.9,51.4"/>
			<path d="M50.4,67.4c0.7-0.2,1.1-1,0.8-1.7s-1-1-1.7-0.8c-0.7,0.2-1.1,1-0.8,1.7
				C48.9,67.2,49.7,67.6,50.4,67.4"/>
			<path d="M39.4,40.7c0.7-0.2,1.1-1,0.8-1.7c-0.2-0.7-1-1-1.7-0.8c-0.7,0.2-1.1,1-0.8,1.7
				C37.9,40.6,38.7,40.9,39.4,40.7"/>
			<path d="M33.8,56.6c0.7-0.2,1.1-1,0.8-1.7c-0.3-0.7-1-1-1.7-0.8c-0.7,0.2-1.1,1-0.8,1.7
				C32.4,56.5,33.1,56.9,33.8,56.6C33.8,56.7,33.8,56.6,33.8,56.6"/>
			<path d="M44.8,67.3c0.7-0.2,1.1-1,0.8-1.6c-0.2-0.7-1-1-1.7-0.8c0,0,0,0,0,0c-0.7,0.2-1.1,0.9-0.8,1.6
				c0,0,0,0,0,0C43.4,67.2,44.1,67.6,44.8,67.3C44.8,67.3,44.8,67.3,44.8,67.3"/>
			<path d="M62.3,39.1c-0.2-0.7-1-1-1.7-0.8c-0.7,0.2-1.1,1-0.8,1.6c0,0,0,0,0,0c0.2,0.7,1,1,1.7,0.8
				C62.2,40.5,62.6,39.8,62.3,39.1"/>
			<path d="M55,65c-0.7,0.2-1.1,1-0.8,1.6c0.2,0.7,1,1,1.7,0.8c0.7-0.2,1.1-1,0.8-1.6c0,0,0,0,0,0
				C56.5,65.1,55.7,64.7,55,65"/>
			<path d="M33.9,46c0.7-0.2,1-1,0.8-1.6c-0.2-0.7-1-1-1.7-0.8c-0.7,0.2-1,1-0.8,1.6c0,0,0,0,0,0
				C32.4,45.9,33.2,46.2,33.9,46"/>
			<path d="M67.8,49.8c-0.2-0.7-1-1-1.7-0.8c0,0,0,0,0,0c-0.7,0.2-1,1-0.8,1.6c0.2,0.7,1,1,1.7,0.8
				c0,0,0,0,0,0C67.7,51.2,68,50.4,67.8,49.8C67.8,49.8,67.8,49.8,67.8,49.8"/>
			<path d="M49.6,33c-0.7,0.2-1,0.9-0.8,1.6c0,0,0,0,0,0c0.2,0.6,1,1,1.7,0.8c0.7-0.2,1-0.9,0.8-1.6
				c0,0,0,0,0,0C51,33.1,50.3,32.8,49.6,33C49.6,33,49.6,33,49.6,33"/>
			<path d="M44.1,33c-0.7,0.2-1,0.9-0.8,1.6c0.2,0.6,1,1,1.6,0.8c0.7-0.2,1-0.9,0.8-1.6
				C45.5,33.1,44.8,32.8,44.1,33"/>
			<path d="M32.1,61.2c0.2,0.6,1,1,1.6,0.7c0.7-0.2,1-0.9,0.8-1.6c-0.2-0.6-1-1-1.6-0.8
				C32.2,59.8,31.9,60.5,32.1,61.2C32.1,61.2,32.1,61.2,32.1,61.2"/>
			<path d="M67.8,55.1c-0.2-0.6-1-1-1.6-0.8c-0.7,0.2-1,0.9-0.8,1.6c0.2,0.6,1,1,1.6,0.8
				C67.6,56.5,68,55.8,67.8,55.1"/>
			<path d="M37.7,66.5c0.2,0.6,1,1,1.6,0.7c0,0,0,0,0,0c0.7-0.2,1-0.9,0.8-1.6c-0.2-0.6-1-1-1.6-0.7
				c0,0,0,0,0,0C37.8,65.2,37.5,65.9,37.7,66.5C37.7,66.5,37.7,66.5,37.7,66.5"/>
			<path d="M55.1,33c-0.7,0.2-1,0.9-0.8,1.6c0,0,0,0,0,0c0.2,0.6,1,1,1.6,0.8c0.7-0.2,1-0.9,0.8-1.6
				c0,0,0,0,0,0C56.5,33.2,55.8,32.8,55.1,33C55.2,33,55.1,33,55.1,33"/>
			<path d="M67.8,44.5c-0.2-0.6-1-1-1.6-0.7c0,0,0,0,0,0c-0.7,0.2-1,0.9-0.8,1.6c0.2,0.6,1,1,1.6,0.7
				c0,0,0,0,0,0C67.7,45.8,68,45.1,67.8,44.5C67.8,44.5,67.8,44.5,67.8,44.5"/>
			<path d="M60.6,65c-0.6,0.2-1,0.9-0.8,1.5c0,0,0,0,0,0c0.2,0.6,0.9,0.9,1.6,0.7c0,0,0,0,0,0
				c0.6-0.2,1-0.9,0.8-1.5c0,0,0,0,0,0C61.9,65.1,61.2,64.8,60.6,65"/>
			<path d="M33.9,40.6c0.6-0.2,1-0.9,0.8-1.5c-0.2-0.6-0.9-1-1.6-0.7c0,0,0,0,0,0c-0.6,0.2-1,0.9-0.8,1.5
				c0,0,0,0,0,0C32.5,40.5,33.2,40.8,33.9,40.6C33.8,40.6,33.9,40.6,33.9,40.6"/>
			<path d="M39.4,35.3c0.6-0.2,1-0.9,0.7-1.5c0,0,0,0,0,0c-0.2-0.6-0.9-0.9-1.6-0.7
				c-0.6,0.2-1,0.9-0.7,1.5C38.1,35.2,38.8,35.5,39.4,35.3"/>
			<path d="M67.7,60.4c-0.2-0.6-0.9-0.9-1.6-0.7c-0.6,0.2-1,0.9-0.7,1.5c0.2,0.6,0.9,0.9,1.6,0.7
				C67.6,61.7,67.9,61.1,67.7,60.4"/>
			<path d="M26.7,50.5c0.2,0.6,0.9,0.9,1.5,0.7c0,0,0,0,0,0c0.6-0.2,1-0.8,0.8-1.4c0,0,0,0,0,0
				c-0.2-0.6-0.9-0.9-1.5-0.7c0,0,0,0,0,0C26.8,49.2,26.5,49.9,26.7,50.5"/>
			<path d="M66.2,38.5c-0.6,0.2-0.9,0.9-0.7,1.5c0.2,0.6,0.9,0.9,1.5,0.7c0.6-0.2,1-0.9,0.7-1.5
				C67.5,38.6,66.8,38.3,66.2,38.5C66.2,38.5,66.2,38.5,66.2,38.5"/>
			<path d="M62.2,33.8c-0.2-0.6-0.9-0.9-1.5-0.7c-0.6,0.2-0.9,0.9-0.7,1.5c0.2,0.6,0.9,0.9,1.5,0.7
				C62.1,35.1,62.4,34.4,62.2,33.8"/>
			<path d="M26.7,55.8c0.2,0.6,0.9,0.9,1.5,0.7c0.6-0.2,0.9-0.9,0.7-1.5c-0.2-0.6-0.9-0.9-1.5-0.7
				C26.8,54.6,26.5,55.2,26.7,55.8"/>
			<path d="M50.3,72.5c0.6-0.2,0.9-0.8,0.7-1.4c0,0,0,0,0,0c-0.2-0.6-0.9-0.9-1.5-0.7
				c-0.6,0.2-0.9,0.9-0.7,1.5C49,72.4,49.7,72.7,50.3,72.5C50.3,72.5,50.3,72.5,50.3,72.5"/>
			<path d="M44.8,72.5c0.6-0.2,0.9-0.9,0.7-1.4c-0.2-0.6-0.9-0.9-1.5-0.7l0,0c-0.6,0.2-0.9,0.9-0.7,1.4
				C43.5,72.4,44.2,72.7,44.8,72.5L44.8,72.5"/>
			<path d="M33.7,67.2c0.6-0.2,0.9-0.8,0.7-1.4c-0.2-0.6-0.9-0.9-1.5-0.7c0,0,0,0,0,0
				c-0.6,0.2-0.9,0.9-0.7,1.4C32.5,67.1,33.1,67.4,33.7,67.2"/>
			<path d="M26.8,45.1c0.2,0.6,0.9,0.9,1.5,0.7c0.6-0.2,0.9-0.8,0.7-1.4c-0.2-0.6-0.9-0.9-1.5-0.7
				c0,0,0,0,0,0C26.9,43.9,26.6,44.6,26.8,45.1"/>
			<path d="M55.8,72.5c0.6-0.2,0.9-0.8,0.7-1.4c-0.2-0.6-0.9-0.9-1.5-0.7c0,0,0,0,0,0
				c-0.6,0.2-0.9,0.8-0.7,1.4c0,0,0,0,0,0C54.6,72.4,55.2,72.7,55.8,72.5C55.8,72.5,55.8,72.5,55.8,72.5"/>
			<path d="M51.1,28.5c-0.2-0.6-0.9-0.9-1.4-0.7c-0.6,0.2-0.9,0.8-0.7,1.4c0.2,0.6,0.9,0.9,1.4,0.7
				c0,0,0,0,0,0C51,29.7,51.3,29,51.1,28.5"/>
			<path d="M71.7,49.2c-0.6,0.2-0.9,0.8-0.7,1.4c0.2,0.6,0.9,0.9,1.4,0.7c0.6-0.2,0.9-0.8,0.7-1.4
				C73,49.3,72.3,49,71.7,49.2C71.7,49.2,71.7,49.2,71.7,49.2"/>
			<path d="M28.2,61.8c0.6-0.2,0.9-0.8,0.7-1.4c-0.2-0.6-0.9-0.9-1.5-0.6c-0.6,0.2-0.9,0.8-0.7,1.4
				C27,61.7,27.6,62,28.2,61.8C28.2,61.8,28.2,61.8,28.2,61.8"/>
			<path d="M37.8,71.8c0.2,0.6,0.9,0.8,1.4,0.6c0.6-0.2,0.9-0.8,0.6-1.4c-0.2-0.6-0.8-0.8-1.4-0.7
				c0,0,0,0,0,0C37.9,70.6,37.6,71.2,37.8,71.8C37.8,71.8,37.8,71.8,37.8,71.8"/>
			<path d="M32.4,34.5c0.2,0.6,0.8,0.8,1.4,0.6c0,0,0,0,0,0c0.6-0.2,0.9-0.8,0.7-1.3c0,0,0,0,0,0
				c-0.2-0.6-0.9-0.8-1.4-0.6c0,0,0,0,0,0C32.5,33.3,32.2,33.9,32.4,34.5"/>
			<path d="M65.5,66.6c0.2,0.6,0.8,0.8,1.4,0.6c0,0,0,0,0,0c0.6-0.2,0.9-0.8,0.7-1.4
				c-0.2-0.6-0.8-0.9-1.4-0.7C65.6,65.4,65.3,66,65.5,66.6C65.5,66.6,65.5,66.6,65.5,66.6"/>
			<path d="M71.7,54.5c-0.6,0.2-0.9,0.8-0.7,1.4c0.2,0.6,0.8,0.8,1.4,0.7c0,0,0,0,0,0
				c0.6-0.2,0.9-0.8,0.7-1.4c0,0,0,0,0,0C72.9,54.6,72.3,54.3,71.7,54.5"/>
			<path d="M44.2,27.8c-0.6,0.2-0.9,0.8-0.7,1.3c0,0,0,0,0,0c0.2,0.6,0.8,0.8,1.4,0.6c0,0,0,0,0,0
				c0.6-0.2,0.9-0.8,0.7-1.4C45.3,27.9,44.7,27.6,44.2,27.8"/>
			<path d="M71.1,45.3c0.2,0.5,0.8,0.8,1.4,0.6c0.6-0.2,0.9-0.8,0.6-1.4c-0.2-0.5-0.8-0.8-1.4-0.6
				c0,0,0,0,0,0C71.2,44.1,70.9,44.7,71.1,45.3C71.1,45.2,71.1,45.2,71.1,45.3"/>
			<path d="M56.6,28.5c-0.2-0.5-0.8-0.8-1.4-0.6c-0.6,0.2-0.9,0.8-0.7,1.3s0.8,0.8,1.4,0.6
				C56.5,29.7,56.8,29.1,56.6,28.5"/>
			<path d="M26.9,39.8c0.2,0.5,0.8,0.8,1.4,0.6c0.6-0.2,0.8-0.8,0.6-1.3c-0.2-0.5-0.8-0.8-1.4-0.6
				C27,38.7,26.7,39.3,26.9,39.8C26.9,39.8,26.9,39.8,26.9,39.8"/>
			<path d="M61.4,72.5c0.6-0.2,0.8-0.8,0.6-1.3c0,0,0,0,0,0c-0.2-0.5-0.8-0.8-1.4-0.6
				c-0.6,0.2-0.8,0.8-0.6,1.3C60.2,72.4,60.8,72.7,61.4,72.5"/>
			<path d="M38,29.2c0.2,0.5,0.8,0.8,1.4,0.6c0,0,0,0,0,0c0.5-0.2,0.8-0.8,0.6-1.3c0,0,0,0,0,0
				c-0.2-0.5-0.8-0.8-1.3-0.6c0,0,0,0,0,0C38.1,28.1,37.8,28.6,38,29.2C38,29.2,38,29.2,38,29.2"/>
			<path d="M65.6,34.6c0.2,0.5,0.8,0.8,1.4,0.6c0,0,0,0,0,0c0.5-0.2,0.8-0.8,0.6-1.3c0,0,0,0,0,0
				c-0.2-0.5-0.8-0.8-1.3-0.6c0,0,0,0,0,0C65.7,33.5,65.4,34,65.6,34.6C65.6,34.6,65.6,34.6,65.6,34.6"/>
			<path d="M71.7,59.9c-0.5,0.2-0.8,0.8-0.6,1.3c0.2,0.5,0.8,0.8,1.3,0.6c0.5-0.2,0.8-0.8,0.6-1.3
				c0,0,0,0,0,0C72.9,60,72.3,59.8,71.7,59.9"/>
			<path d="M23.3,49.7c-0.2-0.5-0.8-0.8-1.3-0.6c-0.5,0.2-0.8,0.7-0.6,1.3c0,0,0,0,0,0
				c0.2,0.5,0.8,0.8,1.3,0.6c0,0,0,0,0,0C23.2,50.8,23.5,50.2,23.3,49.7"/>
			<path d="M28.8,65.8c-0.2-0.5-0.8-0.8-1.3-0.6c-0.5,0.2-0.8,0.8-0.6,1.3c0.2,0.5,0.7,0.8,1.3,0.6
				c0,0,0,0,0,0C28.7,66.8,29,66.3,28.8,65.8"/>
			<path d="M71.2,39.9c0.2,0.5,0.8,0.8,1.3,0.6c0.5-0.2,0.8-0.7,0.6-1.3c-0.2-0.5-0.8-0.8-1.3-0.6
				c0,0,0,0,0,0C71.3,38.8,71,39.4,71.2,39.9C71.2,39.9,71.2,39.9,71.2,39.9"/>
			<path d="M60.1,29.2c0.2,0.5,0.8,0.8,1.3,0.6c0,0,0,0,0,0c0.5-0.2,0.8-0.7,0.6-1.2c0,0,0,0,0,0
				c-0.2-0.5-0.8-0.8-1.3-0.6C60.2,28.1,59.9,28.7,60.1,29.2"/>
			<path d="M23.3,55.1c-0.2-0.5-0.7-0.8-1.3-0.6c-0.5,0.2-0.8,0.7-0.6,1.2c0.2,0.5,0.7,0.8,1.3,0.6
				c0,0,0,0,0,0C23.1,56.2,23.4,55.6,23.3,55.1C23.3,55.1,23.3,55.1,23.3,55.1"/>
			<path d="M34.3,71.1c-0.2-0.5-0.8-0.8-1.3-0.6c-0.5,0.2-0.8,0.7-0.6,1.2c0.2,0.5,0.7,0.8,1.3,0.6
				C34.2,72.2,34.4,71.6,34.3,71.1C34.3,71.1,34.3,71.1,34.3,71.1"/>
			<path d="M49,77.1c0.2,0.5,0.7,0.7,1.3,0.6c0.5-0.2,0.8-0.7,0.6-1.2c0,0,0,0,0,0
				c-0.2-0.5-0.7-0.7-1.3-0.6c0,0,0,0,0,0C49.1,76.1,48.8,76.6,49,77.1"/>
			<path d="M23.3,44.4c-0.2-0.5-0.7-0.7-1.2-0.6c0,0,0,0,0,0c-0.5,0.2-0.8,0.7-0.6,1.2
				c0.2,0.5,0.8,0.8,1.3,0.6C23.2,45.5,23.5,44.9,23.3,44.4"/>
			<path d="M65.6,71.9c0.2,0.5,0.7,0.7,1.2,0.5c0,0,0,0,0,0c0.5-0.2,0.8-0.7,0.6-1.2
				c-0.2-0.5-0.7-0.7-1.2-0.6C65.7,70.8,65.4,71.3,65.6,71.9C65.6,71.8,65.6,71.8,65.6,71.9"/>
			<path d="M45.3,76.5c-0.2-0.5-0.7-0.7-1.2-0.6c-0.5,0.2-0.8,0.7-0.6,1.2c0,0,0,0,0,0
				c0.2,0.5,0.7,0.7,1.2,0.6C45.2,77.5,45.4,77,45.3,76.5C45.3,76.5,45.3,76.5,45.3,76.5"/>
			<path d="M27,34.4c0.2,0.5,0.7,0.7,1.2,0.6c0,0,0,0,0,0c0.5-0.2,0.7-0.7,0.6-1.2c0,0,0,0,0,0
				c-0.2-0.5-0.7-0.7-1.2-0.5C27.1,33.4,26.8,34,27,34.4"/>
			<path d="M54.5,77.1c0.2,0.5,0.7,0.7,1.2,0.6c0.5-0.2,0.8-0.7,0.6-1.2c-0.2-0.5-0.7-0.7-1.2-0.6
				c0,0,0,0,0,0C54.6,76.1,54.4,76.6,54.5,77.1"/>
			<path d="M23.2,60.4C23,60,22.5,59.7,22,59.9c-0.5,0.2-0.8,0.7-0.6,1.2c0.2,0.5,0.7,0.7,1.2,0.6
				c0,0,0,0,0,0C23.1,61.4,23.4,60.9,23.2,60.4"/>
			<path d="M32.6,29.1c0.2,0.5,0.7,0.7,1.2,0.6c0.5-0.2,0.8-0.7,0.6-1.2c-0.2-0.5-0.7-0.7-1.2-0.6
				c0,0,0,0,0,0C32.7,28.1,32.4,28.6,32.6,29.1"/>
			<path d="M71.2,66.5c0.2,0.5,0.7,0.7,1.2,0.5c0.5-0.2,0.7-0.7,0.5-1.2c-0.2-0.5-0.7-0.7-1.2-0.5
				C71.2,65.5,71,66,71.2,66.5C71.2,66.5,71.2,66.5,71.2,66.5"/>
			<path d="M76.8,50.5c0.2,0.5,0.7,0.7,1.2,0.6c0,0,0,0,0,0c0.5-0.2,0.7-0.7,0.5-1.1
				c-0.2-0.5-0.7-0.7-1.2-0.5C76.8,49.6,76.6,50.1,76.8,50.5C76.7,50.5,76.7,50.5,76.8,50.5"/>
			<path d="M65.8,29.2c0.2,0.5,0.7,0.7,1.2,0.5c0.5-0.2,0.7-0.7,0.6-1.1c-0.2-0.5-0.7-0.7-1.1-0.6
				c0,0,0,0,0,0C65.9,28.2,65.6,28.7,65.8,29.2C65.8,29.2,65.8,29.2,65.8,29.2"/>
			<path d="M49.2,23.8c0.2,0.5,0.7,0.7,1.2,0.6c0.5-0.2,0.7-0.7,0.6-1.2c-0.2-0.5-0.7-0.7-1.2-0.5
				C49.3,22.8,49,23.3,49.2,23.8C49.2,23.8,49.2,23.8,49.2,23.8"/>
			<path d="M23.2,39.2c-0.1-0.4-0.6-0.7-1.1-0.6c0,0,0,0,0,0c-0.5,0.1-0.7,0.6-0.6,1.1
				c0.2,0.5,0.7,0.7,1.1,0.6C23.1,40.1,23.4,39.6,23.2,39.2C23.2,39.2,23.2,39.2,23.2,39.2"/>
			<path d="M54.8,23.9c0.2,0.4,0.7,0.7,1.1,0.5c0,0,0,0,0,0c0.5-0.2,0.7-0.7,0.5-1.1c0,0,0,0,0,0
				c-0.2-0.4-0.7-0.7-1.2-0.5C54.8,22.9,54.6,23.4,54.8,23.9C54.8,23.8,54.8,23.8,54.8,23.9"/>
			<path d="M71.3,34.5c0.2,0.4,0.7,0.7,1.2,0.5c0,0,0,0,0,0c0.5-0.2,0.7-0.6,0.5-1.1c0,0,0,0,0,0
				c-0.2-0.5-0.7-0.7-1.2-0.5c0,0,0,0,0,0C71.4,33.6,71.1,34.1,71.3,34.5"/>
			<path d="M39.7,76.5c-0.2-0.4-0.7-0.7-1.1-0.5c0,0,0,0,0,0c-0.5,0.2-0.7,0.7-0.5,1.1c0,0,0,0,0,0
				c0.2,0.4,0.7,0.7,1.2,0.5C39.6,77.4,39.9,76.9,39.7,76.5C39.7,76.5,39.7,76.5,39.7,76.5"/>
			<path d="M76.8,55.9c0.2,0.4,0.7,0.7,1.1,0.5c0,0,0,0,0,0c0.5-0.2,0.7-0.7,0.5-1.1c0,0,0,0,0,0
				c-0.2-0.4-0.7-0.7-1.2-0.5C76.8,54.9,76.6,55.4,76.8,55.9C76.8,55.8,76.8,55.8,76.8,55.9"/>
			<path d="M45.4,23.2c-0.2-0.4-0.7-0.7-1.1-0.5c0,0,0,0,0,0c-0.5,0.2-0.7,0.7-0.6,1.1c0,0,0,0,0,0
				c0.2,0.4,0.7,0.7,1.2,0.5C45.3,24.2,45.6,23.7,45.4,23.2C45.4,23.2,45.4,23.2,45.4,23.2"/>
			<path d="M28.6,71.1c-0.2-0.4-0.7-0.7-1.1-0.5c-0.5,0.1-0.7,0.6-0.6,1.1c0,0,0,0,0,0
				c0.2,0.4,0.7,0.7,1.1,0.5C28.6,72,28.8,71.5,28.6,71.1"/>
			<path d="M76.8,45.2c0.2,0.4,0.7,0.7,1.1,0.5c0.5-0.2,0.7-0.6,0.5-1.1l0,0c-0.2-0.4-0.7-0.7-1.1-0.5
				C76.9,44.3,76.7,44.8,76.8,45.2"/>
			<path d="M60.7,76c-0.5,0.2-0.7,0.6-0.5,1.1c0.2,0.4,0.7,0.7,1.1,0.5c0.5-0.2,0.7-0.6,0.5-1.1
				C61.6,76.1,61.1,75.9,60.7,76"/>
			<path d="M76.8,61.2c0.2,0.4,0.6,0.7,1.1,0.5c0.4-0.1,0.7-0.6,0.5-1c0,0,0,0,0,0
				c-0.2-0.4-0.6-0.7-1.1-0.5C76.9,60.3,76.6,60.7,76.8,61.2"/>
			<path d="M38.7,22.7c-0.4,0.2-0.7,0.6-0.5,1.1c0.2,0.4,0.7,0.6,1.1,0.5c0.4-0.2,0.7-0.6,0.5-1
				c0,0,0,0,0,0C39.6,22.8,39.2,22.6,38.7,22.7"/>
			<path d="M34.1,76.5C34,76.1,33.5,75.8,33,76c0,0,0,0,0,0c-0.4,0.1-0.7,0.6-0.5,1c0,0,0,0,0,0
				c0.2,0.4,0.6,0.6,1.1,0.5c0,0,0,0,0,0C34,77.3,34.2,76.9,34.1,76.5"/>
			<path d="M60.3,23.8c0.2,0.4,0.6,0.6,1.1,0.5c0.4-0.1,0.7-0.6,0.5-1c0,0,0,0,0,0
				c-0.1-0.4-0.6-0.6-1-0.5c0,0,0,0,0,0C60.4,22.9,60.2,23.4,60.3,23.8C60.3,23.8,60.3,23.8,60.3,23.8"/>
			<path d="M23.1,65.8c-0.1-0.4-0.6-0.6-1-0.5c0,0,0,0,0,0c-0.4,0.2-0.6,0.6-0.5,1
				c0.2,0.4,0.6,0.6,1.1,0.5C23,66.7,23.2,66.2,23.1,65.8C23.1,65.8,23.1,65.8,23.1,65.8"/>
			<path d="M76.9,39.8c0.2,0.4,0.6,0.6,1.1,0.5c0.4-0.1,0.6-0.6,0.5-1c-0.1-0.4-0.6-0.6-1-0.5
				c0,0,0,0,0,0C76.9,39,76.7,39.4,76.9,39.8"/>
			<path d="M71.3,71.8c0.1,0.4,0.6,0.6,1,0.5c0,0,0,0,0,0c0.4-0.1,0.6-0.6,0.5-1c-0.1-0.4-0.6-0.6-1-0.5
				C71.4,70.9,71.1,71.4,71.3,71.8"/>
			<path d="M28.7,28.5c-0.2-0.4-0.6-0.6-1.1-0.5c-0.4,0.2-0.6,0.6-0.5,1c0.1,0.4,0.6,0.6,1,0.5
				c0,0,0,0,0,0C28.6,29.4,28.8,28.9,28.7,28.5C28.7,28.5,28.7,28.5,28.7,28.5"/>
			<path d="M23.1,33.9c-0.1-0.4-0.6-0.6-1-0.5c-0.4,0.1-0.6,0.6-0.5,1c0.1,0.4,0.6,0.6,1,0.5c0,0,0,0,0,0
				C23.1,34.7,23.3,34.2,23.1,33.9"/>
			<path d="M17.5,49.8c-0.1-0.4-0.6-0.6-1-0.5s-0.6,0.6-0.5,1c0,0,0,0,0,0c0.1,0.4,0.6,0.6,1,0.5
				C17.5,50.6,17.7,50.2,17.5,49.8"/>
			<path d="M17.5,55.2c-0.1-0.4-0.6-0.6-1-0.5c-0.4,0.1-0.6,0.5-0.5,0.9c0.1,0.4,0.6,0.6,1,0.5
				c0,0,0,0,0,0C17.4,56,17.7,55.6,17.5,55.2C17.6,55.2,17.6,55.2,17.5,55.2"/>
			<path d="M76.9,66.5c0.1,0.4,0.6,0.6,1,0.5c0.4-0.1,0.6-0.6,0.5-0.9c-0.1-0.4-0.6-0.6-1-0.5
				C76.9,65.7,76.7,66.1,76.9,66.5"/>
			<path d="M71.5,29.2c0.2,0.4,0.6,0.6,1,0.4c0.4-0.1,0.6-0.6,0.4-0.9c-0.2-0.4-0.6-0.6-1-0.4
				C71.5,28.4,71.3,28.8,71.5,29.2"/>
			<path d="M17.5,44.5c-0.1-0.4-0.6-0.6-1-0.4c-0.4,0.1-0.6,0.6-0.5,0.9c0.1,0.4,0.6,0.6,1,0.4
				C17.5,45.3,17.7,44.9,17.5,44.5"/>
			<path d="M65.8,77.1c0.1,0.4,0.6,0.6,1,0.4c0.4-0.1,0.6-0.5,0.5-0.9c-0.1-0.4-0.6-0.6-1-0.5
				C65.8,76.3,65.6,76.7,65.8,77.1"/>
			<path d="M34.2,23.2c-0.1-0.4-0.6-0.5-0.9-0.4c-0.4,0.1-0.6,0.5-0.5,0.9c0,0,0,0,0,0
				c0.1,0.4,0.6,0.6,0.9,0.4C34.1,24,34.3,23.6,34.2,23.2"/>
			<path d="M50.6,81.9c-0.1-0.4-0.6-0.6-1-0.4c-0.4,0.1-0.6,0.5-0.4,0.9c0.1,0.4,0.5,0.6,0.9,0.5
				c0,0,0,0,0,0C50.5,82.7,50.7,82.3,50.6,81.9"/>
			<path d="M66,23.8c0.1,0.4,0.6,0.6,0.9,0.4c0.4-0.1,0.6-0.5,0.5-0.9c0,0,0,0,0,0
				c-0.1-0.4-0.5-0.6-0.9-0.4C66,23,65.8,23.4,66,23.8"/>
			<path d="M45,81.8c-0.1-0.4-0.6-0.5-0.9-0.4c-0.4,0.1-0.6,0.5-0.4,0.9c0.1,0.4,0.6,0.6,1,0.4
				C45,82.6,45.2,82.2,45,81.8C45,81.8,45,81.8,45,81.8"/>
			<path d="M17.5,39.2c-0.1-0.4-0.5-0.5-0.9-0.4c0,0,0,0,0,0c-0.4,0.1-0.5,0.5-0.4,0.9c0,0,0,0,0,0
				c0.1,0.4,0.5,0.5,0.9,0.4C17.4,39.9,17.6,39.5,17.5,39.2"/>
			<path d="M39.5,81.8c-0.1-0.4-0.5-0.5-0.9-0.4c0,0,0,0,0,0c-0.4,0.1-0.6,0.5-0.4,0.9
				c0.1,0.4,0.5,0.6,0.9,0.4C39.4,82.6,39.6,82.2,39.5,81.8"/>
			<path d="M56.1,81.9c-0.1-0.4-0.5-0.5-0.9-0.4c-0.4,0.1-0.6,0.5-0.4,0.9c0.1,0.4,0.5,0.5,0.9,0.4
				C56,82.7,56.2,82.3,56.1,81.9C56.1,81.9,56.1,81.9,56.1,81.9"/>
			<path d="M17.4,60.5c-0.1-0.4-0.5-0.6-0.9-0.4c-0.4,0.1-0.6,0.5-0.4,0.9c0.1,0.4,0.5,0.5,0.9,0.4
				c0,0,0,0,0,0C17.4,61.2,17.6,60.8,17.4,60.5"/>
			<path d="M22.9,71.1c-0.1-0.4-0.5-0.5-0.9-0.4c0,0,0,0,0,0c-0.4,0.1-0.5,0.5-0.4,0.9c0,0,0,0,0,0
				c0.1,0.4,0.5,0.5,0.9,0.4C22.9,71.9,23.1,71.5,22.9,71.1"/>
			<path d="M77,34.5c0.1,0.4,0.5,0.5,0.9,0.4c0.4-0.1,0.6-0.5,0.4-0.9c-0.1-0.4-0.5-0.5-0.9-0.4
				c0,0,0,0,0,0C77.1,33.7,76.9,34.1,77,34.5C77,34.5,77,34.5,77,34.5"/>
			<path d="M28.4,76.5c-0.1-0.4-0.5-0.5-0.9-0.4c-0.4,0.1-0.6,0.5-0.4,0.9c0.1,0.3,0.5,0.5,0.9,0.4
				C28.4,77.3,28.6,76.9,28.4,76.5C28.4,76.5,28.4,76.5,28.4,76.5"/>
			<path d="M49.4,18.4c0.1,0.4,0.5,0.5,0.9,0.4c0.4-0.1,0.6-0.5,0.4-0.9c0,0,0,0,0,0
				c-0.1-0.4-0.5-0.5-0.9-0.4C49.5,17.7,49.3,18.1,49.4,18.4"/>
			<path d="M82.5,55.8c0.1,0.3,0.5,0.5,0.9,0.4c0.3-0.1,0.5-0.5,0.4-0.8c-0.1-0.3-0.5-0.5-0.9-0.4
				C82.6,55.1,82.4,55.4,82.5,55.8C82.5,55.8,82.5,55.8,82.5,55.8"/>
			<path d="M43.9,18.4c0.1,0.3,0.5,0.5,0.9,0.4c0.4-0.1,0.5-0.5,0.4-0.8c-0.1-0.3-0.5-0.5-0.8-0.4
				c0,0,0,0,0,0C44,17.7,43.8,18.1,43.9,18.4"/>
			<path d="M82.5,50.5c0.1,0.3,0.5,0.5,0.9,0.4c0.3-0.1,0.5-0.5,0.4-0.8c0,0,0,0,0,0
				c-0.1-0.3-0.5-0.5-0.9-0.4C82.6,49.7,82.4,50.1,82.5,50.5"/>
			<path d="M55,18.4c0.1,0.3,0.5,0.5,0.9,0.4c0.3-0.1,0.5-0.5,0.4-0.8c0,0,0,0,0,0
				c-0.1-0.3-0.5-0.5-0.9-0.4C55,17.7,54.9,18.1,55,18.4"/>
			<path d="M82.5,61.1c0.1,0.3,0.5,0.5,0.8,0.4c0.3-0.1,0.5-0.5,0.4-0.8c-0.1-0.3-0.5-0.5-0.8-0.4
				c0,0,0,0,0,0C82.6,60.4,82.4,60.8,82.5,61.1C82.5,61.1,82.5,61.1,82.5,61.1"/>
			<path d="M23,28.6c-0.1-0.3-0.5-0.5-0.9-0.4c-0.3,0.1-0.5,0.5-0.4,0.8c0,0,0,0,0,0
				c0.1,0.3,0.5,0.5,0.8,0.4c0,0,0,0,0,0C23,29.3,23.1,28.9,23,28.6"/>
			<path d="M82.6,45.1c0.1,0.3,0.5,0.5,0.8,0.4c0,0,0,0,0,0c0.3-0.1,0.5-0.5,0.4-0.8c0,0,0,0,0,0
				c-0.1-0.3-0.5-0.5-0.8-0.4C82.6,44.4,82.5,44.8,82.6,45.1"/>
			<path d="M60.5,18.5c0.1,0.3,0.5,0.5,0.8,0.4c0.3-0.1,0.5-0.5,0.4-0.8c-0.1-0.3-0.5-0.5-0.8-0.4
				c0,0,0,0,0,0C60.6,17.8,60.4,18.1,60.5,18.5C60.5,18.4,60.5,18.5,60.5,18.5"/>
			<path d="M39.6,18c-0.1-0.3-0.5-0.5-0.8-0.4c-0.3,0.1-0.5,0.5-0.4,0.8c0,0,0,0,0,0
				c0.1,0.3,0.4,0.5,0.8,0.4c0,0,0,0,0,0C39.5,18.6,39.7,18.3,39.6,18C39.6,18,39.6,18,39.6,18"/>
			<path d="M71.4,77.1c0.1,0.3,0.5,0.5,0.8,0.4c0,0,0,0,0,0c0.3-0.1,0.5-0.5,0.4-0.8
				c-0.1-0.3-0.5-0.5-0.8-0.4c0,0,0,0,0,0C71.5,76.4,71.3,76.7,71.4,77.1C71.4,77,71.4,77,71.4,77.1"/>
			<path d="M61.5,82c-0.1-0.3-0.4-0.5-0.8-0.4c0,0,0,0,0,0c-0.3,0.1-0.5,0.5-0.4,0.8c0,0,0,0,0,0
				c0.1,0.3,0.5,0.5,0.8,0.4C61.5,82.6,61.6,82.3,61.5,82C61.5,82,61.5,82,61.5,82"/>
			<path d="M28.5,23.3c-0.1-0.3-0.4-0.5-0.8-0.4c0,0,0,0,0,0c-0.3,0.1-0.5,0.4-0.4,0.8c0,0,0,0,0,0
				c0.1,0.3,0.5,0.5,0.8,0.4C28.5,23.9,28.6,23.6,28.5,23.3C28.5,23.3,28.5,23.3,28.5,23.3"/>
			<path d="M17.4,33.9c-0.1-0.3-0.5-0.5-0.8-0.4c0,0,0,0,0,0c-0.3,0.1-0.5,0.5-0.4,0.8
				c0.1,0.3,0.5,0.5,0.8,0.3c0,0,0,0,0,0C17.4,34.5,17.6,34.2,17.4,33.9C17.4,33.9,17.4,33.9,17.4,33.9"/>
			<path d="M33.9,81.9c-0.1-0.3-0.4-0.5-0.8-0.4c0,0,0,0,0,0c-0.3,0.1-0.5,0.4-0.4,0.8
				c0.1,0.3,0.5,0.5,0.8,0.4C33.8,82.5,34,82.2,33.9,81.9C33.9,81.9,33.9,81.9,33.9,81.9"/>
			<path d="M17.3,65.8c-0.1-0.3-0.5-0.5-0.8-0.3c-0.3,0.1-0.5,0.5-0.4,0.8c0.1,0.3,0.5,0.5,0.8,0.4
				c0,0,0,0,0,0C17.3,66.5,17.5,66.1,17.3,65.8C17.3,65.8,17.3,65.8,17.3,65.8"/>
			<path d="M77,71.8c0.1,0.3,0.4,0.5,0.8,0.4c0,0,0,0,0,0c0.3-0.1,0.5-0.5,0.4-0.8c0,0,0,0,0,0
				C78,71,77.7,70.9,77.3,71C77,71.1,76.9,71.4,77,71.8C77,71.8,77,71.8,77,71.8"/>
			<path d="M71.6,23.8c0.1,0.3,0.4,0.4,0.7,0.3c0,0,0,0,0,0c0.3-0.1,0.5-0.4,0.4-0.7
				c-0.1-0.3-0.5-0.5-0.8-0.3C71.7,23.2,71.5,23.5,71.6,23.8"/>
			<path d="M82.6,39.8c0.1,0.3,0.5,0.4,0.8,0.3c0.3-0.1,0.5-0.4,0.4-0.7c0,0,0,0,0,0
				c-0.1-0.3-0.5-0.4-0.8-0.3C82.7,39.2,82.5,39.5,82.6,39.8"/>
			<path d="M66.1,18.4c0.1,0.3,0.4,0.4,0.7,0.3c0.3-0.1,0.5-0.4,0.4-0.7c0,0,0,0,0,0
				c-0.1-0.3-0.4-0.5-0.7-0.4c0,0,0,0,0,0C66.2,17.8,66,18.1,66.1,18.4"/>
			<path d="M82.6,66.4c0.1,0.3,0.4,0.4,0.8,0.3c0.3-0.1,0.5-0.4,0.4-0.7c-0.1-0.3-0.4-0.5-0.8-0.3
				c0,0,0,0,0,0C82.6,65.8,82.5,66.1,82.6,66.4C82.6,66.4,82.6,66.4,82.6,66.4"/>
			<path d="M77.1,29.1c0.1,0.3,0.4,0.4,0.7,0.4c0.3-0.1,0.5-0.4,0.4-0.7c-0.1-0.3-0.4-0.5-0.7-0.4
				c0,0,0,0,0,0C77.2,28.5,77,28.8,77.1,29.1"/>
			<path d="M11.8,49.9c-0.1-0.3-0.4-0.4-0.7-0.3c-0.3,0.1-0.4,0.4-0.3,0.7c0.1,0.3,0.4,0.4,0.7,0.3
				c0,0,0,0,0,0C11.7,50.5,11.9,50.2,11.8,49.9C11.8,49.9,11.8,49.9,11.8,49.9"/>
			<path d="M22.8,76.5c-0.1-0.3-0.4-0.4-0.7-0.3c0,0,0,0,0,0c-0.3,0.1-0.5,0.4-0.4,0.7c0,0,0,0,0,0
				c0.1,0.3,0.4,0.4,0.7,0.3C22.7,77.1,22.9,76.8,22.8,76.5"/>
			<path d="M11.8,44.6c-0.1-0.3-0.4-0.4-0.7-0.3c0,0,0,0,0,0c-0.3,0.1-0.4,0.4-0.3,0.7
				c0.1,0.3,0.4,0.4,0.7,0.3c0,0,0,0,0,0C11.8,45.1,11.9,44.8,11.8,44.6C11.8,44.6,11.8,44.6,11.8,44.6"/>
			<path d="M11.8,39.2c-0.1-0.3-0.4-0.4-0.7-0.3c-0.3,0.1-0.4,0.4-0.3,0.6c0.1,0.3,0.4,0.4,0.6,0.3
				c0,0,0,0,0,0C11.8,39.8,11.9,39.5,11.8,39.2"/>
			<path d="M67,82c-0.1-0.3-0.4-0.4-0.6-0.3C66,81.8,65.9,82,66,82.3c0.1,0.3,0.4,0.4,0.7,0.3
				C66.9,82.5,67.1,82.3,67,82"/>
			<path d="M11.8,55.2c-0.1-0.3-0.4-0.4-0.7-0.3c-0.3,0.1-0.4,0.4-0.3,0.6c0.1,0.3,0.4,0.4,0.7,0.3
				C11.7,55.8,11.8,55.5,11.8,55.2"/>
			<path d="M28.3,81.9c-0.1-0.3-0.4-0.4-0.7-0.3c-0.3,0.1-0.4,0.4-0.3,0.7c0.1,0.3,0.4,0.4,0.7,0.3
				C28.2,82.4,28.4,82.1,28.3,81.9C28.3,81.9,28.3,81.9,28.3,81.9"/>
			<path d="M34,18c-0.1-0.3-0.4-0.4-0.6-0.3c-0.3,0.1-0.4,0.4-0.3,0.6c0,0,0,0,0,0
				c0.1,0.3,0.4,0.4,0.7,0.3C34,18.5,34.1,18.2,34,18C34,18,34,18,34,18"/>
			<path d="M44.8,87.3c-0.1-0.2-0.4-0.4-0.6-0.3s-0.4,0.4-0.3,0.6c0.1,0.2,0.4,0.4,0.6,0.3
				C44.7,87.8,44.9,87.5,44.8,87.3C44.8,87.3,44.8,87.3,44.8,87.3"/>
			<path d="M55.2,13c0.1,0.2,0.3,0.4,0.6,0.3c0.3-0.1,0.4-0.3,0.3-0.6c-0.1-0.2-0.3-0.4-0.6-0.3
				c0,0,0,0,0,0C55.2,12.5,55.1,12.8,55.2,13"/>
			<path d="M49.6,13c0.1,0.2,0.4,0.4,0.6,0.3c0.3-0.1,0.4-0.3,0.3-0.6c-0.1-0.2-0.4-0.4-0.6-0.3
				c0,0,0,0,0,0C49.7,12.5,49.5,12.8,49.6,13"/>
			<path d="M39.3,87.2c-0.1-0.2-0.4-0.4-0.6-0.3c-0.3,0.1-0.4,0.4-0.3,0.6c0.1,0.2,0.4,0.4,0.6,0.3
				C39.2,87.8,39.4,87.5,39.3,87.2C39.3,87.2,39.3,87.2,39.3,87.2"/>
			<path d="M17.3,28.6c-0.1-0.2-0.4-0.4-0.6-0.3c-0.3,0.1-0.4,0.3-0.3,0.6c0.1,0.2,0.4,0.4,0.6,0.3
				c0,0,0,0,0,0C17.3,29.1,17.4,28.9,17.3,28.6"/>
			<path d="M82.8,34.4c0.1,0.2,0.4,0.4,0.6,0.3c0.3-0.1,0.4-0.4,0.3-0.6c-0.1-0.2-0.4-0.4-0.6-0.3
				C82.8,33.9,82.7,34.2,82.8,34.4C82.8,34.4,82.8,34.4,82.8,34.4"/>
			<path d="M17.2,71.2c-0.1-0.2-0.4-0.4-0.6-0.3c-0.2,0.1-0.4,0.4-0.3,0.6c0.1,0.2,0.4,0.4,0.6,0.3
				C17.2,71.7,17.3,71.5,17.2,71.2C17.2,71.2,17.2,71.2,17.2,71.2"/>
			<path d="M50.3,87.3c-0.1-0.2-0.4-0.4-0.6-0.3c-0.2,0.1-0.4,0.4-0.3,0.6c0.1,0.2,0.4,0.4,0.6,0.3
				C50.3,87.8,50.4,87.5,50.3,87.3"/>
			<path d="M22.9,23.3c-0.1-0.2-0.4-0.4-0.6-0.3c-0.3,0.1-0.4,0.3-0.3,0.6c0.1,0.2,0.4,0.4,0.6,0.3
				C22.8,23.8,23,23.6,22.9,23.3C22.9,23.3,22.9,23.3,22.9,23.3"/>
			<path d="M11.7,60.5c-0.1-0.2-0.4-0.4-0.6-0.3c-0.2,0.1-0.4,0.4-0.3,0.6c0.1,0.2,0.4,0.4,0.6,0.3
				C11.6,61.1,11.8,60.8,11.7,60.5"/>
			<path d="M44.7,13.2c0.2-0.1,0.3-0.3,0.3-0.5c0,0,0,0,0,0c-0.1-0.2-0.3-0.3-0.5-0.3c0,0,0,0,0,0
				c-0.2,0.1-0.3,0.3-0.3,0.6C44.2,13.2,44.5,13.3,44.7,13.2"/>
			<path d="M88.3,50.4c0.1,0.2,0.3,0.3,0.5,0.2c0,0,0,0,0,0c0.2-0.1,0.3-0.3,0.3-0.5
				c-0.1-0.2-0.3-0.3-0.6-0.3C88.3,50,88.2,50.2,88.3,50.4C88.3,50.4,88.3,50.4,88.3,50.4"/>
			<path d="M88.2,61c0.1,0.2,0.3,0.3,0.6,0.3c0.2-0.1,0.3-0.3,0.3-0.5c-0.1-0.2-0.3-0.3-0.5-0.3
				c0,0,0,0,0,0C88.3,60.6,88.2,60.8,88.2,61C88.2,61,88.2,61,88.2,61"/>
			<path d="M77.3,23.7c0.1,0.2,0.3,0.3,0.5,0.3c0,0,0,0,0,0c0.2-0.1,0.3-0.3,0.3-0.6
				c-0.1-0.2-0.3-0.3-0.6-0.2C77.3,23.3,77.2,23.5,77.3,23.7C77.3,23.7,77.3,23.7,77.3,23.7"/>
			<path d="M82.7,71.7c0.1,0.2,0.3,0.4,0.6,0.3c0.2-0.1,0.3-0.3,0.3-0.5c-0.1-0.2-0.3-0.4-0.5-0.3
				c0,0,0,0,0,0C82.7,71.2,82.6,71.5,82.7,71.7"/>
			<path d="M28.4,18c-0.1-0.2-0.3-0.3-0.5-0.3c0,0,0,0,0,0c-0.2,0.1-0.3,0.3-0.3,0.5
				c0.1,0.2,0.3,0.3,0.6,0.3C28.3,18.5,28.5,18.2,28.4,18"/>
			<path d="M88.3,55.7c0.1,0.2,0.3,0.3,0.5,0.2c0,0,0,0,0,0c0.2-0.1,0.3-0.3,0.3-0.5
				c-0.1-0.2-0.3-0.3-0.6-0.3C88.3,55.3,88.2,55.5,88.3,55.7C88.2,55.7,88.3,55.7,88.3,55.7"/>
			<path d="M77.1,77c0.1,0.2,0.3,0.3,0.6,0.2c0.2-0.1,0.3-0.3,0.3-0.5c0,0,0,0,0,0
				c-0.1-0.2-0.3-0.4-0.5-0.3c0,0,0,0,0,0C77.2,76.5,77.1,76.8,77.1,77"/>
			<path d="M60.7,13c0.1,0.2,0.3,0.3,0.6,0.3c0.2-0.1,0.3-0.3,0.3-0.5c-0.1-0.2-0.3-0.3-0.5-0.3
				c0,0,0,0,0,0C60.8,12.6,60.7,12.8,60.7,13C60.7,13,60.7,13,60.7,13"/>
			<path d="M33.7,87.3c-0.1-0.2-0.4-0.3-0.6-0.2c-0.2,0.1-0.3,0.3-0.2,0.5c0.1,0.2,0.3,0.3,0.5,0.3
				c0,0,0,0,0,0C33.7,87.7,33.8,87.5,33.7,87.3"/>
			<path d="M11.7,34c-0.1-0.2-0.3-0.4-0.5-0.3c-0.2,0.1-0.4,0.3-0.3,0.5c0,0.2,0.3,0.4,0.5,0.3
				c0,0,0,0,0,0C11.7,34.4,11.8,34.2,11.7,34"/>
			<path d="M71.8,18.4c0.1,0.2,0.3,0.3,0.6,0.3c0.2-0.1,0.3-0.3,0.3-0.5c0,0,0,0,0,0
				c-0.1-0.2-0.3-0.3-0.5-0.2c0,0,0,0,0,0C71.8,18,71.7,18.2,71.8,18.4"/>
			<path d="M55.8,87.3c-0.1-0.2-0.3-0.3-0.5-0.3c0,0,0,0,0,0c-0.2,0.1-0.3,0.3-0.3,0.6
				c0.1,0.2,0.3,0.3,0.6,0.2C55.8,87.8,55.9,87.6,55.8,87.3C55.8,87.3,55.8,87.3,55.8,87.3"/>
			<path d="M22.6,81.9c-0.1-0.2-0.3-0.3-0.5-0.2c0,0,0,0,0,0c-0.2,0.1-0.3,0.3-0.2,0.5
				c0.1,0.2,0.3,0.3,0.5,0.2C22.6,82.3,22.7,82.1,22.6,81.9"/>
			<path d="M66.3,13c0.1,0.2,0.3,0.3,0.5,0.2c0.2-0.1,0.3-0.3,0.2-0.5c-0.1-0.2-0.3-0.3-0.5-0.2
				C66.4,12.6,66.2,12.8,66.3,13C66.3,13,66.3,13,66.3,13"/>
			<path d="M88.3,66.4c0.1,0.2,0.3,0.3,0.5,0.3c0,0,0,0,0,0c0.2-0.1,0.3-0.3,0.2-0.5
				c-0.1-0.2-0.3-0.3-0.5-0.2C88.3,66,88.2,66.2,88.3,66.4"/>
			<path d="M72.2,82.5c0.2-0.1,0.3-0.3,0.2-0.5c-0.1-0.2-0.3-0.3-0.5-0.2c-0.2,0.1-0.3,0.3-0.2,0.5
				C71.7,82.5,71.9,82.6,72.2,82.5C72.2,82.5,72.2,82.5,72.2,82.5"/>
			<path d="M61.3,87.3c-0.1-0.2-0.3-0.3-0.5-0.2c-0.2,0.1-0.3,0.3-0.2,0.5c0.1,0.2,0.3,0.3,0.5,0.2
				C61.3,87.7,61.4,87.5,61.3,87.3C61.3,87.3,61.3,87.3,61.3,87.3"/>
			<path d="M82.9,29.1c0.1,0.2,0.3,0.3,0.5,0.2c0.2-0.1,0.3-0.3,0.2-0.5c-0.1-0.2-0.3-0.3-0.5-0.2
				C82.9,28.7,82.8,28.9,82.9,29.1C82.9,29.1,82.9,29.1,82.9,29.1"/>
			<path d="M11.6,65.9c-0.1-0.2-0.3-0.3-0.5-0.2c0,0,0,0,0,0c-0.2,0.1-0.3,0.3-0.2,0.5
				c0.1,0.2,0.3,0.3,0.5,0.2c0,0,0,0,0,0C11.6,66.3,11.7,66.1,11.6,65.9"/>
			<path d="M39.4,12.7c-0.1-0.2-0.3-0.3-0.5-0.2c-0.2,0.1-0.3,0.3-0.2,0.5c0.1,0.2,0.3,0.3,0.5,0.2
				C39.4,13.1,39.5,12.9,39.4,12.7C39.4,12.7,39.4,12.7,39.4,12.7"/>
			<path d="M88.3,45.1c0.1,0.2,0.3,0.3,0.5,0.2c0.2-0.1,0.3-0.3,0.2-0.5c-0.1-0.2-0.3-0.3-0.5-0.2
				C88.4,44.7,88.3,44.9,88.3,45.1C88.3,45.1,88.3,45.1,88.3,45.1"/>
			<path d="M11.7,28.6c-0.1-0.2-0.3-0.3-0.4-0.2c0,0,0,0,0,0c-0.2,0.1-0.2,0.3-0.2,0.4
				c0.1,0.2,0.3,0.3,0.4,0.2c0,0,0,0,0,0C11.6,29,11.7,28.8,11.7,28.6C11.7,28.6,11.7,28.6,11.7,28.6"/>
			<path d="M82.8,77c0.1,0.2,0.3,0.2,0.4,0.2c0.2-0.1,0.3-0.2,0.2-0.4c0,0,0,0,0,0
				c-0.1-0.2-0.2-0.3-0.4-0.2c0,0,0,0,0,0C82.8,76.6,82.7,76.8,82.8,77C82.8,77,82.8,77,82.8,77"/>
			<path d="M28.1,87.3c-0.1-0.2-0.3-0.3-0.4-0.2c0,0,0,0,0,0c-0.2,0.1-0.3,0.2-0.2,0.4c0,0,0,0,0,0
				c0.1,0.2,0.2,0.3,0.4,0.2C28,87.6,28.1,87.4,28.1,87.3"/>
			<path d="M17.1,76.6c-0.1-0.2-0.3-0.2-0.5-0.2c0,0,0,0,0,0c-0.2,0.1-0.2,0.3-0.2,0.4
				c0.1,0.2,0.3,0.2,0.4,0.2C17,76.9,17.1,76.8,17.1,76.6"/>
			<path d="M6.1,44.6c-0.1-0.2-0.2-0.3-0.4-0.2c0,0,0,0,0,0c-0.2,0.1-0.3,0.2-0.2,0.4c0,0,0,0,0,0
				C5.5,45,5.7,45.1,5.9,45C6,45,6.1,44.8,6.1,44.6C6.1,44.6,6.1,44.6,6.1,44.6"/>
			<path d="M6.1,49.9c-0.1-0.2-0.3-0.2-0.4-0.2c-0.2,0.1-0.3,0.3-0.2,0.4c0,0,0,0,0,0
				c0.1,0.2,0.3,0.2,0.4,0.2c0,0,0,0,0,0C6,50.3,6.1,50.1,6.1,49.9C6.1,49.9,6.1,49.9,6.1,49.9"/>
			<path d="M22.7,18c-0.1-0.2-0.3-0.3-0.4-0.2c0,0,0,0,0,0c-0.2,0.1-0.3,0.2-0.2,0.4
				c0.1,0.2,0.3,0.3,0.4,0.2c0,0,0,0,0,0C22.7,18.4,22.8,18.2,22.7,18C22.7,18,22.7,18,22.7,18"/>
			<path d="M17.2,23.3c-0.1-0.2-0.3-0.2-0.4-0.2c0,0,0,0,0,0c-0.2,0.1-0.3,0.3-0.2,0.4c0,0,0,0,0,0
				c0.1,0.2,0.3,0.2,0.4,0.2C17.2,23.7,17.3,23.5,17.2,23.3C17.2,23.3,17.2,23.3,17.2,23.3"/>
			<path d="M33.8,12.7c-0.1-0.2-0.3-0.3-0.5-0.2c-0.2,0.1-0.3,0.3-0.2,0.4c0,0,0,0,0,0
				c0.1,0.2,0.3,0.2,0.4,0.2c0,0,0,0,0,0C33.8,13.1,33.9,12.9,33.8,12.7"/>
			<path d="M88.4,39.7c0.1,0.2,0.3,0.3,0.4,0.2c0,0,0,0,0,0c0.2-0.1,0.3-0.2,0.2-0.4
				c-0.1-0.2-0.3-0.3-0.4-0.2c0,0,0,0,0,0C88.4,39.4,88.3,39.5,88.4,39.7C88.4,39.7,88.4,39.7,88.4,39.7"/>
			<path d="M71.9,13c0.1,0.1,0.2,0.2,0.4,0.2c0.1-0.1,0.2-0.2,0.2-0.4c0,0,0,0,0,0
				c-0.1-0.1-0.2-0.2-0.4-0.2c0,0,0,0,0,0C72,12.7,71.9,12.9,71.9,13C71.9,13,71.9,13,71.9,13"/>
			<path d="M6,39.3c-0.1-0.1-0.2-0.2-0.4-0.2c0,0,0,0,0,0c-0.1,0.1-0.2,0.2-0.1,0.4
				c0.1,0.1,0.2,0.2,0.4,0.1C6,39.6,6.1,39.4,6,39.3C6,39.3,6,39.3,6,39.3"/>
			<path d="M88.4,71.7c0,0.1,0.2,0.2,0.4,0.2c0,0,0,0,0,0c0.1,0,0.2-0.2,0.2-0.3c0,0,0,0,0,0
				c0-0.1-0.2-0.2-0.3-0.2C88.4,71.4,88.3,71.5,88.4,71.7"/>
			<path d="M77.5,18.4c0.1,0.1,0.2,0.2,0.4,0.2c0.1-0.1,0.2-0.2,0.2-0.4c0,0,0,0,0,0
				C77.9,18,77.8,18,77.6,18c0,0,0,0,0,0C77.5,18.1,77.4,18.2,77.5,18.4C77.5,18.4,77.5,18.4,77.5,18.4"/>
			<path d="M60.9,7.7c0.1,0.1,0.2,0.2,0.4,0.2c0.1,0,0.2-0.2,0.2-0.3c0-0.1-0.2-0.2-0.3-0.2c0,0,0,0,0,0
				C60.9,7.4,60.8,7.5,60.9,7.7C60.9,7.7,60.9,7.7,60.9,7.7"/>
			<path d="M6,55.3c-0.1-0.1-0.2-0.2-0.4-0.2c-0.1,0-0.2,0.2-0.2,0.3c0,0,0,0,0,0c0,0.1,0.2,0.2,0.3,0.2
				C6,55.6,6,55.4,6,55.3"/>
			<path d="M39.1,92.6c-0.1-0.1-0.2-0.2-0.4-0.1c-0.1,0-0.2,0.2-0.2,0.3c0,0,0,0,0,0
				c0,0.1,0.2,0.2,0.3,0.2C39,92.9,39.1,92.8,39.1,92.6"/>
			<path d="M66.7,87.4c0-0.1-0.2-0.2-0.4-0.2c0,0,0,0,0,0c-0.1,0.1-0.2,0.2-0.2,0.3
				c0.1,0.1,0.2,0.2,0.4,0.2C66.7,87.7,66.8,87.6,66.7,87.4C66.7,87.4,66.7,87.4,66.7,87.4"/>
			<path d="M88.5,34.4c0,0.1,0.2,0.2,0.4,0.2c0.1-0.1,0.2-0.2,0.2-0.3c0-0.1-0.2-0.2-0.3-0.2c0,0,0,0,0,0
				C88.5,34.1,88.4,34.2,88.5,34.4"/>
			<path d="M94,50.4c0,0.1,0.2,0.2,0.3,0.2c0,0,0,0,0,0c0.1,0,0.2-0.2,0.2-0.3c0-0.1-0.2-0.2-0.4-0.2
				c0,0,0,0,0,0C94,50.1,93.9,50.2,94,50.4"/>
			<path d="M44.8,7.5c0-0.1-0.2-0.2-0.3-0.2c0,0,0,0,0,0c-0.1,0-0.2,0.2-0.2,0.3c0,0,0,0,0,0
				c0.1,0.1,0.2,0.2,0.4,0.1C44.8,7.7,44.9,7.6,44.8,7.5"/>
			<path d="M93.9,55.7c0,0.1,0.2,0.2,0.3,0.2c0,0,0,0,0,0c0.1-0.1,0.2-0.2,0.2-0.3
				c-0.1-0.1-0.2-0.2-0.3-0.2C94,55.4,93.9,55.6,93.9,55.7C93.9,55.7,93.9,55.7,93.9,55.7"/>
			<path d="M33.5,92.6c0-0.1-0.2-0.2-0.3-0.2c0,0,0,0,0,0c-0.1,0-0.2,0.2-0.2,0.3c0,0,0,0,0,0
				c0.1,0.1,0.2,0.2,0.3,0.2C33.5,92.9,33.6,92.8,33.5,92.6"/>
			<path d="M77.8,82.1c-0.1-0.1-0.2-0.2-0.4-0.2c-0.1,0.1-0.2,0.2-0.1,0.3c0.1,0.1,0.2,0.2,0.3,0.2
				c0,0,0,0,0,0C77.8,82.4,77.8,82.2,77.8,82.1"/>
			<path d="M50.4,7.5c-0.1-0.1-0.2-0.2-0.4-0.2c-0.1,0.1-0.2,0.2-0.2,0.3c0,0.1,0.2,0.2,0.3,0.2
				c0,0,0,0,0,0C50.3,7.7,50.4,7.6,50.4,7.5"/>
			<path d="M6.1,34c-0.1-0.1-0.2-0.2-0.4-0.2c-0.1,0.1-0.2,0.2-0.1,0.3c0.1,0.1,0.2,0.2,0.3,0.1
				c0,0,0,0,0,0C6,34.3,6.1,34.1,6.1,34"/>
			<path d="M66.4,7.7c0,0.1,0.2,0.2,0.3,0.2c0,0,0,0,0,0C66.9,7.8,67,7.7,67,7.5c0-0.1-0.2-0.2-0.3-0.2
				C66.5,7.4,66.4,7.5,66.4,7.7C66.4,7.7,66.4,7.7,66.4,7.7"/>
			<path d="M50.1,92.7c0-0.1-0.2-0.2-0.4-0.2c0,0,0,0,0,0c-0.1,0.1-0.2,0.2-0.2,0.3
				c0,0.1,0.2,0.2,0.3,0.2c0,0,0,0,0,0C50.1,93,50.2,92.8,50.1,92.7"/>
			<path d="M55.9,7.5c0-0.1-0.2-0.2-0.3-0.2c-0.2,0.1-0.2,0.2-0.2,0.4c0.1,0.1,0.2,0.2,0.4,0.2
				C55.9,7.8,56,7.6,55.9,7.5C55.9,7.5,55.9,7.5,55.9,7.5"/>
			<path d="M28.2,12.7c0-0.1-0.2-0.2-0.3-0.2c0,0,0,0,0,0c-0.1,0-0.2,0.2-0.2,0.3
				c0.1,0.1,0.2,0.2,0.4,0.2c0,0,0,0,0,0C28.2,13,28.3,12.9,28.2,12.7"/>
			<path d="M83,23.7c0.1,0.1,0.2,0.2,0.3,0.2c0,0,0,0,0,0c0.1-0.1,0.2-0.2,0.2-0.3
				c-0.1-0.1-0.2-0.2-0.4-0.2C83,23.4,82.9,23.6,83,23.7"/>
			<path d="M6,60.6c0-0.1-0.2-0.2-0.3-0.2c-0.1,0-0.2,0.2-0.2,0.3c0,0,0,0,0,0c0.1,0.1,0.2,0.2,0.4,0.2
				C5.9,60.9,6,60.7,6,60.6"/>
			<path d="M44.6,92.7c0-0.1-0.2-0.2-0.3-0.2c-0.2,0-0.2,0.2-0.2,0.4c0.1,0.1,0.2,0.2,0.3,0.2
				C44.6,92.9,44.6,92.8,44.6,92.7C44.6,92.7,44.6,92.7,44.6,92.7"/>
			<path d="M11.5,71.3c-0.1-0.1-0.2-0.2-0.4-0.2c-0.1,0.1-0.2,0.2-0.2,0.3c0,0.1,0.2,0.2,0.3,0.2
				c0,0,0,0,0,0C11.4,71.6,11.5,71.4,11.5,71.3"/>
			<path d="M93.9,61c0,0.1,0.2,0.2,0.3,0.2c0.1,0,0.2-0.2,0.2-0.3c0-0.1-0.2-0.2-0.3-0.2c0,0,0,0,0,0
				C94,60.7,93.9,60.9,93.9,61"/>
			<path d="M11.5,23.3c0-0.1-0.1-0.1-0.2-0.1c0,0,0,0,0,0c-0.1,0-0.2,0.1-0.1,0.2c0,0,0,0,0,0
				c0,0.1,0.2,0.2,0.3,0.1c0,0,0,0,0,0C11.5,23.6,11.6,23.5,11.5,23.3C11.5,23.3,11.5,23.3,11.5,23.3"/>
			<path d="M77.6,13c0,0.1,0.1,0.1,0.2,0.1c0,0,0,0,0,0c0.1,0,0.1-0.1,0.2-0.3c-0.1,0-0.2-0.1-0.3-0.1
				C77.6,12.8,77.5,12.9,77.6,13"/>
			<path d="M22.4,87.3c0-0.1-0.2-0.1-0.3-0.1c0,0,0,0,0,0c-0.1,0-0.2,0.1-0.1,0.2c0,0,0,0,0,0
				c0.1,0.1,0.1,0.1,0.2,0.1C22.4,87.5,22.5,87.4,22.4,87.3"/>
			<path d="M94,45c0,0.1,0.1,0.2,0.2,0.1c0,0,0,0,0,0c0.1,0,0.2-0.1,0.1-0.3c-0.1,0-0.1-0.1-0.2-0.1
				C94.1,44.8,94,44.9,94,45C94,45,94,45,94,45"/>
			<path d="M27.9,92.6c0-0.1-0.2-0.1-0.3-0.1c0,0,0,0,0,0c-0.1,0-0.1,0.1-0.1,0.2c0,0,0,0,0,0
				c0.1,0.1,0.1,0.1,0.2,0.1C27.9,92.8,28,92.7,27.9,92.6"/>
			<path d="M88.6,29c0,0.1,0.1,0.2,0.2,0.1c0,0,0,0,0,0c0.1,0,0.2-0.2,0.1-0.3c0,0,0,0,0,0
				c0-0.1-0.1-0.1-0.2-0.1c0,0,0,0,0,0C88.6,28.8,88.5,28.9,88.6,29C88.6,29,88.6,29,88.6,29"/>
			<path d="M39,7.3c-0.1,0-0.2,0.2-0.1,0.3c0.1,0.1,0.2,0.1,0.3,0.2c0.1-0.1,0.1-0.2,0.1-0.3
				C39.2,7.4,39.1,7.3,39,7.3C39,7.3,39,7.3,39,7.3"/>
			<path d="M72.2,87.5c-0.1-0.2-0.2-0.2-0.3-0.2c-0.1,0-0.2,0.1-0.1,0.2c0,0.1,0.1,0.2,0.2,0.1
				c0,0,0,0,0,0C72.1,87.6,72.2,87.6,72.2,87.5"/>
			<path d="M88.4,77c0,0.1,0.1,0.2,0.2,0.1c0,0,0,0,0,0c0.1,0,0.2-0.1,0.1-0.2c0,0,0,0,0,0
				c0-0.1-0.2-0.2-0.3-0.1c0,0,0,0,0,0C88.4,76.7,88.4,76.8,88.4,77C88.4,76.9,88.4,76.9,88.4,77"/>
			<path d="M6,28.7c0-0.1-0.1-0.2-0.2-0.1c0,0,0,0,0,0c-0.1,0-0.2,0.2-0.1,0.3c0.1,0,0.2,0.1,0.2,0.1
				C6,28.9,6,28.8,6,28.7C6,28.7,6,28.7,6,28.7"/>
			<path d="M94,66.3c0.1,0.1,0.1,0.1,0.2,0.1c0.2-0.1,0.2-0.2,0.1-0.3c0-0.1-0.2-0.1-0.3-0.1c0,0,0,0,0,0
				C94,66.1,93.9,66.2,94,66.3C94,66.3,94,66.3,94,66.3"/>
			<path d="M16.6,81.8c-0.1,0-0.2,0.2-0.1,0.3c0.1,0.1,0.2,0.1,0.3,0.2c0.1-0.1,0.1-0.2,0.1-0.3
				C16.9,81.9,16.8,81.8,16.6,81.8C16.7,81.8,16.6,81.8,16.6,81.8"/>
			<path d="M11.4,76.6c0-0.1-0.2-0.1-0.3-0.1c-0.1,0-0.2,0.2-0.1,0.3c0.1,0,0.2,0.1,0.2,0.1
				C11.4,76.8,11.4,76.7,11.4,76.6C11.4,76.6,11.4,76.6,11.4,76.6"/>
			<path d="M5.9,65.9c0-0.1-0.1-0.1-0.2-0.1c0,0,0,0,0,0c-0.1,0.1-0.1,0.2-0.2,0.3c0.1,0,0.2,0.1,0.3,0.1
				C5.9,66.2,5.9,66,5.9,65.9"/>
			<path d="M55.6,92.7c0-0.1-0.1-0.2-0.2-0.1c0,0,0,0,0,0c-0.1,0-0.2,0.1-0.1,0.2c0,0,0,0,0,0
				c0,0.1,0.2,0.2,0.3,0.1c0,0,0,0,0,0C55.6,92.9,55.6,92.8,55.6,92.7C55.6,92.7,55.6,92.7,55.6,92.7"/>
			<path d="M16.8,17.9c-0.1,0-0.2,0.2-0.1,0.3c0.1,0.1,0.2,0.1,0.3,0.2c0.1-0.1,0.1-0.2,0.1-0.3
				C17.1,18,17,17.9,16.8,17.9C16.9,17.9,16.8,17.9,16.8,17.9"/>
			<path d="M99.6,50.4c0.1,0.1,0.2,0.1,0.3,0.2c0-0.1,0-0.2,0-0.3c0-0.1-0.1-0.1-0.2-0.1
				S99.5,50.3,99.6,50.4"/>
			<path d="M88.6,23.7c0,0.1,0.1,0.2,0.3,0.1c0-0.1,0.1-0.1,0.1-0.2c0-0.1-0.1-0.1-0.2-0.1c0,0,0,0,0,0
				C88.6,23.5,88.6,23.6,88.6,23.7C88.6,23.7,88.6,23.7,88.6,23.7"/>
			<path d="M94.1,39.7c0,0.1,0.1,0.2,0.3,0.1c0-0.1,0.1-0.1,0.1-0.2c0-0.1-0.1-0.1-0.2-0.1c0,0,0,0,0,0
				C94.1,39.5,94.1,39.6,94.1,39.7C94.1,39.7,94.1,39.7,94.1,39.7"/>
			<path d="M99.6,55.7c0,0.1,0.1,0.1,0.2,0.1c0.1,0,0.1-0.1,0.2-0.2c-0.1,0-0.2-0.1-0.3-0.1
				C99.6,55.5,99.5,55.6,99.6,55.7"/>
			<path d="M83.1,13c0,0.1,0.1,0.1,0.2,0.2c0-0.1,0.1-0.2,0.1-0.3c0-0.1-0.1-0.1-0.2-0.1
				C83.1,12.8,83.1,12.9,83.1,13"/>
			<path d="M44.8,2.1c0-0.1-0.1-0.1-0.2-0.1c0,0,0,0,0,0c-0.1,0-0.2,0.1-0.1,0.2c0,0,0,0,0,0
				c0,0.1,0.1,0.1,0.2,0.1c0,0,0,0,0,0C44.8,2.3,44.8,2.2,44.8,2.1C44.8,2.1,44.8,2.1,44.8,2.1"/>
			<path d="M61.1,92.7c0-0.1-0.1-0.1-0.2-0.1c0,0,0,0,0,0c-0.1,0-0.1,0.1-0.1,0.2c0,0,0,0,0,0
				c0,0.1,0.1,0.1,0.2,0.1c0,0,0,0,0,0C61.1,92.9,61.1,92.8,61.1,92.7C61.1,92.7,61.1,92.7,61.1,92.7"/>
			<path d="M28.2,7.4c-0.1,0-0.2,0-0.3,0c-0.1,0-0.1,0.1-0.1,0.2c0,0.1,0.2,0.2,0.2,0.1
				C28.1,7.6,28.2,7.5,28.2,7.4"/>
			<path d="M50.3,2.2c0-0.1-0.1-0.1-0.2-0.1c0,0,0,0,0,0c-0.1,0-0.1,0.1-0.1,0.2c0.1,0.1,0.2,0.2,0.3,0.1
				C50.3,2.3,50.3,2.2,50.3,2.2C50.3,2.2,50.3,2.2,50.3,2.2"/>
			<path d="M83.2,82.2c0-0.1-0.1-0.1-0.2-0.1c-0.1,0-0.2,0.1-0.1,0.2c0,0.1,0.1,0.1,0.2,0.2
				C83.2,82.4,83.2,82.3,83.2,82.2"/>
			<path d="M55.8,2.2c0-0.1-0.1-0.1-0.2-0.1c0,0,0,0,0,0c-0.1,0-0.1,0.1-0.1,0.2c0,0,0,0,0,0
				c0,0.1,0.1,0.1,0.2,0.1C55.8,2.4,55.9,2.3,55.8,2.2"/>
			<path d="M99.8,66.4c0.1,0,0.2-0.1,0.1-0.2c0-0.1-0.1-0.2-0.2-0.1c-0.1,0-0.1,0.1-0.2,0.2
				C99.5,66.4,99.7,66.4,99.8,66.4"/>
			<path d="M44.6,98c-0.1,0-0.2-0.1-0.3-0.1c-0.1,0-0.1,0.1-0.1,0.2c0,0.1,0.1,0.1,0.2,0.1
				C44.4,98.2,44.5,98.1,44.6,98"/>
			<path d="M50,98c0-0.1-0.1-0.1-0.2-0.1c-0.1,0-0.1,0.1-0.1,0.2c0,0,0,0,0,0c0,0.1,0.1,0.1,0.2,0.1
				c0,0,0,0,0,0C50,98.2,50,98.2,50,98C50,98.1,50,98,50,98"/>
			<path d="M17.1,12.7c0-0.1-0.1-0.1-0.2-0.1c0,0,0,0,0,0c-0.1,0-0.1,0.1-0.1,0.2c0,0,0,0,0,0
				c0,0.1,0.1,0.2,0.2,0.1S17.1,12.8,17.1,12.7C17.1,12.7,17.1,12.7,17.1,12.7"/>
			<path d="M72.1,7.6c0,0.1,0.1,0.1,0.2,0.2c0-0.1,0.1-0.2,0.1-0.3c0-0.1-0.1-0.1-0.2-0.1
				C72.1,7.5,72,7.6,72.1,7.6"/>
			<path d="M66.6,2.3c0.1,0.1,0.2,0.1,0.3,0.2c0-0.1,0-0.2,0-0.3c0-0.1-0.1-0.1-0.2-0.1
				C66.6,2.1,66.5,2.3,66.6,2.3"/>
			<path d="M39,98c0-0.1-0.1-0.1-0.2-0.1c0,0,0,0,0,0c-0.1,0-0.2,0.1-0.1,0.2c0,0,0,0,0,0
				c0,0.1,0.1,0.1,0.2,0.1C39,98.2,39,98.1,39,98C39,98,39,98,39,98"/>
			<path d="M94,71.6c0,0.1,0.2,0.2,0.3,0.2c0.1,0,0.1-0.1,0.1-0.2c0,0,0,0,0,0c0-0.1-0.1-0.2-0.2-0.1
				C94.1,71.5,94,71.5,94,71.6"/>
			<path d="M61.4,2.2c0-0.1-0.2-0.2-0.3-0.2C61,2.1,61,2.2,61,2.3c0,0,0,0,0,0c0,0.1,0.1,0.2,0.2,0.1
				C61.3,2.4,61.3,2.3,61.4,2.2"/>
			<path d="M99.5,71.7c0,0.1,0.1,0.1,0.2,0.1c0,0,0,0,0,0c0.1,0,0.1-0.1,0.1-0.2c0,0,0,0,0,0
				c0-0.1-0.2-0.1-0.2-0.1C99.5,71.5,99.5,71.6,99.5,71.7C99.5,71.7,99.5,71.7,99.5,71.7"/>
			<path d="M27.7,97.9c-0.1,0-0.1,0.1-0.1,0.2c0,0,0,0,0,0c0,0.1,0.1,0.2,0.3,0.1c0-0.1,0.1-0.1,0.1-0.2
				C27.9,97.9,27.8,97.8,27.7,97.9C27.7,97.9,27.7,97.9,27.7,97.9"/>
			<path d="M22.6,12.7c0-0.1-0.1-0.2-0.2-0.1c-0.1,0-0.2,0.1-0.1,0.2c0,0,0,0,0,0c0,0.1,0.1,0.1,0.2,0.1
				c0,0,0,0,0,0C22.6,12.9,22.7,12.8,22.6,12.7C22.6,12.7,22.6,12.7,22.6,12.7"/>
			<path d="M6,23.3c0-0.1-0.1-0.1-0.2-0.1c0,0,0,0,0,0c-0.1,0-0.2,0.1-0.1,0.3c0.1,0,0.1,0.1,0.2,0.1
				C6,23.5,6,23.5,6,23.3C6,23.4,6,23.3,6,23.3"/>
			<path d="M0.4,28.6c0-0.1-0.2-0.1-0.3-0.1c-0.1,0-0.1,0.1-0.1,0.2c0,0.1,0.1,0.1,0.2,0.1c0,0,0,0,0,0
				C0.4,28.8,0.5,28.7,0.4,28.6C0.4,28.6,0.4,28.6,0.4,28.6"/>
			<path d="M33.7,7.5c-0.1-0.2-0.2-0.2-0.3-0.1c-0.1,0-0.1,0.1-0.1,0.2c0,0,0,0,0,0
				c0,0.1,0.1,0.1,0.2,0.1c0,0,0,0,0,0C33.7,7.6,33.7,7.5,33.7,7.5"/>
			<path d="M72.1,2.4c0.1,0,0.2,0,0.2,0c0.1,0,0.1-0.1,0.1-0.2c0-0.1-0.1-0.1-0.2-0.1c0,0,0,0,0,0
				C72.1,2.2,72,2.3,72.1,2.4"/>
			<path d="M11.5,18c0-0.1-0.1-0.1-0.2-0.1c0,0,0,0,0,0c-0.1,0-0.2,0.1-0.1,0.2c0,0.1,0.1,0.2,0.2,0.1
				c0,0,0,0,0,0C11.5,18.2,11.6,18.1,11.5,18C11.6,18,11.6,18,11.5,18"/>
			<path d="M94,77c0,0.1,0.1,0.1,0.3,0.2c0-0.1,0.1-0.2,0.1-0.3c0-0.1-0.1-0.1-0.2-0.1
				C94,76.8,93.9,76.9,94,77"/>
			<path d="M0.5,34c-0.1-0.1-0.2-0.2-0.3-0.1c-0.1,0-0.1,0.1-0.1,0.2c0,0,0,0,0,0c0,0.1,0.1,0.1,0.2,0.1
				c0,0,0,0,0,0C0.4,34.2,0.4,34.1,0.5,34"/>
			<path d="M22.4,92.6c0-0.1-0.1-0.1-0.2-0.1c0,0,0,0,0,0c-0.1,0-0.1,0.1-0.1,0.2c0,0,0,0,0,0
				c0,0.1,0.1,0.2,0.2,0.1c0,0,0,0,0,0C22.3,92.8,22.4,92.7,22.4,92.6C22.4,92.6,22.4,92.6,22.4,92.6"/>
			<path d="M83.1,18.3c0,0.1,0.1,0.2,0.3,0.1c0-0.1,0.1-0.1,0.1-0.2c0-0.1-0.1-0.1-0.2-0.1c0,0,0,0,0,0
				C83.1,18.2,83,18.3,83.1,18.3C83.1,18.3,83.1,18.3,83.1,18.3"/>
			<path d="M88.8,82.2c0-0.1-0.1-0.1-0.2-0.1c-0.1,0-0.2,0.1-0.1,0.2c0,0.1,0.1,0.2,0.2,0.1c0,0,0,0,0,0
				C88.7,82.4,88.8,82.3,88.8,82.2C88.8,82.2,88.8,82.2,88.8,82.2"/>
			<path d="M33.4,98c-0.1-0.2-0.2-0.2-0.3-0.1c-0.1,0-0.1,0.1-0.1,0.2c0,0,0,0,0,0c0,0.1,0.1,0.1,0.2,0.1
				c0,0,0,0,0,0C33.4,98.2,33.4,98.1,33.4,98"/>
			<path d="M0.4,39.3c0-0.1-0.1-0.2-0.2-0.1c-0.1,0.1-0.1,0.1-0.1,0.2c0,0.1,0.2,0.2,0.3,0.2
				C0.4,39.5,0.5,39.4,0.4,39.3C0.4,39.3,0.4,39.3,0.4,39.3"/>
			<path d="M77.5,87.4c-0.1,0-0.1,0.1-0.1,0.2c0,0,0,0,0,0c0,0.1,0.1,0.2,0.3,0.1c0-0.1,0.1-0.1,0.1-0.2
				C77.7,87.4,77.6,87.3,77.5,87.4C77.5,87.3,77.5,87.3,77.5,87.4"/>
			<path d="M66.6,92.8c0-0.1-0.1-0.1-0.2-0.1c0,0,0,0,0,0c-0.1,0-0.1,0.2-0.1,0.2c0,0.1,0.1,0.1,0.2,0.1
				C66.6,93,66.7,92.9,66.6,92.8C66.6,92.8,66.6,92.8,66.6,92.8"/>
			<path d="M16.9,87.3c0-0.1-0.1-0.1-0.2-0.1c0,0,0,0,0,0c-0.1,0-0.2,0.1-0.1,0.3c0.1,0,0.1,0.1,0.2,0.1
				C16.9,87.5,16.9,87.4,16.9,87.3C16.9,87.3,16.9,87.3,16.9,87.3"/>
			<path d="M0.5,44.6c-0.1,0-0.2,0-0.3,0c-0.1,0-0.1,0.1-0.1,0.2s0.2,0.2,0.2,0.1
				C0.4,44.8,0.4,44.7,0.5,44.6"/>
			<path d="M94.1,34.4c0.1,0.1,0.2,0.1,0.3,0.2c0-0.1,0-0.2,0-0.3c0-0.1-0.1-0.1-0.2-0.1
				C94.1,34.2,94,34.3,94.1,34.4"/>
			<path d="M99.5,61c0,0.1,0.1,0.1,0.2,0.1c0,0,0,0,0,0c0.1,0,0.2-0.1,0.1-0.3c-0.1,0-0.2,0-0.2-0.1
				C99.5,60.8,99.5,60.9,99.5,61"/>
			<path d="M0.4,49.9c0-0.1-0.1-0.1-0.2-0.1c0,0,0,0,0,0C0.1,49.9,0,50,0,50c0,0,0,0,0,0
				c0,0.1,0.1,0.1,0.2,0.1c0,0,0,0,0,0C0.4,50.1,0.4,50,0.4,49.9C0.4,49.9,0.4,49.9,0.4,49.9"/>
			<path d="M77.6,7.7c0,0.1,0.1,0.1,0.3,0.2c0-0.1,0.1-0.2,0.1-0.3c0-0.1-0.1-0.1-0.2-0.1
				C77.6,7.5,77.5,7.6,77.6,7.7"/>
			<path d="M11.3,81.9c0-0.1-0.1-0.1-0.2-0.1C11,81.9,11,82,11,82.1c0,0,0,0,0,0c0,0.1,0.1,0.1,0.2,0.1
				c0,0,0,0,0,0C11.3,82.1,11.4,82,11.3,81.9"/>
			<path d="M0.4,55.3c0-0.1-0.1-0.2-0.2-0.1C0,55.2,0,55.3,0,55.4c0,0,0,0,0,0c0,0.1,0.1,0.1,0.2,0.1
				c0,0,0,0,0,0C0.3,55.5,0.4,55.4,0.4,55.3"/>
			<path d="M5.9,71.3c0-0.1-0.1-0.1-0.2-0.1c0,0,0,0,0,0c-0.1,0-0.2,0.1-0.1,0.2c0,0.1,0.1,0.2,0.2,0.1
				c0,0,0,0,0,0C5.8,71.5,5.9,71.4,5.9,71.3C5.9,71.3,5.9,71.3,5.9,71.3"/>
		</g>
	</g>
</g>
</svg>
