<svg width="40" height="40" viewBox="0 0 40 40" fill="none" xmlns="http://www.w3.org/2000/svg">
<g id="icon=linkedin, color=no, round=no">
<rect id="Rectangle 1" x="1" y="1" width="38" height="38" rx="7" stroke="#DD3039" stroke-width="2"/>
<path id="Vector" d="M28 21.5849V27H24.7713V21.9151C24.7713 20.6604 24.3004 19.8019 23.157 19.8019C22.2825 19.8019 21.7444 20.3962 21.5426 20.9245C21.4753 21.1226 21.4081 21.3868 21.4081 21.717V27H18.1794C18.1794 27 18.2466 18.4151 18.1794 17.5566H21.4081V18.8774C21.8117 18.217 22.6188 17.2925 24.3004 17.2925C26.3856 17.2925 28 18.6792 28 21.5849ZM14.8161 13C13.7399 13 13 13.7264 13 14.6509C13 15.5755 13.6726 16.3019 14.7489 16.3019C15.8924 16.3019 16.565 15.5755 16.565 14.6509C16.6323 13.6604 15.9596 13 14.8161 13ZM13.2018 27H16.4305V17.5566H13.2018V27Z" fill="white"/>
</g>
</svg>
