<svg width="120" height="120" viewBox="0 0 120 120" fill="none" xmlns="http://www.w3.org/2000/svg">
<circle cx="60" cy="60" r="60" fill="#F2F2F4"/>
<path d="M39.453 66V61.22H42.853C45.733 61.22 47.333 59.28 47.333 56.96C47.333 54.62 45.753 52.66 42.853 52.66H36.613V66H39.453ZM44.433 56.94C44.433 58.06 43.593 58.78 42.473 58.78H39.453V55.1H42.473C43.593 55.1 44.433 55.84 44.433 56.94ZM59.8934 66L56.8934 60.92C58.3334 60.58 59.8134 59.32 59.8134 56.96C59.8134 54.48 58.1134 52.66 55.3334 52.66H49.0934V66H51.9334V61.22H54.0134L56.6334 66H59.8934ZM56.9134 56.94C56.9134 58.06 56.0534 58.78 54.9134 58.78H51.9334V55.1H54.9134C56.0534 55.1 56.9134 55.82 56.9134 56.94ZM71.385 66V63.54H64.785V60.44H71.245V58H64.785V55.1H71.385V52.66H61.945V66H71.385ZM80.9052 66L86.0452 52.66H82.8052L79.1252 62.92L75.4252 52.66H72.1852L77.3452 66H80.9052Z" fill="#0A1540"/>
</svg>
