<svg width="90" height="89" viewBox="0 0 90 89" fill="none" xmlns="http://www.w3.org/2000/svg">
<path d="M14.3677 77.8139C28.4404 68.0645 39.4538 51.2247 39.4538 33.2031C39.4538 18.7268 30.276 10.75 20.1803 10.75C11.0025 10.75 3.96613 18.1359 3.96613 26.7035C3.96613 35.5666 10.0847 41.7708 18.6507 41.7708C20.1803 41.7708 22.3218 41.4753 22.9337 41.1799C21.71 50.6338 12.8381 62.4512 3.04834 68.6554L14.3677 77.8139ZM63.6222 77.8139C77.389 68.0645 88.4024 51.2247 88.4024 33.2031C88.4024 18.7268 79.2246 10.75 69.1289 10.75C60.257 10.75 52.9147 18.1359 52.9147 26.7035C52.9147 35.5666 59.3392 41.7708 67.9052 41.7708C69.1289 41.7708 71.2704 41.4753 71.8823 41.1799C70.6586 50.6338 62.0926 62.4512 52.3028 68.6554L63.6222 77.8139Z" stroke="#8693AF" stroke-width="2" stroke-linejoin="round"/>
<circle cx="4" cy="69.625" r="4" fill="#C2C9D7"/>
<circle cx="72.2833" cy="42.1875" r="4" fill="#C2C9D7"/>
<circle cx="64.3575" cy="78.1562" r="4" fill="#C2C9D7"/>
</svg>
