<svg width="40" height="40" viewBox="0 0 40 40" fill="none" xmlns="http://www.w3.org/2000/svg">
<rect x="0.75" y="0.75" width="38.5" height="38.5" rx="7.25" stroke="#DD3039" stroke-width="1.5"/>
<g clip-path="url(#clip0_20613_25746)">
<path d="M31 23.0338C31 20.1171 28.1781 17.7378 24.7034 17.7378C21.2288 17.7378 18.4262 20.1171 18.4262 23.0338C18.4262 25.9506 21.2481 28.3298 24.7228 28.3298C25.3948 28.3298 26.0283 28.2534 26.6231 28.0804C26.7961 28.0418 26.9877 28.0611 27.1607 28.1383L28.7158 28.9824C28.8115 29.0403 28.946 28.9438 28.9073 28.8287L28.5998 27.5815C28.5612 27.3901 28.6192 27.1977 28.7914 27.0827C30.1364 26.1043 31 24.6648 31 23.0338ZM22.4579 22.3435C21.9782 22.3435 21.5942 21.9597 21.5942 21.4801C21.5942 21.0006 21.9782 20.6168 22.4579 20.6168C22.9375 20.6168 23.3215 21.0006 23.3215 21.4801C23.3215 21.9597 22.9375 22.3435 22.4579 22.3435ZM26.7004 22.3435C26.2207 22.3435 25.8367 21.9597 25.8367 21.4801C25.8367 21.0006 26.2207 20.6168 26.7004 20.6168C27.1801 20.6168 27.564 21.0006 27.564 21.4801C27.564 21.9597 27.1607 22.3435 26.7004 22.3435Z" fill="black"/>
<path d="M17.9087 23.0531C17.9087 19.8105 20.9801 17.181 24.7807 17.181H25.0689C24.4539 14.2449 21.3447 12 17.6012 12C13.3974 12 10 14.8017 10 18.2753C10 20.1943 11.056 21.921 12.7068 23.0724C12.8219 23.1488 12.8605 23.2832 12.8412 23.4176L12.2658 25.4517C12.2271 25.5861 12.3808 25.7204 12.5153 25.6432L14.7609 24.3003C14.9146 24.2045 15.0868 24.1852 15.2599 24.2423C16.0084 24.4338 16.7956 24.5497 17.6021 24.5497C17.7751 24.5497 17.9474 24.5497 18.1397 24.5304C17.9852 24.0508 17.9087 23.552 17.9087 23.0531ZM20.1543 15.3199C20.7113 15.3199 21.1717 15.7801 21.1717 16.3369C21.1717 16.8937 20.7113 17.354 20.1543 17.354C19.5973 17.354 19.1369 16.8937 19.1369 16.3369C19.1369 15.7801 19.5982 15.3199 20.1543 15.3199ZM15.0482 17.354C14.4912 17.354 14.0308 16.8937 14.0308 16.3369C14.0308 15.7801 14.4912 15.3199 15.0482 15.3199C15.6052 15.3199 16.0655 15.7801 16.0655 16.3369C16.0655 16.8937 15.6245 17.354 15.0482 17.354Z" fill="black"/>
</g>
<defs>
<clipPath id="clip0_20613_25746">
<rect width="21" height="17" fill="white" transform="translate(10 12)"/>
</clipPath>
</defs>
</svg>
