<svg width="24" height="24" viewBox="0 0 24 24" fill="none" xmlns="http://www.w3.org/2000/svg">
<g clip-path="url(#clip0_2040_192387)">
<mask id="path-1-inside-1_2040_192387" fill="white">
<rect x="10.9004" y="2.00049" width="2.5" height="2.5" rx="0.5"/>
</mask>
<rect x="10.9004" y="2.00049" width="2.5" height="2.5" rx="0.5" fill="#D40000" stroke="#D40000" stroke-width="1.8" mask="url(#path-1-inside-1_2040_192387)"/>
<mask id="path-2-inside-2_2040_192387" fill="white">
<rect x="10.9004" y="6.30029" width="2.5" height="2.5" rx="0.5"/>
</mask>
<rect x="10.9004" y="6.30029" width="2.5" height="2.5" rx="0.5" fill="#D40000" stroke="#D40000" stroke-width="1.8" mask="url(#path-2-inside-2_2040_192387)"/>
<mask id="path-3-inside-3_2040_192387" fill="white">
<rect x="10.9004" y="10.6001" width="2.5" height="2.5" rx="0.5"/>
</mask>
<rect x="10.9004" y="10.6001" width="2.5" height="2.5" rx="0.5" fill="#D40000" stroke="#D40000" stroke-width="1.8" mask="url(#path-3-inside-3_2040_192387)"/>
<mask id="path-4-inside-4_2040_192387" fill="white">
<rect x="15.2012" y="2.00049" width="2.5" height="2.5" rx="0.5"/>
</mask>
<rect x="15.2012" y="2.00049" width="2.5" height="2.5" rx="0.5" fill="#D40000" stroke="#D40000" stroke-width="1.8" mask="url(#path-4-inside-4_2040_192387)"/>
<mask id="path-5-inside-5_2040_192387" fill="white">
<rect x="15.2012" y="6.30029" width="2.5" height="2.5" rx="0.5"/>
</mask>
<rect x="15.2012" y="6.30029" width="2.5" height="2.5" rx="0.5" fill="#D40000" stroke="#D40000" stroke-width="1.8" mask="url(#path-5-inside-5_2040_192387)"/>
<mask id="path-6-inside-6_2040_192387" fill="white">
<rect x="15.1992" y="10.6001" width="2.5" height="2.5" rx="0.5"/>
</mask>
<rect x="15.1992" y="10.6001" width="2.5" height="2.5" rx="0.5" fill="#D40000" stroke="#D40000" stroke-width="1.8" mask="url(#path-6-inside-6_2040_192387)"/>
<mask id="path-7-inside-7_2040_192387" fill="white">
<rect x="19.5" y="2.00049" width="2.5" height="2.5" rx="0.5"/>
</mask>
<rect x="19.5" y="2.00049" width="2.5" height="2.5" rx="0.5" fill="#D40000" stroke="#D40000" stroke-width="1.8" mask="url(#path-7-inside-7_2040_192387)"/>
<mask id="path-8-inside-8_2040_192387" fill="white">
<rect x="19.5" y="6.30029" width="2.5" height="2.5" rx="0.5"/>
</mask>
<rect x="19.5" y="6.30029" width="2.5" height="2.5" rx="0.5" fill="#D40000" stroke="#D40000" stroke-width="1.8" mask="url(#path-8-inside-8_2040_192387)"/>
<mask id="path-9-inside-9_2040_192387" fill="white">
<rect x="19.5" y="10.6001" width="2.5" height="2.5" rx="0.5"/>
</mask>
<rect x="19.5" y="10.6001" width="2.5" height="2.5" rx="0.5" fill="#D40000" stroke="#D40000" stroke-width="1.8" mask="url(#path-9-inside-9_2040_192387)"/>
<path d="M15.8363 18.0736V20.0663C15.8371 20.2513 15.7991 20.4344 15.7249 20.6039C15.6506 20.7734 15.5417 20.9256 15.4051 21.0507C15.2685 21.1757 15.1073 21.2709 14.9317 21.3302C14.7561 21.3895 14.57 21.4115 14.3854 21.3948C12.3374 21.1727 10.3701 20.4743 8.64164 19.3556C7.03353 18.3358 5.67014 16.9751 4.64828 15.3702C3.52347 13.6373 2.82348 11.6644 2.60501 9.6112C2.58838 9.42751 2.61025 9.24238 2.66924 9.0676C2.72822 8.89281 2.82303 8.7322 2.94762 8.59598C3.07221 8.45977 3.22385 8.35094 3.39289 8.27642C3.56194 8.2019 3.74468 8.16332 3.92948 8.16315H5.92615C6.24915 8.15998 6.56229 8.27413 6.8072 8.48433C7.0521 8.69453 7.21207 8.98644 7.25727 9.30564C7.34155 9.94336 7.49784 10.5695 7.72316 11.1722C7.81271 11.4099 7.83209 11.6683 7.77901 11.9167C7.72593 12.1651 7.60261 12.3931 7.42366 12.5737L6.5784 13.4173C7.52586 15.0803 8.9055 16.4572 10.5718 17.4027L11.417 16.5592C11.598 16.3806 11.8264 16.2575 12.0753 16.2045C12.3242 16.1515 12.5831 16.1709 12.8213 16.2602C13.4252 16.4851 14.0526 16.6411 14.6916 16.7252C15.0149 16.7707 15.3101 16.9333 15.5212 17.1819C15.7323 17.4305 15.8444 17.7479 15.8363 18.0736Z" fill="#D40000"/>
</g>
<defs>
<clipPath id="clip0_2040_192387">
<rect width="20" height="20" fill="white" transform="translate(2 2)"/>
</clipPath>
</defs>
</svg>
