<svg width="36" height="33" viewBox="0 0 36 33" fill="none" xmlns="http://www.w3.org/2000/svg">
<path fill-rule="evenodd" clip-rule="evenodd" d="M11.6465 1.83325C5.78008 1.83325 1.02441 6.58891 1.02441 12.4553C1.02441 15.4794 2.28815 18.2083 4.31633 20.1428L3.8554 24.8035L8.69654 22.6624C9.63313 22.9326 10.6229 23.0774 11.6465 23.0774H14.3403C20.2067 23.0774 24.9623 18.3217 24.9623 12.4553C24.9623 6.58891 20.2067 1.83325 14.3403 1.83325H11.6465Z" fill="#6C6E7A"/>
<path d="M4.31633 20.1428L5.24929 20.2351C5.27769 19.9479 5.17224 19.6636 4.96339 19.4644L4.31633 20.1428ZM3.8554 24.8035L2.92244 24.7112C2.88962 25.0431 3.03557 25.3674 3.30574 25.563C3.57591 25.7585 3.92961 25.7958 4.23461 25.6609L3.8554 24.8035ZM8.69654 22.6624L8.95641 21.7616C8.74489 21.7006 8.51866 21.716 8.31733 21.805L8.69654 22.6624ZM1.96193 12.4553C1.96193 7.10669 6.29785 2.77077 11.6465 2.77077V0.895735C5.2623 0.895735 0.0868974 6.07113 0.0868974 12.4553H1.96193ZM4.96339 19.4644C3.113 17.6995 1.96193 15.2126 1.96193 12.4553H0.0868974C0.0868974 15.7462 1.4633 18.7172 3.66926 20.8212L4.96339 19.4644ZM4.78837 24.8958L5.24929 20.2351L3.38336 20.0505L2.92244 24.7112L4.78837 24.8958ZM8.31733 21.805L3.4762 23.9461L4.23461 25.6609L9.07574 23.5198L8.31733 21.805ZM11.6465 22.1399C10.7117 22.1399 9.80938 22.0077 8.95641 21.7616L8.43667 23.5632C9.45687 23.8575 10.5341 24.0149 11.6465 24.0149V22.1399ZM14.3403 22.1399H11.6465V24.0149H14.3403V22.1399ZM24.0248 12.4553C24.0248 17.8039 19.6889 22.1399 14.3403 22.1399V24.0149C20.7244 24.0149 25.8998 18.8395 25.8998 12.4553H24.0248ZM14.3403 2.77077C19.6889 2.77077 24.0248 7.10669 24.0248 12.4553H25.8998C25.8998 6.07114 20.7244 0.895735 14.3403 0.895735V2.77077ZM11.6465 2.77077H14.3403V0.895735H11.6465V2.77077Z" fill="#3C3D44"/>
<path fill-rule="evenodd" clip-rule="evenodd" d="M23.7534 8.19653C29.6198 8.19653 34.3755 12.9522 34.3755 18.8186C34.3755 21.6641 33.2566 24.2483 31.4347 26.1552L31.9304 31.1669L26.9329 28.9566C25.929 29.2711 24.861 29.4407 23.7534 29.4407H21.0596C15.1932 29.4407 10.4376 24.685 10.4376 18.8186C10.4376 12.9522 15.1932 8.19653 21.0596 8.19653H23.7534Z" fill="#FFFEFB"/>
<path d="M31.4347 26.1552L30.5018 26.2475C30.4749 25.9755 30.568 25.7052 30.7569 25.5076L31.4347 26.1552ZM31.9304 31.1669L32.8633 31.0746C32.8962 31.4065 32.7502 31.7308 32.48 31.9264C32.2099 32.1219 31.8562 32.1592 31.5512 32.0243L31.9304 31.1669ZM26.9329 28.9566L26.6526 28.062C26.8696 27.994 27.104 28.0072 27.3121 28.0992L26.9329 28.9566ZM33.438 18.8186C33.438 13.47 29.1021 9.13405 23.7534 9.13405V7.25902C30.1376 7.25902 35.313 12.4344 35.313 18.8186H33.438ZM30.7569 25.5076C32.4187 23.7681 33.438 21.4134 33.438 18.8186H35.313C35.313 21.9149 34.0944 24.7285 32.1126 26.8029L30.7569 25.5076ZM30.9974 31.2592L30.5018 26.2475L32.3677 26.063L32.8633 31.0746L30.9974 31.2592ZM27.3121 28.0992L32.3096 30.3095L31.5512 32.0243L26.5537 29.814L27.3121 28.0992ZM23.7534 28.5031C24.7649 28.5031 25.7384 28.3484 26.6526 28.062L27.2132 29.8513C26.1196 30.1939 24.9572 30.3782 23.7534 30.3782V28.5031ZM21.0596 28.5031H23.7534V30.3782H21.0596V28.5031ZM11.3751 18.8186C11.3751 24.1672 15.711 28.5031 21.0596 28.5031V30.3782C14.6755 30.3782 9.50006 25.2028 9.50006 18.8186H11.3751ZM21.0596 9.13405C15.711 9.13405 11.3751 13.47 11.3751 18.8186H9.50006C9.50006 12.4344 14.6755 7.25902 21.0596 7.25902V9.13405ZM23.7534 9.13405H21.0596V7.25902H23.7534V9.13405Z" fill="#3C3D44"/>
<circle cx="17.2147" cy="18.8701" r="1.73956" fill="#6C6E7A"/>
<circle cx="22.4066" cy="18.8701" r="1.73956" fill="#6C6E7A"/>
<circle cx="27.598" cy="18.8701" r="1.73956" fill="#6C6E7A"/>
</svg>
