<svg width="16" height="16" fill="none" xmlns="http://www.w3.org/2000/svg"><g clip-path="url(#clip0_3856_134126)"><path fill-rule="evenodd" clip-rule="evenodd" d="M16 8A8 8 0 1 0 0 8a8 8 0 0 0 16 0ZM6.532 3.494c-.051.1-.051.23-.051.49v2.054c0 .065 0 .098.008.128.008.026.02.052.036.074a.503.503 0 0 0 .093.087l.54.438c.06.05.091.074.102.104a.11.11 0 0 1 0 .08c-.01.03-.041.055-.102.105l-.54.438a.45.45 0 0 0-.093.087.232.232 0 0 0-.036.074c-.008.03-.008.062-.008.127v4.236c0 .26 0 .39.05.49a.464.464 0 0 0 .204.203c.1.05.23.05.49.05h1.55c.26 0 .39 0 .49-.05a.464.464 0 0 0 .203-.203c.051-.1.051-.23.051-.49V9.962c0-.065 0-.098-.008-.128a.233.233 0 0 0-.036-.074.512.512 0 0 0-.093-.087l-.54-.438c-.06-.05-.091-.074-.102-.104a.116.116 0 0 1 0-.08c.011-.03.041-.055.102-.105l.54-.438a.45.45 0 0 0 .093-.087.233.233 0 0 0 .036-.074c.008-.03.008-.062.008-.127V3.984c0-.26 0-.39-.05-.49a.465.465 0 0 0-.204-.203c-.1-.05-.23-.05-.49-.05h-1.55c-.26 0-.39 0-.49.05a.465.465 0 0 0-.203.203Z" fill="#FFFEFB"/></g><defs><clipPath id="clip0_3856_134126"><path fill="#fff" d="M0 0h16v16H0z"/></clipPath></defs></svg>