<svg width="32" height="32" viewBox="0 0 32 32" fill="none" xmlns="http://www.w3.org/2000/svg">
<g clip-path="url(#clip0_438_50274)">
<rect width="32" height="32" rx="10" fill="#CADAFA"/>
<rect x="15.5137" y="11.5293" width="10.3846" height="13.9938" rx="3.77817" fill="#FFFEFB" stroke="#3B66BC" stroke-width="1.5"/>
<path d="M6.10156 10.2552C6.10156 8.1686 7.79311 6.47705 9.87974 6.47705H15.2068C17.2934 6.47705 18.9849 8.1686 18.9849 10.2552V25.5231H9.87974C7.79311 25.5231 6.10156 23.8316 6.10156 21.745V10.2552Z" fill="#FFFEFB" stroke="#3B66BC" stroke-width="1.5"/>
<rect x="21.1426" y="15.1536" width="1.96067" height="1.96067" rx="0.737501" fill="#3B66BC"/>
<rect x="21.1426" y="18.7778" width="1.96067" height="1.96067" rx="0.737501" fill="#3B66BC"/>
<rect x="13.5527" y="15.1536" width="1.96067" height="1.96067" rx="0.737501" fill="#3B66BC"/>
<rect x="13.5527" y="11.5293" width="1.96067" height="1.96067" rx="0.737501" fill="#3B66BC"/>
<rect x="9.57324" y="15.1536" width="1.96067" height="1.96067" rx="0.737501" fill="#3B66BC"/>
<rect x="9.57324" y="11.5293" width="1.96067" height="1.96067" rx="0.737501" fill="#3B66BC"/>
<rect x="13.5527" y="18.7778" width="1.96067" height="1.96067" rx="0.737501" fill="#3B66BC"/>
<rect x="9.57324" y="18.7778" width="1.96067" height="1.96067" rx="0.737501" fill="#3B66BC"/>
</g>
<defs>
<clipPath id="clip0_438_50274">
<rect width="32" height="32" rx="10" fill="white"/>
</clipPath>
</defs>
</svg>
