<svg width="32" height="32" viewBox="0 0 32 32" fill="none" xmlns="http://www.w3.org/2000/svg">
<g clip-path="url(#clip0_3889_133554)">
<rect width="32" height="32" rx="10" fill="#CADAFA"/>
<path d="M6.75 10.3125C6.75 8.65565 8.09315 7.3125 9.75 7.3125H22.25C23.9069 7.3125 25.25 8.65565 25.25 10.3125V22.8125C25.25 24.4694 23.9069 25.8125 22.25 25.8125H9.75C8.09315 25.8125 6.75 24.4694 6.75 22.8125V10.3125Z" fill="#FFFEFB" stroke="#3B66BC" stroke-width="1.5" stroke-linejoin="round"/>
<path d="M6.37071 8.07343C6.56594 7.33721 7.23223 6.82458 7.99389 6.82458H11.3513L10.5574 12.8116C10.3833 14.1247 9.26358 15.1058 7.93898 15.1058C6.20503 15.1058 4.94139 13.4634 5.38584 11.7874L6.37071 8.07343Z" fill="#FFFEFB" stroke="#3B66BC" stroke-width="1.5"/>
<path d="M11.3519 6.82458H16.0013V12.4218C16.0013 13.9042 14.7996 15.1058 13.3173 15.1058C11.6948 15.1058 10.4433 13.6774 10.6566 12.069L11.3519 6.82458Z" fill="#FFFEFB" stroke="#3B66BC" stroke-width="1.5"/>
<path d="M16 6.82458H20.6494L21.3447 12.069C21.558 13.6774 20.3065 15.1058 18.684 15.1058C17.2017 15.1058 16 13.9042 16 12.4218V6.82458Z" fill="#FFFEFB" stroke="#3B66BC" stroke-width="1.5"/>
<path d="M20.6504 6.82458H24.0078C24.7694 6.82458 25.4357 7.33721 25.6309 8.07343L26.6158 11.7874C27.0603 13.4634 25.7966 15.1058 24.0627 15.1058C22.7381 15.1058 21.6183 14.1247 21.4442 12.8116L20.6504 6.82458Z" fill="#FFFEFB" stroke="#3B66BC" stroke-width="1.5"/>
<path d="M10.2539 19.3558C10.2539 18.8036 10.7016 18.3558 11.2539 18.3558H13.8789C14.4312 18.3558 14.8789 18.8036 14.8789 19.3558V25.8125H10.2539V19.3558Z" fill="#FFFEFB" stroke="#3B66BC" stroke-width="1.5"/>
<rect x="17.9688" y="17.5433" width="4" height="4" rx="1" fill="#FFFEFB" stroke="#3B66BC" stroke-width="1.5"/>
</g>
<defs>
<clipPath id="clip0_3889_133554">
<rect width="32" height="32" rx="10" fill="white"/>
</clipPath>
</defs>
</svg>
