<svg width="32" height="32" viewBox="0 0 32 32" fill="none" xmlns="http://www.w3.org/2000/svg">
<g clip-path="url(#clip0_438_50259)">
<rect width="32" height="32" rx="10" fill="#CADAFA"/>
<rect x="7.52051" y="17.3267" width="16.9581" height="9.96157" rx="3" fill="#FFFEFB" stroke="#3B66BC" stroke-width="1.5"/>
<rect x="5.95898" y="11.6343" width="20.0813" height="9.64533" rx="3" fill="#FFFEFB" stroke="#3B66BC" stroke-width="1.5"/>
<rect x="13.0742" y="17.3267" width="5.85044" height="6.48292" rx="1" fill="#FFFEFB" stroke="#3B66BC" stroke-width="1.5"/>
<path d="M16.6599 20.872C17.0185 20.6504 17.2575 20.2536 17.2575 19.8011C17.2575 19.1062 16.6942 18.543 15.9993 18.543C15.3045 18.543 14.7412 19.1062 14.7412 19.8011C14.7412 20.2537 14.9802 20.6504 15.3388 20.8721V22.2843C15.3388 22.455 15.4771 22.5933 15.6477 22.5933H16.351C16.5216 22.5933 16.6599 22.455 16.6599 22.2843V20.872Z" fill="#3B66BC"/>
<path d="M21.2343 11.6342V8.67183C21.2343 5.78099 18.8908 3.4375 16 3.4375V3.4375C13.1091 3.4375 10.7656 5.78099 10.7656 8.67183V11.6342" stroke="#3B66BC" stroke-width="1.5" stroke-miterlimit="10" stroke-linecap="round" stroke-linejoin="round"/>
</g>
<defs>
<clipPath id="clip0_438_50259">
<rect width="32" height="32" rx="10" fill="white"/>
</clipPath>
</defs>
</svg>
