<?xml version="1.0" encoding="UTF-8"?>
<svg width="21px" height="31px" viewBox="0 0 21 31" version="1.1" xmlns="http://www.w3.org/2000/svg" xmlns:xlink="http://www.w3.org/1999/xlink">
    <title>Group 19备份 49</title>
    <defs>
        <linearGradient x1="52.7195982%" y1="69.4015781%" x2="51.725021%" y2="28.564991%" id="linearGradient-1">
            <stop stop-color="#2B46FF" offset="0%"></stop>
            <stop stop-color="#3583F0" offset="100%"></stop>
        </linearGradient>
        <linearGradient x1="161.088503%" y1="120.128711%" x2="161.088503%" y2="37.507989%" id="linearGradient-2">
            <stop stop-color="#347DBE" offset="0%"></stop>
            <stop stop-color="#4476E2" offset="100%"></stop>
        </linearGradient>
        <linearGradient x1="40.7457683%" y1="110.116937%" x2="40.7457686%" y2="24.885287%" id="linearGradient-3">
            <stop stop-color="#FFFFFF" stop-opacity="0" offset="0%"></stop>
            <stop stop-color="#FFFFFF" stop-opacity="0.8" offset="100%"></stop>
        </linearGradient>
        <linearGradient x1="70.3933472%" y1="53.8219622%" x2="-170.620226%" y2="43.4052228%" id="linearGradient-4">
            <stop stop-color="#89C0FF" offset="0%"></stop>
            <stop stop-color="#005ECB" offset="100%"></stop>
        </linearGradient>
        <linearGradient x1="45.3816701%" y1="40.9264661%" x2="66.6602287%" y2="61.1223851%" id="linearGradient-5">
            <stop stop-color="#FFFFFF" stop-opacity="0" offset="0%"></stop>
            <stop stop-color="#FFFFFF" stop-opacity="0.6" offset="100%"></stop>
        </linearGradient>
        <linearGradient x1="50%" y1="3.68722905%" x2="50%" y2="90.6330393%" id="linearGradient-6">
            <stop stop-color="#5C8BED" offset="0%"></stop>
            <stop stop-color="#526ECC" stop-opacity="0" offset="100%"></stop>
        </linearGradient>
        <linearGradient x1="59.2580795%" y1="121.099333%" x2="59.2580795%" y2="-10.1068357%" id="linearGradient-7">
            <stop stop-color="#489FFA" stop-opacity="0" offset="0%"></stop>
            <stop stop-color="#067EFD" offset="100%"></stop>
        </linearGradient>
        <path d="M1.08653192,1.19581992 C1.08653192,1.72611125 0.843263762,2.06077767 0.543265958,1.94361386 C0.243268153,1.82628107 0,1.3014632 0,0.771171875 C0,0.240880547 0.243268153,-0.0937858732 0.543265958,0.0233779309 C0.843263762,0.140541735 1.08653192,0.665528593 1.08653192,1.19581992 Z" id="path-8"></path>
        <linearGradient x1="59.2580795%" y1="121.099333%" x2="59.2580795%" y2="-10.1068357%" id="linearGradient-9">
            <stop stop-color="#489FFA" stop-opacity="0" offset="0%"></stop>
            <stop stop-color="#067EFD" offset="100%"></stop>
        </linearGradient>
        <polygon id="path-10" points="1.78587389 1.07731037 4.0840892 2.07006203 4.0840892 2.99852928 1.78587389 2.00577762"></polygon>
        <path d="M1.08653192,1.19581992 C1.08653192,1.72611125 0.843263762,2.06077767 0.543265958,1.94361386 C0.243268153,1.82628107 0,1.3014632 0,0.771171875 C0,0.240880547 0.243268153,-0.0937858732 0.543265958,0.0233779309 C0.843263762,0.140541735 1.08653192,0.665528593 1.08653192,1.19581992 Z" id="path-11"></path>
        <polygon id="path-12" points="1.78587389 1.07731037 4.0840892 2.07006203 4.0840892 2.99852928 1.78587389 2.00577762"></polygon>
        <path d="M1.08653192,1.19581992 C1.08653192,1.72611125 0.843263762,2.06077767 0.543265958,1.94361386 C0.243268153,1.82628107 0,1.3014632 0,0.771171875 C0,0.240880547 0.243268153,-0.0937858732 0.543265958,0.0233779309 C0.843263762,0.140541735 1.08653192,0.665528593 1.08653192,1.19581992 Z" id="path-13"></path>
        <polygon id="path-14" points="1.78587389 1.07731037 4.0840892 2.07006203 4.0840892 2.99852928 1.78587389 2.00577762"></polygon>
        <path d="M1.08653192,1.19581992 C1.08653192,1.72611125 0.843263762,2.06077767 0.543265958,1.94361386 C0.243268153,1.82628107 0,1.3014632 0,0.771171875 C0,0.240880547 0.243268153,-0.0937858732 0.543265958,0.0233779309 C0.843263762,0.140541735 1.08653192,0.665528593 1.08653192,1.19581992 Z" id="path-15"></path>
        <polygon id="path-16" points="1.78587389 1.07731037 4.0840892 2.07006203 4.0840892 2.99852928 1.78587389 2.00577762"></polygon>
    </defs>
    <g id="页面-1" stroke="none" stroke-width="1" fill="none" fill-rule="evenodd">
        <g id="1920适配备份" transform="translate(-1789.000000, -5648.000000)">
            <g id="编组-25备份" transform="translate(1789.334979, 5648.023869)">
                <path d="M0.575037986,24.2611136 L10.0395549,19.9870329 L19.5073659,24.2620598 C19.5265407,24.2707172 19.5389237,24.2895663 19.5391352,24.3104183 L19.555435,25.9174771 C19.5556502,25.9389736 19.5429007,25.9585309 19.5230173,25.9672005 L10.3781988,29.9545545 C10.1647211,30.0476357 9.92115797,30.0457327 9.7091927,29.9493274 L0.574901148,25.7948989 C0.555620952,25.78613 0.543265958,25.7670574 0.543265958,25.7460632 L0.543265958,24.3100114 C0.543265958,24.2889633 0.55568374,24.2698521 0.575037986,24.2611136 Z" id="路径" fill="#FFFFFF" fill-rule="nonzero"></path>
                <path d="M10.152927,19.4477126 L9.92738133,19.4477126 L0.349492312,23.7721362 C0.136595607,23.8682592 0,24.0784824 0,24.3100114 L0,25.7460632 C0,25.9769992 0.135904935,26.1867977 0.347987094,26.2832562 L9.48227865,30.4376847 C9.83555409,30.5983603 10.2414926,30.601532 10.5972889,30.4463965 L19.7421074,26.4590426 C19.9608243,26.3636769 20.1010687,26.1485461 20.0987011,25.9120847 L20.0823738,24.3050259 C20.0800478,24.0756547 19.9438348,23.8683143 19.7329116,23.7730823 L10.152927,19.4477126 Z M0.575037986,24.2611136 L10.0395549,19.9870329 L19.5073659,24.2620598 C19.5265407,24.2707172 19.5389237,24.2895663 19.5391352,24.3104183 L19.555435,25.9174771 C19.5556502,25.9389736 19.5429007,25.9585309 19.5230173,25.9672005 L10.3781988,29.9545545 C10.1647211,30.0476357 9.92115797,30.0457327 9.7091927,29.9493274 L0.574901148,25.7948989 C0.555620952,25.78613 0.543265958,25.7670574 0.543265958,25.7460632 L0.543265958,24.3100114 C0.543265958,24.2889633 0.55568374,24.2698521 0.575037986,24.2611136 Z" id="Polygon" fill="#005ECB" fill-rule="nonzero"></path>
                <g id="编组-29备份-3" transform="translate(2.584545, 0.000000)">
                    <g id="Line-+-Line-Copy-3-Mask">
                        <g id="主体图形">
                            <path d="M8.09417724,0.201584209 L14.318176,2.84850172 C14.6432639,2.98675382 14.8543116,3.30584728 14.8543116,3.65911178 L14.8543116,25.2461789 C14.8543116,25.5994434 14.6432639,25.9185369 14.318176,26.056789 L8.05108561,28.7220323 C7.77574067,28.8391299 7.46459798,28.8391299 7.18925303,28.7220323 L0.92216266,26.056789 C0.597074732,25.9185369 0.386027067,25.5994434 0.386027067,25.2461789 L0.386027067,3.65911178 C0.386027067,3.30584728 0.597074732,2.98675382 0.92216266,2.84850172 L7.1461614,0.201584209 C7.44904084,0.0727768412 7.7912978,0.0727768412 8.09417724,0.201584209 Z" id="backside" fill="url(#linearGradient-1)"></path>
                            <g id="Group" transform="translate(0.000000, 0.031105)">
                                <g id="outside" transform="translate(0.386027, 0.046914)">
                                    <path d="M7.32483733,0.487074746 L7.32483733,28.4910068 C7.32483733,28.6126293 7.22624275,28.7112239 7.10462017,28.7112239 C7.0757204,28.7112239 7.04710323,28.7055355 7.0204004,28.6944831 L0.543989551,26.0138678 C0.214717362,25.8775806 -8.25558157e-16,25.5563251 0,25.1999624 L0,3.77811908 C6.73804571e-17,3.42175637 0.214717362,3.10050089 0.543989551,2.96421367 L7.0204004,0.283598392 C7.13277729,0.237085098 7.26158323,0.29047809 7.30809652,0.402854977 C7.31914894,0.429557802 7.32483733,0.458174974 7.32483733,0.487074746 Z" id="Polygon-Copy" fill="url(#linearGradient-2)" opacity="0.800000012"></path>
                                    <path d="M14.5697656,0.329484152 L14.5697656,28.4910068 C14.5697656,28.6126293 14.471171,28.7112239 14.3495484,28.7112239 C14.3206487,28.7112239 14.2920315,28.7055355 14.2653287,28.6944831 L7.78891781,26.0138678 C7.45964562,25.8775806 7.24492826,25.5563251 7.24492826,25.1999624 L7.24492826,3.62052849 C7.24492826,3.26416578 7.45964562,2.9429103 7.78891781,2.80662307 L14.2653287,0.126007798 C14.3777055,0.0794945044 14.5065115,0.132887496 14.5530248,0.245264383 C14.5640772,0.271967208 14.5697656,0.30058438 14.5697656,0.329484152 Z" id="Polygon-Copy" fill="#AAD2FE" opacity="0.900000036" transform="translate(10.907347, 14.410245) scale(-1, 1) translate(-10.907347, -14.410245) "></path>
                                    <line x1="7.29160159" y1="0.623461736" x2="7.29160159" y2="29.5296278" id="Line-Copy-5" stroke="url(#linearGradient-3)" stroke-width="0.568742656" opacity="0.560000002" stroke-linecap="round" stroke-linejoin="round" stroke-dasharray="0.1101085806285172"></line>
                                </g>
                                <g id="Top" fill="url(#linearGradient-4)" stroke="url(#linearGradient-5)" stroke-width="0.5">
                                    <path d="M7.30255613,0.404422829 C7.51016365,0.320817384 7.7425472,0.322305275 7.94928126,0.408899198 L7.94928126,0.408899198 L13.9655701,2.92891963 L8.03575923,6.1932293 C7.82206714,6.28018291 7.58201857,6.27670856 7.37071733,6.18324434 L7.37071733,6.18324434 L1.49870571,3.58589573 Z" id="Polygon"></path>
                                </g>
                            </g>
                        </g>
                        <path d="M8.11599029,6.47135162 L14.5896973,3.71542156 L14.5896973,3.71542156 C14.6598927,3.65103367 14.7129696,3.57127361 14.748928,3.47614137 C14.7848864,3.38100913 14.7733856,3.25238174 14.7144257,3.0902592 C14.7697053,3.15819172 14.8163339,3.22562269 14.8543116,3.29255209 C14.8922892,3.35948149 14.9261163,3.46356149 14.9557926,3.60479209 L14.9124413,25.3214844 C14.911736,25.6748086 14.6999805,25.9935222 14.3745358,26.1310873 L8.08870748,28.7880984 C7.81464551,28.903944 7.5053662,28.903944 7.23130423,28.7880984 L0.946640954,26.1315797 C0.620607359,25.9937658 0.408733633,25.6741826 0.408733633,25.3202185 L0.408733633,4.71373946 C0.408733633,4.22724915 0.80311195,3.83287083 1.28960226,3.83287083 C1.41776388,3.83287083 1.5443819,3.86083719 1.6606206,3.91481836 L7.13142143,6.45545406 C7.44255105,6.59994241 7.80035806,6.60571982 8.11599029,6.47135162 Z" id="backlight_White" fill="url(#linearGradient-6)" opacity="0.848814499"></path>
                    </g>
                    <g id="编组-32" transform="translate(1.102395, 5.248497)">
                        <path d="M0,14.2536328 L5.53186928,16.6422643 L5.53186928,19.1481755 C5.53186928,19.3440942 5.3713385,19.4998428 5.17331374,19.4960497 C5.12417255,19.4951085 5.07555588,19.4841834 5.030482,19.4639526 L0.719079298,17.5288458 C0.282466365,17.3328788 0,16.9014182 0,16.4304694 L0,14.2536328 Z M5.53186928,11.7502636 L5.53186928,15.0413516 L0,12.65272 L0,9.36163198 L5.53186928,11.7502636 Z M0.358555532,6.78351017e-05 C0.407696727,0.00100910186 0.456313393,0.0119342252 0.501387275,0.0321649438 L5.20501505,2.14331593 C5.40347547,2.23239184 5.53186928,2.42851031 5.53186928,2.64257796 L5.53186928,5.77793318 L0,3.3893016 L0,0.347942097 C0,0.152023415 0.16053078,-0.00372519671 0.358555532,6.78351017e-05 Z M0,4.79510176 L5.53186928,7.18373333 L5.53186928,10.3835781 L0,7.9949465 L0,4.79510176 Z" id="形状结合" fill="#FFFFFF"></path>
                        <g id="编组-31" transform="translate(0.748139, 1.254677)">
                            <g id="编组">
                                <g id="Path">
                                    <use fill="url(#linearGradient-7)" xlink:href="#path-8"></use>
                                    <use fill="#2C91FC" xlink:href="#path-8"></use>
                                    <use fill="#015FCB" xlink:href="#path-8"></use>
                                </g>
                                <g id="矩形">
                                    <use fill="url(#linearGradient-9)" xlink:href="#path-10"></use>
                                    <use fill="#6DB7FE" xlink:href="#path-10"></use>
                                    <use fill="#015FCB" xlink:href="#path-10"></use>
                                </g>
                            </g>
                            <g id="编组" transform="translate(0.000000, 4.745787)">
                                <g id="Path">
                                    <use fill="url(#linearGradient-7)" xlink:href="#path-11"></use>
                                    <use fill="#2C91FC" xlink:href="#path-11"></use>
                                    <use fill="#015FCB" xlink:href="#path-11"></use>
                                </g>
                                <g id="矩形">
                                    <use fill="url(#linearGradient-9)" xlink:href="#path-12"></use>
                                    <use fill="#6DB7FE" xlink:href="#path-12"></use>
                                    <use fill="#015FCB" xlink:href="#path-12"></use>
                                </g>
                            </g>
                            <g id="编组" transform="translate(0.000000, 9.326420)">
                                <g id="Path">
                                    <use fill="url(#linearGradient-7)" xlink:href="#path-13"></use>
                                    <use fill="#2C91FC" xlink:href="#path-13"></use>
                                    <use fill="#015FCB" xlink:href="#path-13"></use>
                                </g>
                                <g id="矩形">
                                    <use fill="url(#linearGradient-9)" xlink:href="#path-14"></use>
                                    <use fill="#6DB7FE" xlink:href="#path-14"></use>
                                    <use fill="#015FCB" xlink:href="#path-14"></use>
                                </g>
                            </g>
                            <g id="编组" transform="translate(0.000000, 13.974691)">
                                <g id="Path">
                                    <use fill="url(#linearGradient-7)" xlink:href="#path-15"></use>
                                    <use fill="#2C91FC" xlink:href="#path-15"></use>
                                    <use fill="#015FCB" xlink:href="#path-15"></use>
                                </g>
                                <g id="矩形">
                                    <use fill="url(#linearGradient-9)" xlink:href="#path-16"></use>
                                    <use fill="#6DB7FE" xlink:href="#path-16"></use>
                                    <use fill="#015FCB" xlink:href="#path-16"></use>
                                </g>
                            </g>
                        </g>
                    </g>
                </g>
            </g>
        </g>
    </g>
</svg>