<svg height="1150" viewBox="0 0 45 1150" width="45" xmlns="http://www.w3.org/2000/svg"><path d="m0 950h45v30h-45z" fill="#00247d"/><path d="m32.9 958.09998c0-.5.4-.90002.9-.90002s.9.40002.9.90002-.4.90002-.9.90002-.9-.40002-.9-.90002z" fill="#fff"/><path d="m27.6 963.29999c0-.5.4-.90002.9-.90002s.9.40002.9.90002-.4.90002-.9.90002-.9-.40002-.9-.90002z" fill="#fff"/><path d="m45 180h-45v-15h45z" fill="#c8102e"/><path d="m15 150h30v15h-30z" fill="#fff"/><path d="m0 150h15v15h-15z" fill="#00247d"/><path d="m8.9 157.89999 2.2-1.60001h-2.8l-.8-2.60001-.8 2.60001h-2.8l2.2 1.60001-.8 2.60001 2.2-1.60001 2.2 1.60001z" fill="#fff"/><path d="m0 200h45v30h-45z" fill="#fc0"/><path d="m0 215h45v15h-45z" fill="#00247d"/><path d="m0 222.5h45v7.5h-45z" fill="#c8102e"/><path d="m0 300h45v30h-45z" fill="#c8102e"/><path d="m15 300h15v30h-15z" fill="#fff"/><path d="m0 470h45v10h-45z" fill="#00247d"/><path d="m0 460h45v10h-45z" fill="#fff"/><path d="m0 450h45v10h-45z" fill="#c8102e"/><path d="m0 500h45v30h-45z"/><path d="m0 510h45v20h-45z" fill="#c8102e"/><path d="m0 520h45v10h-45z" fill="#fc0"/><path d="m0 550h45v30h-45z" fill="#c8102e"/><path d="m0 560h45v10h-45z" fill="#fff"/><path d="m0 600h45v30h-45z" fill="#c8102e"/><path d="m19.7 605.59998h5.6v6.59998h6.6v5.59998h-6.6v6.59998h-5.6v-6.59998h-6.6v-5.59998h6.6z" fill="#fff"/><path d="m0 650h45v30h-45z" fill="#128807"/><path d="m0 660h45v20h-45z" fill="#fff"/><path d="m0 670h45v10h-45z"/><path d="m0 650h11.2v30h-11.2z" fill="#c8102e"/><path d="m0 400h45v30h-45z" fill="#00247d"/><path d="m45 403.39999-10 6.60001h10v10h-10l10 6.60001v3.39999h-5l-13.7-9.10001v9.10001h-7.5v-9.10001l-13.8 9.10001h-5v-3.39999l10-6.60001h-10v-10h10l-10-6.60001v-3.39999h5l13.7 9.10001v-9.10001h7.5v9.10001l13.8-9.10001h5z" fill="#fff"/><path d="m24.8 412v-12h-4.5v12h-20.3v6h20.2v12h4.5v-12h20.3v-6zm1.8-2 15-10h3.4l-15 10zm-15 0-11-7.29999v-2.20001l14.4 9.5zm21.7 10 11 7.29999v2.20001l-14.3-9.5zm-15 0-15 10h-3.3l15-10z" fill="#c8102e"/><path d="m0 100h45v30h-45z" fill="#128807" fill-rule="evenodd"/><path d="m3.8 115 18.7 11.9 18.7-11.9-18.7-11.9s-18.7 11.9-18.7 11.9z" fill="#fc0"/><circle cx="22.5" cy="115" fill="#00247d" r="7.9"/><path d="m15.3 111.8c-.2.4-.3.8-.4 1.2 1-.2 2.1-.3 3.1-.3 4.4 0 8.7 1.6 12 4.6l.3-1.2c-3.4-2.9-7.8-4.5-12.3-4.5-.9 0-1.8.1-2.7.2z" fill="#fff"/><path d="m0 750h45v30h-45z" fill="#c8102e"/><path d="m20.1 767.29999c-1.1985-.1167-2.3.70001-2.5 1.90002 0 .90002-.6 1.59998-1.5 1.59998h-.4c3.9 3.20001 9.8-.90002 6.8-5.79999.3 1-.3169 2.02252-1.4 2.29999-.3063.07849-.7227.02698-1 0zm-.887 2.20001c0-.29999.2-.5.5-.5s.5.20001.5.5-.2.5-.5.5-.5-.20001-.5-.5zm4.7328-1.50671c-.4813 1.10382-.045 2.40369 1.0345 2.96478.856.27808 1.3363 1.06512 1.0581 1.92102l-.1236.38037c4.2486-2.72028 2.1724-9.59851-3.4148-8.25952 1.0438.02368 1.8256.92639 1.7548 2.04218-.02.31561-.1977.69568-.309.95111zm1.8182 1.52337c-.2853-.09271-.4137-.34473-.321-.63s.3447-.4137.63-.32098.4137.34473.321.63-.3447.4137-.63.32098zm.0295-4.96667c.901.79883 2.2722.78558 3.1393-.06769.529-.72809 1.4259-.94171 2.154-.41272l.3236.23511c-1.2742-4.88123-8.4574-5.03223-8.9105.69531.3451-.98541 1.4452-1.45001 2.4845-1.03778.2939.11658.6006.40302.809.58783zm2.0108-1.25849c-.1763.24268-.4557.28699-.6984.1106s-.2869-.45569-.1106-.69843.4557-.28699.6984-.1106.2869.45569.1106.69843zm-4.7146-1.56292c1.0382-.61011 1.4493-1.91821.9057-3.00659-.529-.72809-.455-1.64709.2731-2.17609l.3236-.23511c-5.0361-.29651-7.3993 6.4884-2.0922 8.68921-.8305-.63269-.9324-1.82257-.2193-2.68359.2017-.24353.5688-.44672.809-.58783zm-.5755-2.30121c.1763.24268.1321.52209-.1106.69843s-.5221.13208-.6984-.1106-.1321-.52209.1106-.69843.5221-.13208.6984.1106zm-2.9433 4.00079c-.2594-1.1759-1.3765-1.97113-2.5796-1.79053-.856.27808-1.7071-.07617-1.9852-.93219l-.1236-.38037c-1.8382 4.698 3.8843 9.04218 7.6174 4.67493-.8584.5943-2.0215.32361-2.62-.62073-.1693-.26709-.249-.67902-.309-.95111zm-2.3664-.16369c.2853-.09271.5373.03571.63.32098s-.0357.53729-.321.63-.5373-.03571-.63-.32098.0357-.53729.321-.63z" fill="#fff"/><path d="m0 370h45v10h-45z" fill="#c8102e"/><path d="m0 360h45v10h-45z" fill="#00247d"/><path d="m0 350h45v10h-45z" fill="#fc0"/><path d="m0 900h45v15h-45z" fill="#c8102e"/><path d="m0 915h45v15h-45z" fill="#bbb"/><path d="m.5 915h44v14.5h-44z" fill="#fff"/><path d="m0 850v30h45v-30z" fill="#00247d"/><path d="m0 865h45v15h-45z" fill="#c8102e"/><path d="m19.5 865-19.5 15v-30z" fill="#fff"/><path d="m7 860.20001-.8.79999.4 1.79999c-.3.09998-.6.20001-.8.29999l-1-1.5h-1.1v1.09998l1.5 1c-.2.20001-.3.5-.3.79999l-1.9-.29999-.7.79999.7.79999 1.8-.40002c.1.29999.2.59998.3.79999l-1.5 1v1.09998h1.1l1-1.5c.2.20001.5.29999.8.29999l-.3 1.90002.8.70001.8-.70001-.4-1.79999c.3-.09998.6-.20001.8-.29999l1 1.5h1.1v-1.09998l-1.5-1c.2-.20001.3-.5.3-.79999l1.8.40002.7-.79999-.7-.79999-1.8.40002c-.1-.29999-.2-.59998-.3-.79999l1.5-1v-1.09998h-1.1l-1 1.5c-.2-.20001-.5-.29999-.8-.29999l.4-1.90002z" fill="#fc0"/><path d="m1.2 873.09998c0-.29999.2-.5.5-.5s.5.20001.5.5-.2.5-.5.5-.5-.20001-.5-.5z" fill="#fc0"/><path d="m15.6 865c0-.29999.2-.5.5-.5s.5.20001.5.5-.2.5-.5.5-.5-.20001-.5-.5z" fill="#fc0"/><path d="m1.2 856.90002c0-.29999.2-.5.5-.5s.5.20001.5.5-.2.5-.5.5-.5-.29999-.5-.5z" fill="#fc0"/><path d="m0 800h45v30h-45z" fill="#f93"/><path d="m0 810h45v20h-45z" fill="#fff"/><path d="m0 820h45v10h-45z" fill="#128807"/><path d="m0 0h45v30h-45z" fill="#fff"/><path d="m0 18.5h45v2.3h-45z" fill="#c8102e"/><path d="m0 23.1h45v2.3h-45z" fill="#c8102e"/><path d="m0 27.7h45v2.3h-45z" fill="#c8102e"/><path d="m0 0h20.3v16.1h-20.3z" fill="#00247d"/><path d="m20.3 13.8h24.7v2.3h-24.7z" fill="#c8102e"/><path d="m20.3 9.2h24.7v2.3h-24.7z" fill="#c8102e"/><path d="m20.3 4.6h24.7v2.3h-24.7z" fill="#c8102e"/><path d="m20.3 0h24.7v2.3h-24.7z" fill="#c8102e"/><path d="m0 50h45v30h-45z" fill="#75aadb"/><path d="m0 60h45v10h-45z" fill="#fff"/><path d="m0 700h45v30h-45z" fill="#00247d"/><path d="m22.5 701.70001-5 3.29999h5v5h-5l5 3.29999v1.70001h-2.5l-6.9-4.59998v4.59998h-3.7v-4.59998l-6.9 4.59998h-2.5v-1.70001l5-3.29999h-5v-5h5l-5-3.29999v-1.70001h2.5l6.9 4.59998v-4.59998h3.7v4.59998l6.9-4.59998h2.5z" fill="#fff"/><path d="m12.4 706v-6h-2.3v6h-10.1v3h10.1v6h2.3v-6h10.1v-3zm.9-1 7.5-5h1.7l-7.5 5zm-7.5 0-5.5-3.70001v-1.09998l7.2 4.79999zm10.9 5 5.5 3.70001v1.09998l-7.2-4.79999zm-7.5 0-7.5 5h-1.7l7.5-5z" fill="#c8102e"/><g fill="#fff"><path d="m13.2 726.5-1.9-2-1.9 2 .4-2.79999-2.8-.20001 2.4-1.5-1.6-2.40002 2.7 1 .9-2.70001.9 2.70001 2.6-1-1.6 2.40002 2.4 1.5-2.8.20001z"/><path d="m32.9 704.90002c0-.5.4-.90002.9-.90002s.9.40002.9.90002-.4.90002-.9.90002-.9-.40002-.9-.90002z"/><path d="m25.4 713c0-.5.4-.90002.9-.90002s.9.40002.9.90002-.4.90002-.9.90002-.9-.40002-.9-.90002z"/><path d="m33 724.90002c0-.4444.3555-.79999.8-.79999s.8.35559.8.79999-.3555.79999-.8.79999-.8-.35559-.8-.79999z"/><path d="m36.1 716.10968c0-.33331.2667-.59998.6-.59998s.6.26672.6.59998-.2667.59998-.6.59998-.6-.26672-.6-.59998z"/><path d="m22.5 951.70001-5 3.29999h5v5h-5l5 3.29999v1.70001h-2.5l-6.9-4.59998v4.59998h-3.7v-4.59998l-6.9 4.59998h-2.5v-1.70001l5-3.29999h-5v-5h5l-5-3.29999v-1.70001h2.5l6.9 4.59998v-4.59998h3.8v4.59998l6.8-4.59998h2.5z"/></g><g fill="#c8102e"><path d="m12.4 956v-6h-2.2v6h-10.2v3h10.1v6h2.2v-6h10.1v-3z"/><path d="m13.3 955 7.5-5h1.7l-7.5 5z"/><path d="m5.8 955-5.5-3.70001v-1.09998l7.2 4.79999z"/><path d="m16.7 960 5.5 3.70001v1.09998l-7.2-4.79999z"/><path d="m9.2 960-7.5 5h-1.7l7.5-5z"/></g><path d="m38.2 962.90002c-.5 0-.9-.40002-.9-.90002s.4-.90002.9-.90002.9.40002.9.90002-.4.90002-.9.90002z" fill="#fff"/><path d="m38.2002 962.52539c-.2949 0-.5254-.23053-.5254-.52539s.2305-.52539.5254-.52539c.2939 0 .5244.23053.5244.52539s-.2305.52539-.5244.52539z" fill="#c8102e"/><path d="m28.5005 963.82538c-.2949 0-.5254-.23053-.5254-.52539s.2305-.52539.5254-.52539c.2939 0 .5244.23053.5244.52539s-.2305.52539-.5244.52539z" fill="#c8102e"/><path d="m33.8005 958.62543c-.2949 0-.5254-.23053-.5254-.52539s.2305-.52539.5254-.52539c.2939 0 .5244.23053.5244.52539s-.2305.52539-.5244.52539z" fill="#c8102e"/><circle cx="33.8" cy="971.59998" fill="#fff" r=".90001"/><path d="m33.7998 972.125c-.2891 0-.5244-.23541-.5244-.52539 0-.28912.2354-.52441.5244-.52441.29 0 .5254.23541.5254.52441 0 .28998-.2354.52539-.5254.52539z" fill="#c8102e"/><path d="m0 250h45v30h-45z" fill="#c8102e"/><path d="m0 250h30v30h-30z" fill="#fff"/><path d="m0 250h15v30h-15z" fill="#128807"/><path d="m11.2 1000h22.5v30h-22.5z" fill="#fff"/><path d="m0 1000h11.2v30h-11.2zm33.8 0h11.2v30h-11.2zm-19.2 15-.9.29999 4.1 3.59998c.3.90002-.1 1.20001-.4 1.70001l4.4-.59998-.1 4.40002h.9l-.2-4.40002 4.4.5c-.3-.59998-.5-.90002-.3-1.79999l4.1-3.40002-.7-.29999c-.6-.40002.3-2.20001.4-3.20001 0 0-2.4.79999-2.5.40002l-.6-1.20001-2.2 2.40002c-.2.09998-.3 0-.4-.20001l1-5-1.6.90002c-.1.09998-.3 0-.4-.09998l-1.5-3-1.6 3.20001c-.1.09998-.2.09998-.3 0l-1.5-.79999.9 4.90002c-.1.20001-.2.29999-.4.09998l-2.1-2.29999c-.3.40002-.5 1.09998-.8 1.29999-.4.09998-1.6-.29999-2.4-.5.4.90002 1.3 2.59998.7 3.09998v-.00006z" fill="#c8102e"/><path d="m0 1050h45v30h-45z" fill="#c8102e"/><path d="m25.7736 1066.06189 5.2914-3.83691h-6.5397l-2.0253-6.22498-2.0253 6.22498h-6.5397l5.2914 3.83691-2.0214 6.21313 5.295-3.83936 5.295 3.83936z" fill="#fc0"/><path d="m22.5 811c-2.2092 0-4 1.79077-4 4s1.7908 4 4 4 4-1.79077 4-4-1.7908-4-4-4zm.125 3.26123v-2.75873c.5457.01929 1.0601.164 1.515.40637l-1.379 2.38867c-.0436-.01617-.0891-.02838-.136-.03638v.00006zm-.25 0c-.0469.00787-.0924.02008-.136.03638l-1.379-2.38867c.4549-.24237.9692-.38708 1.515-.40637v2.75867zm-.6138.61377h-2.7587c.0193-.54578.1641-1.06018.4065-1.51508l2.3887 1.37903c-.0163.04358-.0285.08911-.0364.13611zm0 .25c.0079.047.0201.09253.0364.13611l-2.3887 1.37903c-.2424-.45502-.3872-.9693-.4065-1.51508h2.7587zm.6138.61377v2.75873c-.5457-.01929-1.0601-.164-1.515-.40637l1.379-2.38867c.0436.01617.0891.02838.136.03638v-.00006zm.25 0c.0469-.00787.0924-.02008.136-.03638l1.379 2.38867c-.4549.24237-.9692.38708-1.515.40637v-2.75867zm.6138-.61377h2.7587c-.0193.54572-.164 1.06012-.4064 1.51501l-2.3887-1.37903c.0162-.04358.0284-.08899.0364-.13593v-.00006zm0-.25c-.0079-.04688-.0201-.09229-.0364-.13593l2.3887-1.37903c.2424.4549.3871.96918.4064 1.51501h-2.7587v-.00006zm2.2268-1.73138-2.3878 1.37848c-.0301-.03632-.0635-.06982-.0999-.09991l1.3784-2.38782c.4479.28137.8278.66132 1.1092 1.10919zm-4.822-1.1092 1.3784 2.38782c-.0363.03003-.0697.06342-.0997.09967l-2.3878-1.37848c.2814-.44781.6613-.82758 1.1091-1.10901zm-1.1091 4.82221 2.3878-1.37848c.03.03632.0635.06958.0997.09967l-1.3784 2.38782c-.4478-.28137-.8277-.66119-1.1091-1.10901zm4.8219 1.10901-1.3784-2.38782c.0363-.03009.0698-.06348.0999-.09991l2.3878 1.37848c-.2814.44788-.6613.82782-1.1092 1.10919z" fill="#00247d"/><path d="m39.7 711c0-.4444.3555-.79999.8-.79999s.8.35559.8.79999-.3555.79999-.8.79999-.8-.35559-.8-.79999z" fill="#fff"/><path d="m13.4 367.70981c0-.33331.2667-.60001.6-.60001s.6.26669.6.60001-.2667.60001-.6.60001-.6-.26669-.6-.60001zm1.7-2.41959c0-.33331.2667-.60001.6-.60001s.6.26669.6.60001-.2667.60001-.6.60001-.6-.26669-.6-.60001zm2.2-2.08041c0-.33331.2667-.60001.6-.60001s.6.26669.6.60001-.2667.60001-.6.60001-.6-.26669-.6-.60001zm2.9-1.01959c0-.33331.2667-.60001.6-.60001s.6.26669.6.60001-.2667.60001-.6.60001-.6-.26669-.6-.60001zm11.4 5.51959c0-.33331-.2667-.60001-.6-.60001s-.6.26669-.6.60001.2667.60001.6.60001.6-.26669.6-.60001zm-1.7-2.41959c0-.33331-.2667-.60001-.6-.60001s-.6.26669-.6.60001.2667.60001.6.60001.6-.26669.6-.60001zm-2.2-2.08041c0-.33331-.2667-.60001-.6-.60001s-.6.26669-.6.60001.2667.60001.6.60001.6-.26669.6-.60001zm-2.9-1.01959c0-.33331-.2667-.60001-.6-.60001s-.6.26669-.6.60001.2667.60001.6.60001.6-.26669.6-.60001z" fill="#fff"/><path d="m26.3003 65.125v-.25h-2.2205c-.0043-.0554-.0113-.1099-.0209-.1635l2.1437-.5743-.0645-.2412-2.1429.5742c-.0184-.0523-.0391-.1034-.0626-.153l1.9203-1.1086-.125-.2168-1.9202 1.1085c-.0311-.0454-.0646-.0889-.1002-.1306l1.5683-1.5683-.1777-.1768-1.5677 1.5677c-.0418-.0356-.0854-.0692-.1308-.1004l1.1087-1.9205-.2168-.125-1.1088 1.9207c-.0496-.0234-.1006-.0443-.1528-.0626l.5742-2.1428-.2422-.0645-.5743 2.1435c-.0534-.0096-.1078-.0167-.163-.0209v-2.2198h-.25v2.2198c-.0552.0043-.1096.0112-.163.0209l-.5743-2.1436-.2422.0645.5742 2.143c-.0519.0182-.1027.0389-.1519.0622l-1.1088-1.9205-.2168.125 1.1086 1.9203c-.0454.0312-.0891.0648-.1308.1004l-1.5676-1.5676-.1777.1768 1.5681 1.5681c-.0357.0419-.0693.0855-.1005.131l-1.9207-1.1088-.125.2168 1.9209 1.1089c-.0234.0495-.0443.1004-.0626.1526l-2.1425-.574-.0645.2412 2.1434.5743c-.0097.0536-.0167.1081-.0209.1635h-2.2202v.25h2.2202c.0043.0554.0112.1099.0209.1635l-2.1434.5743.0645.2412 2.1425-.574c.0182.0522.0391.1031.0625.1526l-1.9208 1.1089.125.2168 1.9206-1.1088c.0312.0455.0649.0892.1006.131l-1.5681 1.5681.1777.1768 1.5676-1.5676c.0418.0356.0854.0692.1309.1003l-1.1086 1.9203.2168.125 1.1087-1.9205c.0493.0233.1.044.152.0623l-.5742 2.1429.2422.0645.5743-2.1435c.0534.0096.1078.0166.163.0209v2.2198h.25v-2.2197c.0552-.0042.1096-.0112.163-.0209l.5743 2.1434.2422-.0645-.5741-2.1428c.0522-.0183.1033-.0391.1528-.0626l1.1088 1.9207.2168-.125-1.1087-1.9205c.0454-.0312.089-.0648.1308-.1004l1.5677 1.5677.1777-.1768-1.5682-1.5682c.0356-.0417.0691-.0853.1002-.1306l1.9202 1.1085.125-.2168-1.9203-1.1086c.0234-.0496.0443-.1007.0626-.153l2.1429.5742.0645-.2412-2.1437-.5743c.0096-.0536.0167-.1081.0209-.1635h2.2205l-.0003.00028z" fill="#fc0"/><path d="m3.7 3.2c0 .2761-.2239.5-.5.5s-.5-.2239-.5-.5.2239-.5.5-.5.5.2239.5.5zm-.5 2.7333c-.2761 0-.5.2239-.5.5s.2239.5.5.5.5-.2239.5-.5-.2239-.5-.5-.5zm0 3.2334c-.2761 0-.5.2239-.5.5s.2239.5.5.5.5-.2239.5-.5-.2239-.5-.5-.5zm0 3.2333c-.2761 0-.5.2239-.5.5s.2239.5.5.5.5-.2239.5-.5-.2239-.5-.5-.5zm3.475-9.7c-.2761 0-.5.2239-.5.5s.2239.5.5.5.5-.2239.5-.5-.2239-.5-.5-.5zm0 3.2333c-.2761 0-.5.2239-.5.5s.2239.5.5.5.5-.2239.5-.5-.2239-.5-.5-.5zm0 3.2334c-.2761 0-.5.2239-.5.5s.2239.5.5.5.5-.2239.5-.5-.2239-.5-.5-.5zm0 3.2333c-.2761 0-.5.2239-.5.5s.2239.5.5.5.5-.2239.5-.5-.2239-.5-.5-.5zm3.475-9.7c-.2761 0-.5.2239-.5.5s.2239.5.5.5.5-.2239.5-.5-.2239-.5-.5-.5zm0 3.2333c-.2761 0-.5.2239-.5.5s.2239.5.5.5.5-.2239.5-.5-.2239-.5-.5-.5zm0 3.2334c-.2761 0-.5.2239-.5.5s.2239.5.5.5.5-.2239.5-.5-.2239-.5-.5-.5zm0 3.2333c-.2761 0-.5.2239-.5.5s.2239.5.5.5.5-.2239.5-.5-.2239-.5-.5-.5zm3.475-9.7c-.2761 0-.5.2239-.5.5s.2239.5.5.5.5-.2239.5-.5-.2239-.5-.5-.5zm0 3.2333c-.2761 0-.5.2239-.5.5s.2239.5.5.5.5-.2239.5-.5-.2239-.5-.5-.5zm0 3.2334c-.2761 0-.5.2239-.5.5s.2239.5.5.5.5-.2239.5-.5-.2239-.5-.5-.5zm0 3.2333c-.2761 0-.5.2239-.5.5s.2239.5.5.5.5-.2239.5-.5-.2239-.5-.5-.5zm3.475-9.7c-.2761 0-.5.2239-.5.5s.2239.5.5.5.5-.2239.5-.5-.2239-.5-.5-.5zm0 3.2333c-.2761 0-.5.2239-.5.5s.2239.5.5.5.5-.2239.5-.5-.2239-.5-.5-.5zm0 3.2334c-.2761 0-.5.2239-.5.5s.2239.5.5.5.5-.2239.5-.5-.2239-.5-.5-.5zm0 3.2333c-.2761 0-.5.2239-.5.5s.2239.5.5.5.5-.2239.5-.5-.2239-.5-.5-.5z" fill="#fff"/><path d="m27.9297 264.5256c-.0382.03409-.0825.091-.0916.1969-.0185-.12381-.0789-.34521-.164-.45941-.1301.1344-.2157.2854-.2417.65741-.0831-.3707-.268-.43289-.2992-.4306.1896.25461-.0337.44601.065.70761.0815.2186.2064.1022.1696.55969l-.1683-.1131c.0234-.06989-.0282-.14182-.1003-.14182-.1801 0-.1042.2905.052.20081l.1972.19629c-.0127.05701-.0322.09961-.0452.1243-.0113.0058-.2299.22589-.2299.22589 0-.07889.0008-.11829.0259-.18619 0 0-.1295.0322-.3106.1774-.1811.14471-.2584.32669-.249.46439.0178.271.0906.11261.1017.70251 0 0-.0175.03351-.0438.07458l-.212-.25089c.0633-.07071.0144-.18549-.0803-.18549-.1649 0-.1298.2623.0289.21759l.1951.3038c-.0365.03409-.0751.05829-.0948.07001-.025-.01071-.0986-.0416-.4694.21469.075-.11819.0523-.345-.0182-.40948.0497.25461-.48.45291-.5541.69281-.0406.1319-.02.33389-.1578.45239-.0119.00769-.0822.0553-.1042.07211l-.0732-.20761c.0772-.06461.03-.18719-.073-.18719-.1542 0-.1392.22198.006.21341l.0144.2854c-.0521.04669-.0783.07239-.0936.14301-.136-.07031-.2576-.0654-.4091-.03699.0452-.02499.1203-.0787.1611-.1431-.0632-.02802-.3916-.1658-.7071.02328-.1823.1084-.2196.33859-.6111.41489-.1901-.0134-.2557-.11411-.5927-.08929-.0004-.05441.0042-.08179-.0152-.10339-.0161-.01779-.4175-.0108-.4336-.00839-.0161.00229-.0392.0047-.0436.03131-.0014.0076-.0005.04129.0009.08569-.0468-.01889-.1357-.05051-.2035-.04791-.234.009-.3647.06711-.417.07709-.1188.02261-.1975-.17841-.251-.18301-.0532-.0047-.0152.1442-.0383.14609-.0828.0079-.1473-.30151-.3457-.31409-.1398-.00891-.1643.0173-.1713.0481-.0065.03131.169.21701.1099.24319-.0588.02661-.2458-.2912-.3818-.29501-.136-.0033-.1473.04849-.137.0784s.1505.05649.1176.1554c-.0317.09619-.1687-.14841-.2943-.1344-.0695.00751-.1047.0137-.1233.02371-.0072-.00479-.0153-.01041-.024-.01669l-.0575-.31699c.1345-.07251.0814-.2171-.0062-.1669.0112-.0618-.0381-.11691-.0807-.1178-.0611 0-.0945.0929-.0578.1546-.1164.00211-.0765.16019.0737.15079l.0199.20319c-.1141-.1152-.2419-.14841-.2813-.27429-.0306-.09799-.0035-.30429-.0532-.30151-.0497.00229-.0782.1517-.1281.1218s.017-.30481-.0376-.42239c-.0539-.11761-.1823-.19931-.2114-.1568-.0296.04291-.0229.2959-.1022.24091-.0791-.05511.007-.2717-.017-.37061-.0238-.099-.0836-.17041-.129-.14609-.0455.02429.018.20959-.0535.21191-.1131.00369-.0685-.2825-.1949-.2525-.0401.0101-.0419.1832-.0357.22079-.0265-.01651-.0652-.04239-.1145-.08029l-.0063-.28271c.1718-.01859.1454-.17941.0532-.18069.0158-.04019.0128-.09439-.0107-.12979-.0578-.08661-.1562.01041-.1199.12201-.1272-.02029-.1486.13269-.0123.1777l-.0049.21091c-.0711-.06149-.1177-.1095-.1475-.14359-.0134-.01779-.0696-.1015-.0478-.22931.0252-.1452.1249-.401.091-.4332-.0341-.03171-.1407.1568-.168.11301-.0515-.0834.1327-.59509-.1244-.56851-.0908.00931-.1291.3085-.1725.2558-.0603-.07471.0739-.38559-.095-.34351-.0453.01169-.0658.14981-.0976.14801-.0218-.00189-.0536-.08099-.0931-.12161.0038-.0441.0084-.13071-.0027-.2164l.1294-.3067c.1757.0715.2158-.12109.1025-.14471l.0004-.00031c.1504-.1084.0221-.25949-.0688-.12921-.0166.0238-.0236.06061-.0258.0864-.0672-.0665-.2035.0383-.0511.16171l-.1251.18301c-.0374-.1059-.0719-.17542-.0564-.2739.0182-.11621.2721-.4364.2212-.51761-.0508-.08081-.2845.12741-.2303-.0126.0544-.14001.2791-.14191.2922-.33701.0077-.1214-.2124.07559-.2322.0145-.0201-.0607.1358-.18579.1339-.26471-.0016-.0787-.2722-.18689-.3575-.02191-.0344.0665-.0523.2717-.0939.30481-.042.03311-.0782-.12701-.1596-.10501-.0817.0224-.0999.1344-.0871.1788.0126.04431.1902.25021.1344.27631-.0565.0257-.1944-.17511-.2686-.0387-.0742.13629.2116.306.2845.35379.1795.11789.2899.2851.3442.49289l-.2018-.12149c.0814-.15811-.0808-.2298-.1276-.12689-.1447-.15881-.286.0535-.0735.11261-.0004.00031-.0006.0004-.0006.0004-.0634.08151.0574.1579.1577.06781l.262.22531-.0101.22269s-.0929-.05411-.1139-.01819c-.0227.03922.1087.1405.084.16571-.025.0257-.2175-.03922-.2289.02289s.0182.14981.1293.1774c.1111.0275.3692.08731.3263.13809-.0432.0509-.3242-.15399-.3127-.0047.0112.14981.1085.21191.1814.23941.0726.02759.3556-.00421.3398.0621-.0159.06671-.231-.02051-.2513.07611s.1494.1106.1856.1106c.0364 0 .1545-.0047.1995.02991.05.03809.1022.1048.3292.31061l-.1672.01169c-.0118-.1937-.1955-.15411-.1768-.04501-.2027-.0416-.2355.13461-.0244.11411-.064.09601.1289.1839.1911.004l.2968.01129c.0861.0625.1731.11621.1731.11621.0006 0-.1648-.0163-.1825.0238-.0224.05179.4262.21191.2973.2619-.1286.0495-.2672-.13721-.3043-.02328-.0373.11429.085.21051.155.25211.0698.0415.4677.00839.3898.09851-.0779.09061-.3662-.0607-.369.0462s.1921.27631.2917.2717c.0999-.0047.2096-.16479.2551-.07791.0451.0863-.0775.12131.0189.1442.0959.02341.1641-.09851.2754-.07651.105.02109.2661.08481.3664.16699l-.2134.0231c-.0798-.18671-.2191-.10739-.1892-.0018-.0638-.00919-.139.02499-.139.08569 0 .0712.1058.10989.181.073.0263.09329.2064.11829.1687-.08469l.2802-.01401c.047.04489.0883.08621.1107.1087-.0631.02029-.3105.08279-.2789.17911.0032.00989.1458.00439.1538.0199.0079.0159.0182.08539.0602.0784s.1895-.11899.2946-.06949c.1174.0546-.1517.13391-.1239.2175.0275.0831.2215.04761.271.021.049-.02609.196-.20999.2565-.1405.0838.0976-.176.1727-.1279.27029.0464.09381.1916.07239.2614.0322.0705-.0401.2338-.29221.27-.23761.0628.0943-.1377.1839-.0875.2572.0506.07281.1615-.00281.2352-.0546.0735-.05179.1032-.17551.2051-.23291s.4432-.19559.5155-.20581c.063-.0097.1054.02029.1375.0434-.1069.0415-.258.10999-.3737.16669-.1373.06729-.1905.23239-.1235.23151.0667-.0014.2142-.112.3321-.19461.0737-.05219.2091-.09341.2659-.10919-.0006.04611-.0032.0816-.0097.09009-.0183.0249-.463.2233-.5456.57321.0781-.0972.2664-.16461.4852.09659.1-.1369.1751-.2052.2651-.2872.2149.28479.2292.08929.4509.30081.1346-.23251.4095-.2229.4612-.17041-.3824-.41101-.4056-.20569-.6398-.48929.0061-.02289.0098-.03931.0135-.0838.1255.04269.3752.12531.441.24911.0438.08249.1889.06851.1885-.0174-.0006-.12161-.4384-.30301-.624-.33929.0003-.01141.0005-.0228.0007-.034.0755.0015.312.00861.4234.03979.279.07681.5243.44519.7947.4541.3089.01019.8477-.36859 1.0535-.3446-.1955-.1203-.3409-.10751-.401-.10541.4199-.27661.2461-.19711.4417-.38959l.2652.15469c-.0222.0983.0875.1669.1697.1037.1211-.09219-.0191-.2659-.1331-.16501l-.193-.1857c.0465-.03271.0964-.056.1797-.07739.1341.00269.6721.00409.9014-.14041.309-.19489.1875-.43649.3061-.58109-.0947-.00101-.1469.01309-.1854.0369.0672-.22131.0631-.2251.0651-.28241 0 0 .0689-.04291.1271-.0986l.2469.0448c.0028.14401.2155.1412.2155-.0022 0-.1098-.1425-.15149-.1995-.05759l-.1886-.07458c.0619-.09219.1129-.13559.209-.20569.7471-.1391.4848-.60269.8995-1.01541 0 0-.138-.04019-.3612.18909.0011-.017-.0059-.41479-.015-.44281.0063-.047.0009-.0246.027-.11469l.3249-.09299c.0605.07739.1844.03421.1844-.06531 0-.1366-.202-.14011-.2066-.0036l-.2618.02509c.1045-.3345.6021-.36661.6348-.76929.0248-.3071-.1461-.3269-.1466-.48569l-.0003-.00122z" fill="#128807"/><path d="m23.2108 267.47559.0002.00009z" fill="#00524c"/><path d="m26.63 263.7608c-.0143-.3324-.5093-1.66571-.7835-2.09479-.5079-.7951-1.6638-1.64999-2.978-1.72659-.1822-.0105-.4296.01761-.49.19049-.4676-.05389-.5317.3331-.4356.48019.094.14041.575.04221.7515.4668.0402.09589.035.21011-.005.30701-.1971-.36261-.346-.55539-1.0416-.60721 0 0-.0041-.2211-.079-.21561-.0804.00589-.079.2587-.1969.21869-.0262-.00891-.0597-.14661-.0917-.14389-.0466.004-.0613.23969-.0961.2869-.0322.04431-.0653-.00211-.0707-.12231-.0068-.15121-.0761-.0878-.1001.05179-.0189.11029-.1084.1636-.1106.10309-.0061-.1676-.0762-.08279-.109.00369-.0555.14609-.0859.19791-.1699.29129-.1575.17361-.2268.17459-.2098.24829.0042.01819.0194.03931.0194.03931s-.2029.2319-.2404.24609c-.0834.03149-.3198.05869-.3672-.01749-.0195-.0311-.0101-.07031-.0056-.08481.1203.008.4718-.23499.3898-.27139-.0102-.00421-.02.00421-.0397.021-.0238.02011-.06.05042-.1165.07611-.0994.0448-.207.0546-.2343.0415-.0277-.01349-.0068-.0513-.0014-.0892.0151-.08459.1259-.11371.1361-.27591.0031-.0527.0013-.065.0521-.1106.0709.09991.0489.2012.0293.2637.1096-.0256.0589-.29199.051-.33041.0324-.03149-.0197-.0921-.0519-.0921-.0257 0-.0932.0632-.1141.08289-.0169-.00671-.0711-.02621-.1006-.0166-.0453.01489-.3942.2955-.4133.40701-.0184.10751.0837.21469.0953.23859.0033.0304-.0355.49271.1561.526.1846.0322.4527.0098.4555.00931h.0009c.0657.11169.2104.228.3338.2287.0611 0 .0896-.0278.1136-.05399.0227.01889.0252.05551.0183.08389-.161.354-.594.42581-.8012.7627-.0885.14401-.1213.32281-.1139.4812.0079.35571.1421.5466.2901.64651.3016.20609.5264.04761.8241.09659.1157.0173.0928.1011.0079.16989.0095-.05841-.2258-.1398-.3389.0065-.0279.03589-.0472.07629-.0558.10809-.0538-.00589-.1445.0571-.149.14709-.061-.00809-.074.05951-.0703.12091-.1265.04199-.2261-.0657-.2563-.2066-.0587-.27469-.0777-.30231-.3109-.48779-.1092-.08649-.2093-.16519-.2093-.28381-.0008-.21329.3428-.56299-.0999-.8663-.0622-.04269-.1229-.0722-.1604-.08859.0078-.04529-.086-.1405-.1711-.06451-.0079-.0719-.0981-.1073-.147-.05139-.1391-.11169-.178.03271-.178.03271-.1483 0-.157.1145-.0534.16071-.0053.04169-.0002.0751.0148.1076.02.043.089.03448.1349.02261.0102.03391.0302.05151.0656.05069.0434 0 .0903-.02469.0908-.02521.0375.1012.1332.09409.1734.02441.1976.12881.1463.20609.059.41061-.1357.32141-.0763.54419.0258.65579.1141.15109.2891.2146.3613.3324.0745.1192.072.37061.1451.52881.1119.24011.4686.26129.7105.0957.1303.07721.4397-.07291.4677-.0907.1228.11249.1702.12799.3464-.08481.0158.0647.0464.2114.2175.25491.1711.04391.263.06909.263.06909l-.0275.12c.0702.05429.4135-.00531.6066-.10599v-.00031l.0002.00031q-.0002-.00009-.0002 0c.0009.00562.0814.1774.1346.1713.0872-.00949.0886-.28131.0852-.3989.6307.7222.5813.81201.6811.76471.0516-.02469.1647.01791.1977.05249-.059.04501-.3891.13199-.3904.13181-.062-.07471-.235.0036-.2489.08701-.059-.0069-.1999.0242-.2314.10971-.5573-.1647-.9485-.52109-1.2906.05881-.0507-.0639-.1671-.1972-.335-.30981.1516-.4137-.2862-.59711-.3714-.1647-.2154-.04901-.4261-.0257-.5776.13501-.006-.53799-.5115-.89749-.7982-.84241.0084-.22061-.1911-.44589-.355-.40781.0055-.03271-.0042-.06369-.0229-.0867-.0874-.10669-.2389.02051-.1519.12839.0191.02359.0459.03641.0733.0383-.0869.1601.0334.44159.2186.51031-.19.39969.2468.95389.9001.92789-.0639.41141.9772.6391 1.3348.3324.0225.52319 1.098.66479 1.4863.31339-.0594.17279-.0594.36041-.0524.7103-.5033-.02991-1.113-.05951-1.1569-.06229-.2168-.01529-.3687-.2973-.4118-.38721.1054-.0878.0432-.26111-.0918-.26111-.1693 0-.2011.245-.0377.28931.0074.05661.015.16519-.0326.17789-.1102.0296-.7622-.3082-.9303-.3967-.0517-.16739-.4513-.25919-.4996-.147-.0619.1431.2452.4437.4485.32861.1156.06421.4781.27301.4648.35941-.0113.0752-.0962.09109-.1409.09421-.0955-.0722-.2317-.0029-.2317.1178 0 .1904.2806.19751.2899.00729.1295.0083.8294.06049.8423.2886.0047.07819-.1205.13141-.1761.15109-.2136-.11069-.4735.09619-.4069.21149.0812.13919.4713.08499.4908-.07501.7311.0159.5498.1387.8917.33591.1554.0896 1.2106.06769 1.3751.02151.2564-.07251.2916-.35541.9837-.45041.0626.15201.2863.1062.2863-.05829 0-.16599-.2269-.21021-.2873-.0556-.0708-.0325-.2001-.1012-.1871-.16531.0144-.06921.3678-.17609.5139-.2175.0785.24091.4991-.09689.426-.20251-.063-.09201-.2439-.10971-.3887.03931-.1915.0144-.3949.146-.791.146-.1459 0-.4363-.0401-.6688-.0546.0215-.10461.0627-.24951.1238-.29819.0267-.01559.6563-.2041.7258-.24139.1364.06851.477.22339.7527.21469.3538-.01169.7571-.28799.7842-.3454.0202-.04211.0134-.1861-.0097-.29071.1616-.0723.2864-.23792.2921-.34671.1178.0177.1842-.1423.0812-.1994-.0714-.03979-.1633.01581-.1671.0957-.1266-.013-.2901.11551-.366.22989-.0889-.07071-.1985-.13669-.2543-.1311-.0927.00931-.2558.13351-.4077.28101-.2197.21231-.0792.2742-.4834.2525.019-.04999.0303-.0936.0363-.13159.1088.04721.2373.0141.2533-.13589.0101-.0679-.0304-.4382-.4121-.40161-.101-.1575-.3664-.2941-.3664-.2941l.1282-.37469.3716.44229c.0245.03189.2066.1232.2797-.0166.1055.12671.2795.17999.4082.0209.1311.1102.3428.0119.4838-.0853.2199.09439.5148-.14569.4753-.18311-.0783-.07199-1.5625-1.18341-1.9402-1.46921.0034-.21201-.0266-.47339-.181-.68271.0582-.04669.0771-.12131.0836-.19241.065.02451.1558.19479.2457.25409.217.14319.6243.64929.6243.64929.0477.05359.1147.03259.0973-.00229-.0745-.14951-.3454-.6861-.3454-.6861l.0903-.0098s.3055.36041.4024.57089c.0966.21051.2026.36691.242.37479.039.00751-.0789-.30249-.1375-.47141-.0593-.16849-.1197-.41629-.0788-.3963.0339.01651.1668.22461.2009.33051.0336.10599.0814.2782.1314.43741.0495.15869.1267.33841.1472.29449.0203-.04391.0023-.32211-.0884-.55261-.0794-.20129-.0876-.54749-.0876-.54749s.1154.0715.2162.7291c.0568.3703.1692.95731.2567 1.02499.0231.0177.0182-.55869.0075-.72159-.0105-.16241-.0119-.16989-.0481-.5755-.0334-.37421-.0934-.48679-.0512-.47311.1524.11591.2173.83481.2309 1.02759.0167.23639.0527.93591.151.93591.0978 0 .0798-.79819.0632-1.03571-.0162-.2319-.0434-.9675-.0434-.9675l.1477.21411s.0116 1.85751.0588 1.8811c.1951.09729.4416-1.12.4033-2.0076zm-2.3383 2.9588c.045.11139-.0486.12881-.0815.13159.0141-.09509-.0054-.15341-.0222-.18381.0303-.0022.0785-.009.1036.05231z" fill="#843511"/><path d="m20.1658 263.88019c-.1265-.18079-.0833-.37039.0637-.53909.1258-.1438.3178-.28009.4847-.43079.1532-.13879.3349-.33859.3349-.5564-.0002-.10291-.0543-.20361-.1175-.28671.3168-.11649.3602-.15021.5171-.29071l.0685.11981-.1434.29001.0781.04529-.2648.4541.0836.05731s-.2113.3241-.205.4776c.0134.32861.1894.69159.1894.69159l.1022-.04971s.0507.08719.0892.14709c-.0093.06509-.0222.21579.0351.33359.058.1199.2069.2876.27.35611.0006.00201-.2338-.1041-.2338-.1041s-.0044.12799.0364.17419c.0253.02881.1818.10791.1818.10791h-.0002l-.2238.09079-.0716-.06131s-.0191-.24969-.183-.4035c-.0002-.00021-.0005-.00021-.0007-.00031-.0059-.38129-.1956-.5365-.4444-.5365-.2469 0-.4912.133-.6464-.0864l-.0001.00012z" fill="#fff"/><path d="m10 913c-3 .29999-5.7-2-6-5s2-5.70001 5-6h.9c-3 1.40002-4.4 5-3 8 .7 1.29999 1.8 2.40002 3.1 3zm3.9-3.09998c0-.27777.2222-.5.5-.5s.5.22223.5.5-.2222.5-.5.5-.5-.22223-.5-.5zm-3.8 0c0-.27777.2222-.5.5-.5s.5.22223.5.5-.2222.5-.5.5-.5-.22223-.5-.5zm-1.1-3.5c0-.27777.2222-.5.5-.5s.5.22223.5.5-.2222.5-.5.5-.5-.22223-.5-.5zm6 0c0-.27777.2222-.5.5-.5s.5.22223.5.5-.2222.5-.5.5-.5-.22223-.5-.5zm-3-2.20001c0-.27777.2222-.5.5-.5s.5.22223.5.5-.2222.5-.5.5-.5-.22223-.5-.5z" fill="#fff"/><path d="m0 1100h45v30h-45z" fill="#fff"/><path d="m45 1115h-22.5v-2.1429h22.5zm0-4.28572h-22.5v-2.14285h22.5zm0-4.28572h-22.5v-2.14285h22.5zm0-4.28566h-22.5v-2.1429h22.5z" fill="#c8102e"/><path d="m0 1100h22.5v17.14287h-22.5z" fill="#00247d"/><path d="m45 1127.85713h-45v-2.14287h45zm0-4.2857h-45v-2.14287h45zm0-4.28569h-45v-2.14287h45z" fill="#c8102e"/><path d="m15.06601 1103.21405.47768 3.26786 1.84821-2.73661-.99107 3.15179 2.85268-1.66518-2.25893 2.41071 3.29464-.26339-3.08036 1.19196 3.08036 1.19196-3.29464-.26339 2.25893 2.41071-2.85268-1.66518.99107 3.15179-1.84821-2.73661-.47768 3.26786-.47768-3.26786-1.84821 2.73661.99107-3.15179-2.85268 1.66518 2.25893-2.41071-3.29464.26339 3.08036-1.19196-3.08036-1.19196 3.29464.26339-2.25893-2.41071 2.85268 1.66518-.99107-3.15179 1.84821 2.73661zm-2.67857.13393c-2.8847-1.27995-6.26082.02095-7.54078 2.90565-1.27995 2.8847.02095 6.26082 2.90565 7.54078 1.47567.65476 3.15945.65476 4.63512 0-2.8847 2.06975-6.90108 1.40909-8.97082-1.47561s-1.4091-6.90108 1.47561-8.97082c2.23995-1.60714 5.25527-1.60714 7.49522 0z" fill="#fc0"/></svg>