<svg width="120" height="120" viewBox="0 0 120 120" fill="none" xmlns="http://www.w3.org/2000/svg">
<circle cx="60" cy="60" r="60" fill="#F2F2F4"/>
<path d="M39.9101 66C44.0901 66 46.9901 63.36 46.9901 59.34C46.9901 55.32 44.0901 52.66 39.9101 52.66H34.6501V66H39.9101ZM37.4901 55.16H39.9101C42.6501 55.16 44.0901 56.98 44.0901 59.34C44.0901 61.6 42.5501 63.5 39.9101 63.5H37.4901V55.16ZM59.8055 66L56.8055 60.92C58.2455 60.58 59.7255 59.32 59.7255 56.96C59.7255 54.48 58.0255 52.66 55.2455 52.66H49.0055V66H51.8455V61.22H53.9255L56.5455 66H59.8055ZM56.8255 56.94C56.8255 58.06 55.9655 58.78 54.8255 58.78H51.8455V55.1H54.8255C55.9655 55.1 56.8255 55.82 56.8255 56.94ZM74.2971 66L69.1571 52.66H65.5971L60.4371 66H63.5571L64.3971 63.7H70.3571L71.1971 66H74.2971ZM69.5771 61.24H65.1571L67.3771 55.12L69.5771 61.24ZM74.2054 59.34C74.2054 63.54 77.4054 66.26 81.3054 66.26C83.7254 66.26 85.6254 65.26 86.9854 63.74V58.64H80.6254V61.08H84.1854V62.7C83.6054 63.22 82.5254 63.72 81.3054 63.72C78.8854 63.72 77.1254 61.86 77.1254 59.34C77.1254 56.82 78.8854 54.96 81.3054 54.96C82.7054 54.96 83.8454 55.7 84.4654 56.64L86.8254 55.36C85.8054 53.78 84.0654 52.44 81.3054 52.44C77.4054 52.44 74.2054 55.12 74.2054 59.34Z" fill="#0A1540"/>
</svg>
