<svg width="120" height="120" viewBox="0 0 120 120" fill="none" xmlns="http://www.w3.org/2000/svg">
<circle cx="60" cy="60" r="60" fill="#F2F2F4"/>
<path d="M33.6034 66H30.7634V52.66H37.0034C39.9034 52.66 41.4834 54.62 41.4834 56.96C41.4834 59.28 39.8834 61.24 37.0034 61.24H33.6034V66ZM36.6034 58.74C37.7234 58.74 38.5834 58.06 38.5834 56.96C38.5834 55.84 37.7234 55.16 36.6034 55.16H33.6034V58.74H36.6034ZM54.219 66H50.999L50.159 63.74H44.439L43.599 66H40.379L45.519 52.66H49.079L54.219 66ZM49.379 61.24L47.299 55.5L45.219 61.24H49.379ZM60.8068 66.24C56.7468 66.24 54.7868 63.96 54.7868 60.66V52.66H57.6668V60.58C57.6668 62.44 58.7468 63.72 60.8068 63.72C62.8668 63.72 63.9268 62.44 63.9268 60.58V52.66H66.8268V60.66C66.8268 63.96 64.8668 66.24 60.8068 66.24ZM74.2343 66.24C71.6543 66.24 69.8143 65.38 68.5543 64.12L70.1143 61.9C71.0543 62.88 72.5143 63.72 74.3543 63.72C75.9343 63.72 76.6743 63.02 76.6743 62.24C76.6743 59.92 68.9943 61.54 68.9943 56.52C68.9943 54.3 70.9143 52.46 74.0543 52.46C76.1743 52.46 77.9343 53.1 79.2543 54.32L77.6743 56.44C76.5943 55.44 75.1543 54.98 73.7943 54.98C72.5943 54.98 71.9143 55.5 71.9143 56.3C71.9143 58.4 79.5743 56.98 79.5743 61.96C79.5743 64.4 77.8143 66.24 74.2343 66.24ZM90.9065 66H81.4665V52.66H90.9065V55.16H84.3065V57.96H90.7665V60.46H84.3065V63.5H90.9065V66Z" fill="#0A1540"/>
</svg>
