<svg width="41" height="40" viewBox="0 0 41 40" fill="none" xmlns="http://www.w3.org/2000/svg">
<rect x="1.5" y="1" width="38" height="38" rx="3" stroke="#FF644C" stroke-width="2"/>
<path d="M31.1 14.9C30.4 15.2 29.6 15.4 28.8 15.5C29.6 15 30.3 14.2 30.6 13.3C29.8 13.8 29 14.1 28 14.3C27.3 13.5 26.2 13 25.1 13C22.9 13 21.1 14.8 21.1 17C21.1 17.3 21.1 17.6 21.2 17.9C17.9 17.7 14.9 16.1 12.9 13.7C12.6 14.3 12.4 15 12.4 15.7C12.4 17.1 13.1 18.3 14.2 19C13.5 19 12.9 18.8 12.4 18.5C12.4 20.4 13.8 22.1 15.6 22.4C15.3 22.5 14.9 22.5 14.5 22.5C14.2 22.5 14 22.5 13.7 22.4C14.2 24 15.7 25.2 17.5 25.2C16.1 26.3 14.4 26.9 12.5 26.9C12.2 26.9 11.9 26.9 11.5 26.8C13.3 27.9 15.4 28.6 17.7 28.6C25.1 28.6 29.1 22.5 29.1 17.2V16.7C29.9 16.4 30.6 15.7 31.1 14.9Z" fill="#05051E"/>
</svg>
