<svg width="40" height="40" viewBox="0 0 40 40" fill="none" xmlns="http://www.w3.org/2000/svg">
<rect x="0.75" y="0.75" width="38.5" height="38.5" rx="7.25" stroke="#DD3039" stroke-width="1.5"/>
<g clip-path="url(#clip0_20613_25725)">
<path d="M18.8237 26.755C15.3464 27.0996 12.3443 25.5273 12.1183 23.2484C11.8922 20.9667 14.5292 18.8413 18.0036 18.4968C21.4809 18.1522 24.483 19.7245 24.7061 22.0033C24.935 24.285 22.2981 26.4133 18.8237 26.755ZM25.7754 19.183C25.4798 19.0933 25.2769 19.0353 25.4305 18.6473C25.7667 17.8047 25.8014 17.0779 25.4363 16.5567C24.7553 15.5838 22.8892 15.6359 20.7507 16.5307C20.7507 16.5307 20.0784 16.8231 20.2522 16.2932C20.5797 15.2363 20.5304 14.3532 20.0204 13.8407C18.8613 12.6795 15.7752 13.8841 13.1296 16.5278C11.1504 18.5054 10 20.6048 10 22.4203C10 25.8892 14.4538 28.0001 18.8092 28.0001C24.5206 28.0001 28.3196 24.6846 28.3196 22.0525C28.3225 20.46 26.9808 19.5565 25.7754 19.183Z" fill="black"/>
<path d="M29.5685 12.8331C28.1892 11.3042 26.155 10.7222 24.2772 11.1218C23.8426 11.2145 23.5673 11.643 23.66 12.0745C23.7527 12.5088 24.1787 12.7839 24.6134 12.6912C25.9492 12.4074 27.3952 12.8215 28.3746 13.9074C29.3541 14.9932 29.6207 16.4729 29.2005 17.7701C29.0643 18.1928 29.2961 18.6445 29.7192 18.7806C30.1423 18.9167 30.5943 18.6851 30.7305 18.2652V18.2623C31.3216 16.441 30.9478 14.3591 29.5685 12.8331Z" fill="black"/>
<path d="M27.4502 14.7438C26.778 13.9996 25.7869 13.7158 24.8741 13.9127C24.5003 13.9909 24.2627 14.3615 24.3409 14.7351C24.4221 15.1086 24.7901 15.346 25.161 15.265C25.6073 15.1694 26.0941 15.3084 26.4215 15.6703C26.749 16.0352 26.8388 16.5303 26.6968 16.9647C26.5809 17.3266 26.778 17.7175 27.1431 17.8362C27.5082 17.9521 27.8965 17.7552 28.0153 17.3903C28.3022 16.5014 28.1225 15.4879 27.4502 14.7438Z" fill="black"/>
<path d="M19.0149 22.6256C18.8932 22.8341 18.6237 22.9325 18.4151 22.8456C18.2064 22.7617 18.1427 22.5271 18.2615 22.3244C18.3832 22.1217 18.6411 22.0233 18.8468 22.1044C19.0555 22.1797 19.1308 22.4142 19.0149 22.6256ZM17.9051 24.0444C17.5689 24.5801 16.8474 24.8146 16.3055 24.5685C15.7723 24.3253 15.613 23.7027 15.9491 23.1786C16.2823 22.6574 16.9778 22.4258 17.5168 22.6516C18.0616 22.8862 18.2354 23.5029 17.9051 24.0444ZM19.1685 20.2512C17.5139 19.8198 15.6448 20.645 14.9262 22.1015C14.1931 23.5869 14.903 25.2374 16.5721 25.776C18.305 26.3348 20.345 25.4777 21.0549 23.8765C21.7562 22.3071 20.8811 20.6942 19.1685 20.2512Z" fill="black"/>
</g>
<defs>
<clipPath id="clip0_20613_25725">
<rect width="21" height="17" fill="white" transform="translate(10 11)"/>
</clipPath>
</defs>
</svg>
