<svg width="21" height="17" viewBox="0 0 21 17" fill="none" xmlns="http://www.w3.org/2000/svg">
<g clip-path="url(#clip0_17470_27604)">
<path d="M8.82365 15.755C5.34635 16.0996 2.34428 14.5273 2.11826 12.2484C1.89223 9.9667 4.52918 7.84134 8.00359 7.49676C11.4809 7.15219 14.483 8.72449 14.7061 11.0033C14.935 13.285 12.2981 15.4133 8.82365 15.755ZM15.7754 8.18302C15.4798 8.09325 15.2769 8.03534 15.4305 7.64733C15.7667 6.80472 15.8014 6.07792 15.4363 5.55672C14.7553 4.5838 12.8892 4.63592 10.7507 5.53066C10.7507 5.53066 10.0784 5.82311 10.2522 5.29322C10.5797 4.23633 10.5304 3.35318 10.0204 2.84066C8.86132 1.67953 5.77522 2.88409 3.12957 5.52776C1.15041 7.50545 0 9.60475 0 11.4203C0 14.8892 4.45384 17.0001 8.80916 17.0001C14.5206 17.0001 18.3196 13.6846 18.3196 11.0525C18.3225 9.45997 16.9808 8.55655 15.7754 8.18302Z" fill="#05051E"/>
<path d="M19.5685 1.83285C18.1892 0.303983 16.155 -0.27803 14.2772 0.121561C13.8426 0.21422 13.5673 0.642767 13.66 1.07421C13.7527 1.50855 14.1787 1.78363 14.6134 1.69097C15.9492 1.4072 17.3952 1.82127 18.3746 2.90712C19.3541 3.99296 19.6207 5.47261 19.2005 6.76983C19.0643 7.19259 19.2961 7.6443 19.7192 7.78039C20.1423 7.91649 20.5943 7.68484 20.7305 7.26498V7.26208C21.3216 5.44076 20.9478 3.35883 19.5685 1.83285Z" fill="#05051E"/>
<path d="M17.4502 3.744C16.778 2.99983 15.7869 2.71606 14.8741 2.91296C14.5003 2.99114 14.2627 3.36178 14.3409 3.73531C14.4221 4.10884 14.7901 4.34628 15.161 4.2652C15.6073 4.16965 16.0941 4.30864 16.4215 4.67059C16.749 5.03543 16.8388 5.53058 16.6968 5.96491C16.5809 6.32686 16.778 6.71777 17.1431 6.83649C17.5082 6.95231 17.8965 6.75541 18.0153 6.39057C18.3022 5.50162 18.1225 4.48816 17.4502 3.744Z" fill="#05051E"/>
<path d="M9.01492 11.6258C8.89321 11.8343 8.62372 11.9328 8.41509 11.8459C8.20645 11.7619 8.1427 11.5274 8.2615 11.3247C8.38321 11.122 8.64111 11.0235 8.84685 11.1046C9.05549 11.1799 9.13083 11.4144 9.01492 11.6258ZM7.90508 13.0447C7.56894 13.5803 6.8474 13.8149 6.30552 13.5688C5.77234 13.3255 5.61296 12.703 5.9491 12.1789C6.28234 11.6577 6.9778 11.426 7.51678 11.6519C8.06156 11.8864 8.23542 12.5032 7.90508 13.0447ZM9.1685 9.25144C7.51388 8.82 5.64484 9.64524 4.92619 11.1017C4.19306 12.5872 4.90301 14.2376 6.57212 14.7762C8.30497 15.3351 10.345 14.478 11.0549 12.8767C11.7562 11.3073 10.8811 9.69447 9.1685 9.25144Z" fill="#05051E"/>
</g>
<defs>
<clipPath id="clip0_17470_27604">
<rect width="21" height="17" fill="white"/>
</clipPath>
</defs>
</svg>
