<svg viewBox="0 0 22 22" xmlns="http://www.w3.org/2000/svg"><path d="m19.57143 1h-17.14732c-.78571 0-1.42411.64732-1.42411 1.44196v17.11607c0 .79464.63839 1.44196 1.42411 1.44196h17.14732c.78571 0 1.42857-.64732 1.42857-1.44196v-17.11607c0-.79464-.64286-1.44196-1.42857-1.44196zm-12.52679 17.14286h-2.96429v-9.54464h2.96875v9.54464zm-1.48214-10.84821c-.95089 0-1.71875-.77232-1.71875-1.71875s.76786-1.71875 1.71875-1.71875c.94643 0 1.71875.77232 1.71875 1.71875 0 .95089-.76786 1.71875-1.71875 1.71875zm12.59375 10.84821h-2.96429v-4.64286c0-1.10714-.02232-2.53125-1.54018-2.53125-1.54464 0-1.78125 1.20536-1.78125 2.45089v4.72321h-2.96429v-9.54464h2.84375v1.30357h.04018c.39732-.75 1.36607-1.54018 2.80804-1.54018 3 0 3.55803 1.97768 3.55803 4.54911v5.23214z" fill="#fff"/></svg>