<svg viewBox="0 0 22 22" xmlns="http://www.w3.org/2000/svg"><path d="m20.58208 6.16906c-.23002-.86609-.90773-1.54819-1.76821-1.77967-1.55969-.42063-7.81387-.42063-7.81387-.42063s-6.25414 0-7.81387.42063c-.86048.23152-1.53819.91359-1.76821 1.77967-.41792 1.56983-.41792 4.84515-.41792 4.84515s0 3.27531.41792 4.84515c.23002.86609.90773 1.51977 1.76821 1.75125 1.55973.42063 7.81387.42063 7.81387.42063s6.25414 0 7.81387-.42063c.86048-.23148 1.53819-.88517 1.76821-1.75126.41792-1.56983.41792-4.84515.41792-4.84515s0-3.27531-.41792-4.84515zm-11.62755 7.81889v-5.94748l5.22725 2.97381z" fill="#fff"/></svg>