<svg viewBox="0 0 22 22" xmlns="http://www.w3.org/2000/svg"><path d="m11.00234 5.61587c-2.97959 0-5.38293 2.40388-5.38293 5.38413s2.40335 5.38413 5.38293 5.38413 5.38293-2.40388 5.38293-5.38413-2.40335-5.38413-5.38293-5.38413zm0 8.88453c-1.92549 0-3.49961-1.56979-3.49961-3.50039s1.56944-3.50039 3.49961-3.50039 3.49961 1.56979 3.49961 3.50039-1.57412 3.50039-3.49961 3.50039zm6.85867-9.10476c0 .6982-.56219 1.25583-1.25555 1.25583-.69805 0-1.25555-.56231-1.25555-1.25583s.56219-1.25583 1.25555-1.25583 1.25555.56231 1.25555 1.25583zm3.5652 1.27457c-.07964-1.68225-.4638-3.17238-1.69593-4.40009-1.22744-1.22771-2.71723-1.61196-4.39911-1.69631-1.73341-.0984-6.92895-.0984-8.66235 0-1.67719.07966-3.16698.46391-4.39911 1.69162s-1.6116 2.71783-1.69592 4.40008c-.09838 1.73379-.09838 6.93049 0 8.66429.07964 1.68225.4638 3.17238 1.69593 4.40009s2.71723 1.61196 4.39911 1.69631c1.73341.0984 6.92895.0984 8.66235 0 1.68187-.07966 3.17167-.46391 4.39911-1.69631 1.22744-1.22771 1.6116-2.71784 1.69593-4.40009.09838-1.73379.09838-6.92581 0-8.6596zm-2.23938 10.51992c-.36542.91844-1.07284 1.62602-1.99576 1.99621-1.38204.54825-4.66146.42173-6.18873.42173s-4.81138.12183-6.18873-.42173c-.91824-.3655-1.62566-1.07308-1.99576-1.99621-.54813-1.38235-.42164-4.6625-.42164-6.19012s-.12181-4.81245.42164-6.19012c.36542-.91844 1.07284-1.62602 1.99576-1.99621 1.38204-.54825 4.66146-.42173 6.18873-.42173s4.81138-.12183 6.18873.42173c.91824.3655 1.62566 1.07308 1.99576 1.99621.54813 1.38235.42164 4.6625.42164 6.19012s.12649 4.81245-.42164 6.19012z" fill="#fff"/></svg>