<svg xmlns="http://www.w3.org/2000/svg" fill="none" viewBox="0 0 17 16" height="16" width="17">
<g clip-path="url(#clip0_12418_19712)">
<path fill="#00BEFA" d="M4.96965 2.66663H11.4574C11.6603 2.66663 11.8521 2.75903 11.9786 2.91767L14.496 6.07475C14.7058 6.33793 14.6866 6.71626 14.4511 6.95678L8.68336 12.8476C8.42222 13.1143 7.993 13.1146 7.73142 12.8484L1.94621 6.95919C1.70903 6.71775 1.6904 6.33689 1.9029 6.07345L4.45074 2.91474C4.5773 2.75784 4.76806 2.66663 4.96965 2.66663ZM5.87567 6.88754L8.20061 9.20864L10.5173 6.88816L11.2721 7.64179L8.20186 10.7171L5.12205 7.64241L5.87567 6.88754Z" clip-rule="evenodd" fill-rule="evenodd"></path>
</g>
<defs>
<clipPath id="clip0_12418_19712">
<rect transform="translate(1.53027 1.33337)" fill="white" height="13.3333" width="13.3333"></rect>
</clipPath>
</defs>
</svg>
