<svg xmlns="http://www.w3.org/2000/svg" fill="none" viewBox="0 0 17 16" height="16" width="17">
<g clip-path="url(#clip0_12418_5143)">
<path fill="#00BEFA" d="M10.8652 3.1245V2.45736C10.8652 2.08891 10.5666 1.79022 10.1981 1.79022H6.19527C5.82682 1.79022 5.52813 2.08891 5.52813 2.45736V3.1245H4.86099C4.49254 3.1245 4.19385 3.42319 4.19385 3.79164V13.1316C4.19385 13.5 4.49254 13.7987 4.86099 13.7987H11.5324C11.9008 13.7987 12.1995 13.5 12.1995 13.1316V3.79164C12.1995 3.42319 11.9008 3.1245 11.5324 3.1245H10.8652ZM8.87403 7.91904H10.1984C10.2164 7.91904 10.2272 7.93892 10.2146 7.95337L7.36427 11.6974C7.35167 11.7154 7.32468 11.7046 7.32648 11.6829L7.5838 8.846C7.5856 8.83335 7.57481 8.82251 7.56221 8.82251H6.2378C6.2216 8.82251 6.2108 8.80263 6.2216 8.78818L9.07377 5.0442C9.08636 5.02613 9.11336 5.03697 9.11156 5.05865L8.85243 7.89555C8.85243 7.9082 8.86143 7.91904 8.87403 7.91904Z" clip-rule="evenodd" fill-rule="evenodd"></path>
</g>
<defs>
<clipPath id="clip0_12418_5143">
<rect transform="translate(1.52539 1.32861)" fill="white" height="13.3428" width="13.3428"></rect>
</clipPath>
</defs>
</svg>
