<svg xmlns="http://www.w3.org/2000/svg" fill="none" viewBox="0 0 17 16" height="16" width="17">
<g clip-path="url(#clip0_12418_19716)">
<path fill="#00BEFA" d="M9.07889 2.00906C8.65796 1.38223 7.73585 1.38223 7.31492 2.00906C7.01874 2.45013 6.44228 2.60459 5.96525 2.37071C5.2873 2.03832 4.48873 2.49937 4.43762 3.25269C4.40165 3.78275 3.97965 4.20475 3.44959 4.24072C2.69627 4.29183 2.23522 5.0904 2.56761 5.76835C2.80149 6.24538 2.64702 6.82184 2.20596 7.11802C1.57913 7.53895 1.57913 8.46106 2.20596 8.88199C2.64702 9.17817 2.80149 9.75463 2.56761 10.2317C2.23522 10.9096 2.69627 11.7082 3.44959 11.7593C3.97965 11.7953 4.40165 12.2173 4.43762 12.7473C4.48873 13.5006 5.2873 13.9617 5.96525 13.6293C6.44228 13.3954 7.01874 13.5499 7.31492 13.9909C7.73585 14.6178 8.65796 14.6178 9.07889 13.9909C9.37507 13.5499 9.95153 13.3954 10.4286 13.6293C11.1065 13.9617 11.9051 13.5006 11.9562 12.7473C11.9922 12.2173 12.4142 11.7953 12.9442 11.7593C13.6975 11.7082 14.1586 10.9096 13.8262 10.2317C13.5923 9.75463 13.7468 9.17817 14.1878 8.88199C14.8147 8.46106 14.8147 7.53895 14.1878 7.11802C13.7468 6.82184 13.5923 6.24538 13.8262 5.76835C14.1586 5.0904 13.6975 4.29183 12.9442 4.24072C12.4142 4.20475 11.9922 3.78275 11.9562 3.25269C11.9051 2.49937 11.1065 2.03832 10.4286 2.37071C9.95153 2.60459 9.37507 2.45013 9.07889 2.00906ZM7.79461 10.3668L11.5841 6.3668L10.8097 5.63321L7.40743 9.22452L5.58408 7.29987L4.80973 8.03347L7.02026 10.3668C7.12098 10.4731 7.26098 10.5333 7.40743 10.5333C7.55388 10.5333 7.69389 10.4731 7.79461 10.3668Z" clip-rule="evenodd" fill-rule="evenodd"></path>
</g>
<defs>
<clipPath id="clip0_12418_19716">
<rect transform="translate(1.53027 1.33337)" fill="white" height="13.3333" width="13.3333"></rect>
</clipPath>
</defs>
</svg>
