<svg xmlns="http://www.w3.org/2000/svg" fill="none" viewBox="0 0 17 16" height="16" width="17">
<g clip-path="url(#clip0_12418_19720)">
<path fill="#00BEFA" d="M10.1877 7.55287C10.1877 8.28759 9.95174 8.68444 9.51198 8.68444C9.07758 8.68444 8.84162 8.28223 8.84162 7.54751C8.84162 6.81816 9.07758 6.41594 9.51198 6.41594C9.94637 6.41594 10.1877 6.82352 10.1877 7.55287Z"></path>
<path fill="#00BEFA" d="M8.19678 1.6958L2.89526 2.69638V9.24287C3.00103 9.44242 3.10439 9.64641 3.20839 9.85167C3.68712 10.7965 4.17937 11.768 4.98197 12.4558C6.07249 13.3903 8.19678 14.3042 8.19678 14.3042C8.19678 14.3042 10.1531 13.3311 11.2087 12.4558C12.1286 11.693 12.7157 10.6421 13.2924 9.60987C13.361 9.4871 13.4295 9.3646 13.4983 9.24287V2.69638L8.19678 1.6958ZM7.57715 8.19106C7.57715 7.63332 7.23392 7.20965 6.70836 7.0863L7.44308 5.91183V5.76703H5.16921V6.45348H6.39195L5.74304 7.52606V7.67086H6.26324C6.59038 7.67086 6.80489 7.86392 6.80489 8.16424C6.80489 8.46993 6.6011 8.68444 6.31687 8.68444C6.04336 8.68444 5.86102 8.49674 5.8503 8.21251H5.0834C5.10486 8.91505 5.60897 9.39771 6.31687 9.39771C7.04086 9.39771 7.57715 8.88823 7.57715 8.19106ZM8.06936 7.54751C8.06936 8.68444 8.6271 9.39771 9.51198 9.39771C10.4022 9.39771 10.96 8.68444 10.96 7.54751C10.96 6.41058 10.4076 5.70268 9.51198 5.70268C8.62174 5.70268 8.06936 6.41058 8.06936 7.54751Z" clip-rule="evenodd" fill-rule="evenodd"></path>
</g>
<defs>
<clipPath id="clip0_12418_19720">
<rect transform="translate(1.53027 1.33337)" fill="white" height="13.3333" width="13.3333"></rect>
</clipPath>
</defs>
</svg>
