<svg xmlns="http://www.w3.org/2000/svg" fill="none" viewBox="0 0 17 16" height="16" width="17">
<g clip-path="url(#clip0_12418_5150)">
<path fill="#00BEFA" d="M8.20143 2.4947C6.71138 2.4947 5.46006 3.51685 5.11042 4.89823V7.00373C4.47538 7.00373 3.96058 6.48893 3.96058 5.85389C3.96058 5.47861 4.14035 5.14533 4.41848 4.93546C4.76655 3.16397 6.32793 1.82764 8.20143 1.82764C10.0749 1.82764 11.6362 3.1639 11.9844 4.93531C12.2626 5.14518 12.4424 5.47853 12.4424 5.85389C12.4424 6.48893 11.9276 7.00373 11.2926 7.00373V4.89887C10.9432 3.51717 9.69171 2.4947 8.20143 2.4947ZM10.7561 5.68292C10.7561 7.09388 9.61233 8.23769 8.20137 8.23769C6.79041 8.23769 5.6466 7.09388 5.6466 5.68292C5.6466 4.27196 6.79041 3.12815 8.20137 3.12815C9.61233 3.12815 10.7561 4.27196 10.7561 5.68292ZM6.14842 8.2957C4.68995 8.79914 3.47454 9.82404 2.72508 11.1475C2.30304 11.8928 2.63034 12.8144 3.40108 13.1879C4.77501 13.8537 6.42586 14.2419 8.20154 14.2419C9.97702 14.2419 11.6277 13.8538 13.0015 13.1881C13.7723 12.8146 14.0997 11.8931 13.6777 11.1478C12.9282 9.82418 11.7128 8.79919 10.2542 8.29572C9.6891 8.74036 8.97619 9.00561 8.20133 9.00561C7.42646 9.00561 6.71354 8.74036 6.14842 8.2957Z" clip-rule="evenodd" fill-rule="evenodd"></path>
</g>
<defs>
<clipPath id="clip0_12418_5150">
<rect transform="translate(1.53076 1.33411)" fill="white" height="13.3412" width="13.3412"></rect>
</clipPath>
</defs>
</svg>
