<svg width="120" height="120" viewBox="0 0 120 120" fill="none" xmlns="http://www.w3.org/2000/svg">
<circle cx="60" cy="60" r="60" fill="#F2F2F4"/>
<path d="M47.6448 66V52.66H44.8048V61.3L38.6248 52.66H35.7048V66H38.5448V57.04L44.9048 66H47.6448ZM59.7151 66V63.54H53.1151V60.44H59.5751V58H53.1151V55.1H59.7151V52.66H50.2751V66H59.7151ZM74.0352 66L69.1952 59.14L73.7352 52.66H70.3152L67.2952 57.22L64.2352 52.66H60.8552L65.3952 59.16L60.5552 66H63.9352L67.2952 61.12L70.6352 66H74.0352ZM81.2346 66V55.16H85.1146V52.66H74.4746V55.16H78.3746V66H81.2346Z" fill="#0A1540"/>
</svg>
