<svg width="120" height="120" viewBox="0 0 120 120" fill="none" xmlns="http://www.w3.org/2000/svg">
<circle cx="60" cy="60" r="60" fill="#F2F2F4"/>
<path d="M40.703 66V61.22H44.103C46.983 61.22 48.583 59.28 48.583 56.96C48.583 54.62 47.003 52.66 44.103 52.66H37.863V66H40.703ZM45.683 56.94C45.683 58.06 44.843 58.78 43.723 58.78H40.703V55.1H43.723C44.843 55.1 45.683 55.84 45.683 56.94ZM58.8234 66V63.5H53.1834V52.66H50.3434V66H58.8234ZM73.2522 66L68.1122 52.66H64.5522L59.3922 66H62.5122L63.3522 63.7H69.3122L70.1522 66H73.2522ZM68.5322 61.24H64.1122L66.3322 55.12L68.5322 61.24ZM79.6964 66V60.54L84.7964 52.66H81.5564L78.2764 58.02L74.9564 52.66H71.7164L76.8564 60.54V66H79.6964Z" fill="#0A1540"/>
</svg>
