<svg width="16" height="14" viewBox="0 0 16 14" fill="none" xmlns="http://www.w3.org/2000/svg">
<path fill-rule="evenodd" clip-rule="evenodd" d="M0.633 1C0.633 0.814348 0.70675 0.636301 0.838025 0.505025C0.969301 0.37375 1.14735 0.3 1.333 0.3H5.333C6.226 0.3 7.082 0.655 7.714 1.286C7.8162 1.38809 7.91173 1.49665 8 1.611C8.08827 1.49665 8.1838 1.38809 8.286 1.286C8.917 0.655 9.774 0.3 10.667 0.3H14.667C14.8527 0.3 15.0307 0.37375 15.162 0.505025C15.2932 0.636301 15.367 0.814348 15.367 1V11C15.367 11.1857 15.2932 11.3637 15.162 11.495C15.0307 11.6263 14.8527 11.7 14.667 11.7H9.999C9.65422 11.7 9.32356 11.837 9.07976 12.0808C8.83596 12.3246 8.699 12.6552 8.699 13C8.699 13.1857 8.62525 13.3637 8.49397 13.495C8.3627 13.6263 8.18465 13.7 7.999 13.7C7.81335 13.7 7.6353 13.6263 7.50403 13.495C7.37275 13.3637 7.299 13.1857 7.299 13C7.299 12.6552 7.16204 12.3246 6.91824 12.0808C6.67444 11.837 6.34378 11.7 5.999 11.7H1.333C1.14735 11.7 0.969301 11.6263 0.838025 11.495C0.70675 11.3637 0.633 11.1857 0.633 11V1ZM7.3 10.634C6.90169 10.415 6.45454 10.3001 6 10.3H2.033V1.7H5.333C5.855 1.7 6.355 1.907 6.724 2.276C7.093 2.645 7.3 3.145 7.3 3.667V10.634ZM8.7 10.634C9.09831 10.415 9.54546 10.3001 10 10.3H13.967V1.7H10.667C10.146 1.7 9.645 1.907 9.276 2.276C8.907 2.645 8.7 3.145 8.7 3.667V10.634ZM3.3 4.334C3.3 4.14835 3.37375 3.9703 3.50503 3.83903C3.6363 3.70775 3.81435 3.634 4 3.634H5.333C5.51865 3.634 5.6967 3.70775 5.82797 3.83903C5.95925 3.9703 6.033 4.14835 6.033 4.334C6.033 4.51965 5.95925 4.6977 5.82797 4.82897C5.6967 4.96025 5.51865 5.034 5.333 5.034H3.999C3.81335 5.034 3.6353 4.96025 3.50403 4.82897C3.37275 4.6977 3.3 4.51965 3.3 4.334ZM9.967 4.334C9.967 4.14835 10.0408 3.9703 10.172 3.83903C10.3033 3.70775 10.4813 3.634 10.667 3.634H12C12.1857 3.634 12.3637 3.70775 12.495 3.83903C12.6262 3.9703 12.7 4.14835 12.7 4.334C12.7 4.51965 12.6262 4.6977 12.495 4.82897C12.3637 4.96025 12.1857 5.034 12 5.034H10.667C10.4813 5.034 10.3033 4.96025 10.172 4.82897C10.0408 4.6977 9.967 4.51965 9.967 4.334ZM3.299 7C3.299 6.81435 3.37275 6.6363 3.50403 6.50503C3.6353 6.37375 3.81335 6.3 3.999 6.3H5.332C5.51765 6.3 5.6957 6.37375 5.82697 6.50503C5.95825 6.6363 6.032 6.81435 6.032 7C6.032 7.18565 5.95825 7.3637 5.82697 7.49497C5.6957 7.62625 5.51765 7.7 5.332 7.7H3.999C3.81335 7.7 3.6353 7.62625 3.50403 7.49497C3.37275 7.3637 3.299 7.18565 3.299 7ZM9.966 7C9.966 6.81435 10.0397 6.6363 10.171 6.50503C10.3023 6.37375 10.4803 6.3 10.666 6.3H12C12.0919 6.3 12.183 6.31811 12.2679 6.35328C12.3528 6.38846 12.43 6.44002 12.495 6.50503C12.56 6.57003 12.6115 6.64719 12.6467 6.73212C12.6819 6.81705 12.7 6.90807 12.7 7C12.7 7.09192 12.6819 7.18295 12.6467 7.26788C12.6115 7.35281 12.56 7.42997 12.495 7.49497C12.43 7.55998 12.3528 7.61154 12.2679 7.64672C12.183 7.68189 12.0919 7.7 12 7.7H10.667C10.4813 7.7 10.3033 7.62625 10.172 7.49497C10.0408 7.3637 9.967 7.18565 9.967 7H9.966Z" fill="#CF163E"/>
</svg>
