<svg width="14" height="16" viewBox="0 0 14 16" fill="none" xmlns="http://www.w3.org/2000/svg">
<g id="Layer_1" clip-path="url(#clip0_3181_10143)">
<path id="Vector" d="M13.1337 2.75617C12.7537 2.37617 12.2337 2.15617 11.6937 2.15617H10.3937V1.52617C10.3937 1.13617 10.0837 0.826172 9.69373 0.826172C9.30373 0.826172 8.99373 1.13617 8.99373 1.52617V2.15617H5.06373V1.52617C5.06373 1.13617 4.75373 0.826172 4.36373 0.826172C3.97373 0.826172 3.66373 1.13617 3.66373 1.52617V2.15617H2.36373C1.82373 2.15617 1.30373 2.36617 0.92373 2.75617C0.54373 3.13617 0.32373 3.65617 0.32373 4.19617V13.5262C0.32373 14.0662 0.53373 14.5862 0.92373 14.9662C1.30373 15.3462 1.82373 15.5662 2.36373 15.5662H7.69373C8.08373 15.5662 8.39373 15.2562 8.39373 14.8662C8.39373 14.4762 8.08373 14.1662 7.69373 14.1662H2.36373C2.19373 14.1662 2.03373 14.0962 1.91373 13.9762C1.79373 13.8562 1.72373 13.6962 1.72373 13.5262V4.19617C1.72373 4.02617 1.79373 3.86617 1.91373 3.74617C2.03373 3.62617 2.19373 3.55617 2.36373 3.55617H3.66373V4.18617C3.66373 4.57617 3.97373 4.88617 4.36373 4.88617C4.75373 4.88617 5.06373 4.57617 5.06373 4.18617V3.55617H8.99373V4.18617C8.99373 4.57617 9.30373 4.88617 9.69373 4.88617C10.0837 4.88617 10.3937 4.57617 10.3937 4.18617V3.55617H11.6937C11.8637 3.55617 12.0237 3.62617 12.1437 3.74617C12.2637 3.86617 12.3337 4.02617 12.3337 4.19617V8.86617C12.3337 9.25617 12.6437 9.56617 13.0337 9.56617C13.4237 9.56617 13.7337 9.25617 13.7337 8.86617V4.19617C13.7337 3.65617 13.5237 3.13617 13.1337 2.75617Z" fill="#CF163E"/>
<path id="Vector_2" d="M5.40355 12.4571C5.26355 12.4571 5.12355 12.4171 5.01355 12.3371C4.85355 12.2371 4.73355 12.0671 4.69355 11.8771C4.65355 11.6871 4.69355 11.4871 4.79355 11.3271L7.03355 7.8271L6.66355 7.0571C6.19355 7.0571 5.54355 7.0571 5.47355 7.0671C5.37355 7.0671 5.21355 7.0371 5.08355 6.9471C4.86355 6.8071 4.74355 6.5771 4.76355 6.3071C4.78355 5.9771 4.98355 5.7271 5.29355 5.6371C5.35355 5.6171 5.42355 5.6071 5.49355 5.6071H5.51355H5.57355L7.11355 5.5871C7.37355 5.5571 7.66355 5.7471 7.78355 6.0071L9.93355 10.4971L10.3736 10.1871C10.7036 9.9571 11.1636 10.0371 11.3936 10.3671C11.6236 10.6971 11.5436 11.1571 11.2136 11.3871L10.0736 12.1871C9.89355 12.3071 9.67355 12.3471 9.46355 12.2971C9.25355 12.2471 9.08355 12.0971 8.99355 11.9071L7.78355 9.3871L6.03355 12.1171C5.92355 12.2771 5.76355 12.3971 5.57355 12.4371C5.52355 12.4471 5.46355 12.4571 5.41355 12.4571H5.40355Z" fill="#CF163E"/>
</g>
<defs>
<clipPath id="clip0_3181_10143">
<rect width="13.4" height="14.73" fill="white" transform="translate(0.333496 0.826172)"/>
</clipPath>
</defs>
</svg>
