<svg width="24" height="24" viewBox="0 0 24 24" fill="none" xmlns="http://www.w3.org/2000/svg">
<path fill-rule="evenodd" clip-rule="evenodd" d="M16 10.5C16 13.5376 13.5376 16 10.5 16C7.46243 16 5 13.5376 5 10.5C5 7.46243 7.46243 5 10.5 5C13.5376 5 16 7.46243 16 10.5ZM15.1152 16.4123C13.8426 17.4071 12.2405 18 10.5 18C6.35786 18 3 14.6421 3 10.5C3 6.35786 6.35786 3 10.5 3C14.6421 3 18 6.35786 18 10.5C18 12.2406 17.4071 13.8426 16.4122 15.1153L20.7187 19.4218C21.0769 19.7799 21.0769 20.3606 20.7187 20.7188C20.3605 21.077 19.7798 21.077 19.4217 20.7188L15.1152 16.4123Z" fill="#B2B2C1"/>
</svg>
