<svg width="24" height="24" viewBox="0 0 24 24" fill="none" xmlns="http://www.w3.org/2000/svg">
<g clip-path="url(#clip0_2040_192308)">
<circle cx="12" cy="12" r="8" fill="#D40000"/>
<path d="M12.0002 16.9689C9.2575 16.9689 7.03158 14.743 7.03158 12.0003C7.03158 9.25766 9.2575 7.03174 12.0002 7.03174C14.7428 7.03174 16.9687 9.25767 16.9687 12.0003" stroke="white" stroke-linecap="round" stroke-linejoin="round"/>
<path d="M18.1217 18.0427L18.1217 18.0427L18.1235 18.0422L19.1062 17.7817C19.1063 17.7817 19.1063 17.7817 19.1064 17.7817C20.416 17.4365 20.5251 15.6113 19.2619 15.1201L19.2602 15.1195L15.8182 13.7952C15.8177 13.795 15.8173 13.7948 15.8168 13.7946C14.7552 13.3808 13.6982 14.3371 13.9532 15.4274L13.9532 15.4274L13.9539 15.43L14.8123 19.0136L14.8125 19.0141C15.129 20.3293 16.9463 20.4855 17.4653 19.2182C17.4654 19.2179 17.4655 19.2176 17.4656 19.2173L17.8534 18.2787L17.8534 18.2787L17.8553 18.274C17.9009 18.1604 17.9985 18.0749 18.1217 18.0427Z" fill="#D40000" stroke="white" stroke-linecap="round" stroke-linejoin="round"/>
</g>
<defs>
<clipPath id="clip0_2040_192308">
<rect width="20" height="20" fill="white" transform="translate(2 2)"/>
</clipPath>
</defs>
</svg>
