<svg width="17" height="17" viewBox="0 0 17 17" fill="none" xmlns="http://www.w3.org/2000/svg">
<rect x="0.26416" y="0.0214844" width="16" height="16" rx="4" fill="white"/>
<path d="M11.7488 8.43236C12.3784 6.83351 11.8633 6.041 10.7154 6.03423C8.8719 6.02334 7.02413 7.98536 5.3757 8.55941C3.87152 9.08323 2.65792 8.87272 2.31966 7.71266C1.36322 4.4325 11.2729 -1.15186 13.8903 4.32557C15.8707 8.57562 9.71379 13.944 5.93305 14.0209C2.91957 14.0822 4.80254 9.48664 6.94082 9.49377C7.43904 9.49543 7.93994 9.69065 7.97312 10.1863C8.00607 10.6779 7.40734 11.0902 6.93813 11.5343C6.14307 12.2867 5.91337 12.8349 6.12742 13.0957C6.34148 13.3565 7.0089 13.306 8.14269 12.5443C9.9637 11.3209 11.1723 9.90066 11.7487 8.43236H11.7488Z" fill="black"/>
</svg>
