<svg width="26" height="18" viewBox="0 0 26 18" fill="none" xmlns="http://www.w3.org/2000/svg">
<path fill-rule="evenodd" clip-rule="evenodd" d="M12.9749 15.563C12.4053 15.1442 11.8943 14.6499 11.4336 14.097C10.3529 12.7818 9.69114 11.1818 9.5236 9.50645C9.5236 9.44782 9.56549 9.39755 9.61575 9.39755H18.1016C18.5288 9.39755 18.8807 9.0541 18.8807 8.6185C18.8807 4.67295 15.9822 1.3808 14.9184 0.559857C14.8597 0.509595 14.8765 0.417449 14.9435 0.392318C15.8231 0.124255 16.7613 -0.00139969 17.733 0.0321082C22.1058 0.199647 25.6576 3.78499 25.7917 8.15776C25.9425 12.9159 22.1226 16.8195 17.3979 16.8195C15.7728 16.8195 14.2566 16.3588 12.9749 15.563Z" fill="#00D2D2"/>
<path fill-rule="evenodd" clip-rule="evenodd" d="M0.0157492 8.26666C0.200042 3.81012 3.82727 0.182893 8.28381 0.00697726C9.96758 -0.0600384 11.5508 0.35881 12.8995 1.12949C12.9163 1.13787 12.9247 1.14624 12.9414 1.15462C14.265 1.91692 15.3707 3.02268 16.133 4.363C16.7278 5.41012 17.0964 6.55776 17.2137 7.73892C17.2137 7.79755 17.1718 7.84782 17.1215 7.84782H8.63564C8.2168 7.84782 7.85659 8.18289 7.85659 8.61012C7.85659 13.0332 11.1152 16.1159 11.6514 16.5515C11.71 16.5934 11.6932 16.6855 11.6262 16.7106C10.6964 17.0541 9.68277 17.2468 8.62727 17.2468C3.7435 17.2468 -0.193675 13.1839 0.00737201 8.25829L0.0157492 8.26666Z" fill="#00D2D2"/>
</svg>
