<svg xmlns="http://www.w3.org/2000/svg" fill="none" viewBox="0 0 1288 2199" height="2199" width="1288">
<path fill="#00AAFF" d="M839.465 204.3L221.96 1450.43H654.395V2189.51C654.395 2198.59 666.491 2201.62 670.725 2193.14L1287.02 946.405H855.19V207.935C855.19 198.848 843.699 195.819 839.465 204.3Z"></path>
<path fill="#0096FF" d="M751.519 60.7415L134.014 1306.87H566.449V2045.95C566.449 2055.03 578.545 2058.06 582.778 2049.58L1199.07 802.846H767.244V64.3763C767.244 55.2893 755.752 52.2603 751.519 60.7415Z"></path>
<path fill="#0082FF" d="M618.305 5.12818L0.799805 1251.26H433.235V1990.33C433.235 1999.42 445.331 2002.45 449.564 1993.97L1065.86 747.233H634.03V8.76298C634.03 -0.324013 622.538 -3.35301 618.305 5.12818Z"></path>
</svg>
