<svg xmlns="http://www.w3.org/2000/svg" fill="none" viewBox="0 0 1287 2199" height="2199" width="1287">
<path fill="#00AAFF" d="M447.555 1994.72L1065.06 748.586H632.625V9.5101C632.625 0.423109 620.529 -2.60606 616.295 5.87513L-5.54323e-06 1252.61H431.83V1991.08C431.83 2000.17 443.321 2003.2 447.555 1994.72Z"></path>
<path fill="#0096FF" d="M535.502 2138.27L1153.01 892.144H720.572V153.069C720.572 143.982 708.476 140.953 704.242 149.434L87.9468 1396.17H519.777V2134.64C519.777 2143.73 531.268 2146.76 535.502 2138.27Z"></path>
<path fill="#0082FF" d="M668.715 2193.89L1286.22 947.757H853.785V208.682C853.785 199.595 841.689 196.566 837.455 205.047L221.16 1451.78H652.99V2190.25C652.99 2199.34 664.481 2202.37 668.715 2193.89Z"></path>
</svg>
