<svg xmlns="http://www.w3.org/2000/svg" fill="none" viewBox="0 0 90 34" height="34" width="90">
<path fill="#00BEFA" d="M67.7646 32.545L68.9062 25.8943C68.9581 25.6003 68.7592 25.4014 68.4565 25.4014H61.8578C61.5637 25.4014 61.3648 25.6003 61.3129 25.8943L60.1713 32.545C60.1194 32.839 60.3183 33.0379 60.621 33.0379H67.2198C67.5138 33.0379 67.7128 32.839 67.7646 32.545Z"></path>
<path fill="#00BEFA" d="M84.3625 32.5611L89.9926 0.795353C90.0445 0.509954 89.8456 0.311035 89.5602 0.311035H83.0652C82.7798 0.311035 82.4858 0.40617 82.2004 0.596436L75.7054 4.73904C75.4632 4.92931 75.3681 5.12822 75.3162 5.41362L74.1573 12.2027C74.0622 12.5918 74.3476 12.687 74.6416 12.4881L80.6609 8.78652H80.7561L76.5183 32.5611C76.4664 32.8465 76.6653 33.0454 76.9507 33.0454H83.8349C84.1203 33.0454 84.3192 32.8552 84.3625 32.5611Z"></path>
<path fill="#00BEFA" d="M30.7841 0.407284C30.7409 0.355393 30.6544 0.320801 30.5593 0.320801H24.047C23.7702 0.320801 23.701 0.562959 23.6837 0.66674L20.259 19.9701H20.1379L13.5305 0.692685C13.4267 0.441879 13.2451 0.320801 12.9683 0.320801H6.0582C5.78145 0.320801 5.71227 0.562959 5.69497 0.66674L0.00428698 32.7698C-0.00436148 32.8217 -0.00435883 32.9082 0.0475319 32.9687C0.0907741 33.0206 0.177254 33.0552 0.272387 33.0552H6.79331C6.94899 33.0552 7.07007 32.9255 7.10466 32.7179L10.5381 13.4059H10.7024L17.3098 32.692C17.379 32.9428 17.5434 33.0552 17.8287 33.0552H24.7821C25.0502 33.0552 25.1194 32.839 25.1453 32.7179L30.836 0.614852C30.8447 0.554312 30.8447 0.476473 30.7928 0.415934L30.7841 0.407284Z"></path>
<path fill="#00BEFA" d="M48.0722 0C42.3815 0 37.8843 2.27455 35.3244 7.53281C33.5687 11.0873 32.1504 20.0904 32.1504 23.2211C32.1504 29.9064 36.4141 33.3657 42.8572 33.3657C48.496 33.3657 53.0018 31.0912 55.605 25.8329C57.3606 22.2784 58.779 13.2754 58.779 10.1446C58.779 3.45938 54.5153 0 48.0722 0ZM49.1965 2.19671C49.257 2.11887 49.3695 2.17076 49.3608 2.2659C49.3003 2.25725 49.2397 2.23995 49.1792 2.21401V2.19671H49.1965ZM41.7242 31.169C41.6637 31.2469 41.5513 31.195 41.5599 31.0998V31.022C41.6464 31.0307 41.7329 31.0393 41.8194 31.0393L41.7242 31.1604V31.169ZM43.0215 30.3388L43.7653 19.7963H38.0486L47.4841 3.02696L46.7836 13.0592H52.8807L43.0301 30.3388H43.0215Z"></path>
</svg>
