<svg xmlns="http://www.w3.org/2000/svg" width="42" height="54" viewBox="0 0 42 54">
  <path fill="none" d="M0 0h42v54H0z"/>
  <g>
    <path fill="none" d="M0 0h42v54H0z"/>
    <path d="M25.56 11.54V3.87h2.8v7.67M14.93 11.54V3.87h2.8v7.67" fill="none" stroke="#000" stroke-miterlimit="10"/>
    <path d="M10.94 19.23v-7.66h20.57v7.66" fill="none" stroke="#000" stroke-miterlimit="10"/>
    <rect width="30.64" height="30.64" rx=".71" transform="translate(5.9 19.23)" fill="none" stroke="#000" stroke-miterlimit="10"/>
    <path d="M6.8-5.656,5.43,0H4.406L3.492-4.359,2.594,0H1.57L.2-5.656h.969l.922,4.563L3-5.648H4.008L4.93-1.094l.914-4.562Z" transform="translate(17.5 43.18)"/>
    <path d="M3.773-.812V0H.258V-.82L2.148-3.008a4.912,4.912,0,0,0,.508-.676.966.966,0,0,0,.141-.48.675.675,0,0,0-.234-.543.958.958,0,0,0-.641-.2,2.113,2.113,0,0,0-.656.109,2.605,2.605,0,0,0-.641.313L.2-5.2A2.906,2.906,0,0,1,1.039-5.6,3.167,3.167,0,0,1,2-5.758a2.061,2.061,0,0,1,.91.191,1.44,1.44,0,0,1,.609.535,1.472,1.472,0,0,1,.215.8,1.756,1.756,0,0,1-.2.8,4.82,4.82,0,0,1-.687.945L1.352-.812ZM5.113.1a.6.6,0,0,1-.437-.152A.557.557,0,0,1,4.52-.469a.567.567,0,0,1,.156-.426.6.6,0,0,1,.438-.152.6.6,0,0,1,.438.152.557.557,0,0,1,.156.418.567.567,0,0,1-.156.426A.6.6,0,0,1,5.113.1ZM7.5-5.656V0h-.93V-4.7l-1.234.43-.266-.766L6.7-5.656Zm2.625,2.945h2.523v.734H10.128Zm8.43.8v.8h-.687V0h-.906V-1.117H14.5v-.8l2.063-3.742h1.3v3.742Zm-1.594,0V-4.82l-1.5,2.906ZM19.584.1a.6.6,0,0,1-.437-.152.557.557,0,0,1-.156-.418.567.567,0,0,1,.156-.426.6.6,0,0,1,.438-.152.6.6,0,0,1,.438.152.557.557,0,0,1,.156.418.567.567,0,0,1-.156.426A.6.6,0,0,1,19.584.1Zm3.043-3.75a1.887,1.887,0,0,1,.941.227,1.576,1.576,0,0,1,.625.641,1.981,1.981,0,0,1,.223.953,2.011,2.011,0,0,1-.25,1.016,1.708,1.708,0,0,1-.7.676A2.234,2.234,0,0,1,22.408.1a3.176,3.176,0,0,1-.895-.129,2.349,2.349,0,0,1-.73-.34l.344-.758a3.118,3.118,0,0,0,.656.277,2.248,2.248,0,0,0,.625.1,1.042,1.042,0,0,0,.777-.281,1.054,1.054,0,0,0,.277-.773,1.017,1.017,0,0,0-.254-.738.95.95,0,0,0-.715-.262,1.866,1.866,0,0,0-.453.059,1.881,1.881,0,0,0-.437.168l-.57-.3.148-2.773h2.977v.813H22.01l-.1,1.313A2.259,2.259,0,0,1,22.627-3.648Z" transform="translate(8.41 33.92)"/>
  </g>
</svg>
