<?xml version="1.0" encoding="utf-8"?>
<svg xmlns="http://www.w3.org/2000/svg" class="icon" width="36" height="36" viewBox="0 0 36 36">
<g transform="translate(3556 9165)"><g transform="translate(-3556 -9165)"><rect width="36" height="36" fill="rgba(255,255,255,0)"></rect><path d="M9.962,31.343a16.368,16.368,0,1,1,6.35,1.282A16.275,16.275,0,0,1,9.962,31.343Zm.73-28.333a14.488,14.488,0,1,0,5.62-1.134A14.385,14.385,0,0,0,10.692,3.01Zm.184,21.243,0-.064V8.438a1.178,1.178,0,0,1,.331-.84,1.08,1.08,0,0,1,.772-.32,1.207,1.207,0,0,1,.6.168l.056.034,12.12,7.843a1.177,1.177,0,0,1,.558.96,1.163,1.163,0,0,1-.493.978l-.064.045-12.12,7.842a1.214,1.214,0,0,1-.658.2A1.112,1.112,0,0,1,10.876,24.252Zm1.873-1.414,10.087-6.526L12.749,9.785Z" transform="translate(1.69 1.688)"></path></g></g>
</svg>