<svg xmlns="http://www.w3.org/2000/svg" width="42" height="54" viewBox="0 0 42 54">
  <path fill="none" d="M0 0h42v54H0z"/>
  <g>
    <path fill="none" d="M0 0h42v54H0z"/>
    <path d="M25.56 11.54V3.87h2.8v7.67M14.93 11.54V3.87h2.8v7.67" fill="none" stroke="#000" stroke-miterlimit="10"/>
    <path d="M10.94 19.23v-7.66h20.57v7.66" fill="none" stroke="#000" stroke-miterlimit="10"/>
    <rect width="30.64" height="30.64" rx=".71" transform="translate(5.9 19.23)" fill="none" stroke="#000" stroke-miterlimit="10"/>
    <path d="M6.8-5.656,5.43,0H4.406L3.492-4.359,2.594,0H1.57L.2-5.656h.969l.922,4.563L3-5.648H4.008L4.93-1.094l.914-4.562Z" transform="translate(17.5 38.18)"/>
    <path d="M2.641-5.656V0h-.93V-4.7l-1.234.43L.211-5.031l1.625-.625ZM5.455-3.648a1.887,1.887,0,0,1,.941.227,1.575,1.575,0,0,1,.625.641,1.981,1.981,0,0,1,.223.953,2.011,2.011,0,0,1-.25,1.016,1.708,1.708,0,0,1-.7.676A2.234,2.234,0,0,1,5.237.1a3.176,3.176,0,0,1-.895-.129,2.349,2.349,0,0,1-.73-.34l.344-.758a3.118,3.118,0,0,0,.656.277,2.248,2.248,0,0,0,.625.1,1.042,1.042,0,0,0,.777-.281A1.054,1.054,0,0,0,6.291-1.8a1.017,1.017,0,0,0-.254-.738A.95.95,0,0,0,5.323-2.8a1.866,1.866,0,0,0-.453.059,1.881,1.881,0,0,0-.437.168l-.57-.3L4.01-5.656H6.987v.813H4.838l-.1,1.313A2.259,2.259,0,0,1,5.455-3.648Zm3.754.938h2.523v.734H9.21Zm8.27.8v.8h-.687V0h-.906V-1.117H13.425v-.8l2.063-3.742h1.3v3.742Zm-1.594,0V-4.82l-1.5,2.906ZM19.6-3.648a1.887,1.887,0,0,1,.941.227,1.576,1.576,0,0,1,.625.641,1.981,1.981,0,0,1,.223.953,2.011,2.011,0,0,1-.25,1.016,1.708,1.708,0,0,1-.7.676A2.234,2.234,0,0,1,19.38.1a3.176,3.176,0,0,1-.895-.129,2.349,2.349,0,0,1-.73-.34l.344-.758a3.118,3.118,0,0,0,.656.277,2.248,2.248,0,0,0,.625.1,1.042,1.042,0,0,0,.777-.281,1.054,1.054,0,0,0,.277-.773,1.017,1.017,0,0,0-.254-.738.95.95,0,0,0-.715-.262,1.866,1.866,0,0,0-.453.059,1.881,1.881,0,0,0-.437.168l-.57-.3.148-2.773H21.13v.813H18.982l-.1,1.313A2.259,2.259,0,0,1,19.6-3.648Z" transform="translate(9.96 28.92)"/>
    <path d="M1.52.05A1.219,1.219,0,0,0,2.835-1.26V-3.65h-.68v2.43a.635.635,0,0,1-.64.64.624.624,0,0,1-.63-.64V-3.65H.205v2.39A1.217,1.217,0,0,0,1.52.05Zm3.16,0A1.17,1.17,0,0,0,5.94-1.085c0-.7-.56-.92-1.055-1.08-.4-.13-.745-.225-.745-.515,0-.235.18-.415.51-.415a.748.748,0,0,1,.66.35l.56-.425A1.56,1.56,0,0,0,4.645-3.7a1.112,1.112,0,0,0-1.21,1.045c0,.7.545.885,1.035,1.04.39.12.76.215.76.525a.5.5,0,0,1-.555.49.921.921,0,0,1-.8-.5l-.62.49A1.8,1.8,0,0,0,4.68.05ZM6.465,0H7.7c.805,0,1.31-.36,1.31-1.08a.855.855,0,0,0-.53-.84.779.779,0,0,0,.4-.71c0-.66-.47-1.02-1.27-1.02H6.465Zm1.21-1.56c.505,0,.655.165.655.465s-.215.47-.625.47h-.56V-1.56Zm-.06-1.465c.415,0,.585.125.585.395s-.155.435-.585.435h-.47v-.83ZM10.955,0h.68V-1.045H12.2a1.291,1.291,0,0,0,1.32-1.3A1.288,1.288,0,0,0,12.2-3.65h-1.25Zm1.2-3.02a.657.657,0,0,1,.68.67.658.658,0,0,1-.68.675h-.52V-3.02ZM14.06,0h1.025a1.807,1.807,0,0,0,1.9-1.825,1.769,1.769,0,0,0-1.93-1.825H14.06Zm.915-3.02c.9,0,1.33.495,1.33,1.195a1.194,1.194,0,0,1-1.3,1.2H14.74V-3.02Z" transform="translate(12.455 45.43)"/>
  </g>
</svg>
