<svg xmlns="http://www.w3.org/2000/svg" width="42" height="54" viewBox="0 0 42 54">
  <path fill="none" d="M0 0h42v54H0z"/>
  <g>
    <path fill="none" d="M0 0h42v54H0z"/>
    <path d="M25.56 11.54V3.87h2.8v7.67M14.93 11.54V3.87h2.8v7.67" fill="none" stroke="#000" stroke-miterlimit="10"/>
    <path d="M10.94 19.23v-7.66h20.57v7.66" fill="none" stroke="#000" stroke-miterlimit="10"/>
    <rect width="30.64" height="30.64" rx=".71" transform="translate(5.9 19.23)" fill="none" stroke="#000" stroke-miterlimit="10"/>
    <path d="m24.3 37.524-1.37 5.656h-1.024l-.914-4.359-.898 4.359H19.07l-1.37-5.656h.969l.922 4.563.909-4.555h1.008l.922 4.554.914-4.562z"/>
    <path d="M15.909 30.272a1.887 1.887 0 0 1 .941.227 1.575 1.575 0 0 1 .625.641 1.981 1.981 0 0 1 .223.953 2.011 2.011 0 0 1-.25 1.016 1.708 1.708 0 0 1-.7.676 2.234 2.234 0 0 1-1.057.235 3.176 3.176 0 0 1-.891-.127 2.349 2.349 0 0 1-.73-.34l.344-.758a3.118 3.118 0 0 0 .656.277 2.248 2.248 0 0 0 .625.1 1.042 1.042 0 0 0 .777-.281 1.054 1.054 0 0 0 .273-.771 1.017 1.017 0 0 0-.254-.738.95.95 0 0 0-.714-.262 1.866 1.866 0 0 0-.453.059 1.881 1.881 0 0 0-.437.168l-.57-.3.147-2.783h2.977v.813h-2.149l-.1 1.313a2.259 2.259 0 0 1 .717-.118zm3.754.938h2.524v.734h-2.523zm6.153-.937a1.887 1.887 0 0 1 .941.227 1.575 1.575 0 0 1 .625.641 1.981 1.981 0 0 1 .223.953 2.011 2.011 0 0 1-.25 1.016 1.708 1.708 0 0 1-.7.676 2.234 2.234 0 0 1-1.055.234 3.176 3.176 0 0 1-.9-.127 2.349 2.349 0 0 1-.73-.34l.344-.758a3.118 3.118 0 0 0 .656.277 2.248 2.248 0 0 0 .625.1 1.042 1.042 0 0 0 .777-.281 1.054 1.054 0 0 0 .277-.773 1.017 1.017 0 0 0-.254-.738.95.95 0 0 0-.715-.262 1.866 1.866 0 0 0-.453.059 1.881 1.881 0 0 0-.437.168l-.57-.3.148-2.773h2.977v.813H25.2l-.1 1.313a2.259 2.259 0 0 1 .717-.126z"/>
  </g>
</svg>
