<?xml version="1.0" encoding="utf-8"?>
<svg xmlns="http://www.w3.org/2000/svg" class="icon" width="24" height="24" viewBox="0 0 24 24">
<g transform="translate(3556 9153)"><g transform="translate(-3556 -9153)"><rect width="24" height="24" fill="none"></rect><path d="M10.822,6.323a.524.524,0,0,1,.522.495V17.608a.524.524,0,0,1-.494.522H8.131a.524.524,0,0,1-.522-.495V6.846A.524.524,0,0,1,8.1,6.323h2.719Zm5.381,0a.524.524,0,0,1,.522.495V17.608a.524.524,0,0,1-.495.522H13.513a.524.524,0,0,1-.522-.495V6.846a.524.524,0,0,1,.495-.522H16.2ZM10.6,7.07H8.355V17.384H10.6Zm5.381,0H13.737V17.384h2.242Z" transform="translate(-0.073 -0.134)"></path><path d="M7.746,5.823H10.4a.642.642,0,0,1,.639.609V17.158a.642.642,0,0,1-.6.643H7.748a.642.642,0,0,1-.639-.609V6.467a.642.642,0,0,1,.605-.643h.033Zm3.051.62a.394.394,0,0,0-.392-.372H7.725a.394.394,0,0,0-.37.395V17.182a.394.394,0,0,0,.392.372h2.68a.394.394,0,0,0,.37-.395V6.443Zm2.263-.62h2.658a.642.642,0,0,1,.639.609V17.158a.642.642,0,0,1-.605.643H13.061a.642.642,0,0,1-.639-.609V6.467a.642.642,0,0,1,.605-.643h.033Zm3.051.62a.394.394,0,0,0-.393-.372h-2.68a.394.394,0,0,0-.37.395V17.182a.394.394,0,0,0,.393.372h2.68a.394.394,0,0,0,.37-.395V6.443Zm-8.265.122h2.461V17.06H7.846Zm2.214.248H8.093v10H10.06Zm3.1-.248H15.62V17.06H13.159Zm2.214.248H13.406v10h1.967Z" transform="translate(0.302 0.241)"></path><path d="M10.875,1.25A9.628,9.628,0,0,0,7.129,19.744,9.628,9.628,0,0,0,14.621,2.006a9.564,9.564,0,0,0-3.746-.756m0-1.25A10.875,10.875,0,1,1,0,10.875,10.875,10.875,0,0,1,10.875,0Z" transform="translate(1.13 1.13)"></path></g></g>
</svg>