<svg xmlns="http://www.w3.org/2000/svg" fill="none" viewBox="0 0 1492 1507" height="1507" width="1492">
<path fill="white" d="M1492 562.379H1260.88V568.138H1492V562.379Z"></path>
<path fill="white" d="M232.036 562.379H0.917236V568.138H232.036V562.379Z"></path>
<path fill="white" d="M353.94 521.201V606.666H330.7V521.201H301.04V499.644H383.753V521.201H353.94Z"></path>
<path fill="white" d="M474.264 556.52V606.667H451.942V560.189C451.942 547.958 447.661 541.689 437.57 541.689C426.409 541.689 419.071 549.792 419.071 563.247V606.667H396.749V494.293H419.071V531.751C425.339 525.789 434.207 522.119 443.992 522.119C462.797 522.119 474.264 535.421 474.264 556.52Z"></path>
<path fill="white" d="M574.406 571.655H512.027C513.862 582.969 521.353 589.084 532.209 589.084C539.853 589.084 546.274 585.415 549.638 579.605H573.183C567.067 597.493 551.32 608.96 532.209 608.96C507.746 608.96 489.399 590.155 489.399 565.387C489.399 540.618 507.593 521.813 532.209 521.813C556.824 521.813 574.865 541.383 574.865 565.081C574.865 567.221 574.712 569.515 574.406 571.655ZM512.639 556.366H552.543C549.485 546.275 542.146 540.771 532.209 540.771C522.271 540.771 515.238 546.581 512.639 556.366Z"></path>
<path fill="white" d="M737.693 606.666H717.053L693.049 546.734L669.963 606.666H649.323L615.534 499.644H640.149L661.095 570.737L689.227 500.714H697.024L725.92 570.737L746.408 499.644H770.564L737.693 606.666Z"></path>
<path fill="white" d="M770.87 565.387C770.87 540.313 789.829 521.813 815.514 521.813C841.2 521.813 860.005 540.313 860.005 565.387C860.005 590.461 840.894 608.96 815.514 608.96C790.134 608.96 770.87 590.308 770.87 565.387ZM837.377 565.387C837.377 552.085 828.357 542.759 815.514 542.759C802.671 542.759 793.498 552.085 793.498 565.387C793.498 578.688 802.519 588.014 815.514 588.014C828.51 588.014 837.377 578.688 837.377 565.387Z"></path>
<path fill="white" d="M925.594 544.746H915.962C903.425 544.746 898.38 550.25 898.38 563.704V606.666H876.058V524.106H890.43L894.405 534.196C900.215 526.858 907.706 523.647 918.256 523.647H925.594V544.746Z"></path>
<path fill="white" d="M960.606 494.293V606.667H938.284V494.293H960.606Z"></path>
<path fill="white" d="M1065.03 606.667H1048.52L1045.92 599.787C1038.89 605.75 1030.02 609.114 1020.08 609.114C995.006 609.114 976.659 590.308 976.659 565.387C976.659 540.466 995.006 521.814 1020.08 521.814C1028.49 521.814 1036.29 524.26 1042.71 528.541V494.293H1065.03V606.667ZM1044.39 565.387C1044.39 552.392 1034.76 542.76 1021.76 542.76C1008.77 542.76 999.287 552.392 999.287 565.387C999.287 578.383 1008.92 588.015 1021.76 588.015C1034.6 588.015 1044.39 578.23 1044.39 565.387Z"></path>
<path fill="white" d="M1105.7 499.34V540.009H1085.06V499.34H1105.7Z"></path>
<path fill="white" d="M1120.38 579.452H1142.09C1142.24 586.791 1147.9 590.461 1155.85 590.461C1162.11 590.461 1167.62 587.708 1167.62 582.204C1167.62 576.7 1160.43 574.866 1151.72 573.337C1138.57 571.196 1121.75 567.68 1121.75 548.11C1121.75 532.515 1135.05 521.813 1155.08 521.813C1175.11 521.813 1187.95 532.821 1188.11 549.333H1166.85C1166.85 542.759 1162.27 539.548 1154.47 539.548C1147.44 539.548 1143.46 542.759 1143.46 547.498C1143.46 553.003 1150.5 554.226 1159.06 555.755C1172.51 558.201 1189.64 561.106 1189.64 581.134C1189.64 598.105 1175.88 608.96 1155.08 608.96C1134.29 608.96 1120.53 597.188 1120.38 579.452Z"></path>
<path fill="white" d="M1053.77 1236.93L1070.48 1139.54C1071.2 1135.15 1068.29 1132.25 1063.96 1132.25H967.282C962.9 1132.25 959.995 1135.15 959.281 1139.54L942.565 1236.93C941.852 1241.31 944.757 1244.22 949.089 1244.22H1045.77C1050.15 1244.22 1053.05 1241.31 1053.77 1236.93Z"></path>
<path fill="white" d="M1343.34 1237.18L1425.85 771.89C1426.56 767.66 1423.76 764.857 1419.53 764.857H1324.33C1320.1 764.857 1315.87 766.284 1311.64 769.087L1216.44 829.733C1212.93 832.536 1211.5 835.39 1210.79 839.62L1193.87 938.998C1192.44 944.655 1196.67 946.031 1200.9 943.228L1289.01 888.952H1290.44L1228.42 1237.24C1227.71 1241.47 1230.56 1244.27 1234.74 1244.27H1335.54C1339.77 1244.27 1342.58 1241.47 1343.29 1237.24L1343.34 1237.18Z"></path>
<path fill="white" d="M512.079 766.081C511.416 765.266 510.193 764.807 508.766 764.807H413.312C409.235 764.807 408.216 768.324 407.961 769.853L357.762 1052.65H355.978L259.148 770.209C257.568 766.54 255.02 764.807 250.892 764.807H149.73C145.653 764.807 144.634 768.324 144.379 769.853L61.054 1240.09C60.9011 1240.91 60.9011 1242.08 61.6656 1243C62.3281 1243.81 63.5003 1244.22 64.9272 1244.22H160.432C162.726 1244.22 164.509 1242.28 165.019 1239.22L215.269 956.378H217.715L314.545 1238.87C315.615 1242.54 318.011 1244.22 322.139 1244.22H424.014C427.888 1244.22 429.009 1241.11 429.315 1239.22L512.69 768.986C512.843 768.12 512.843 766.948 512.079 766.081Z"></path>
<path fill="white" d="M765.316 760.168C681.991 760.168 616.044 793.498 578.586 870.555C552.901 922.639 532.057 1054.53 532.057 1100.35C532.057 1198.25 594.538 1248.91 688.973 1248.91C771.584 1248.91 837.531 1215.58 875.702 1138.52C901.388 1086.44 922.232 954.542 922.232 908.726C922.232 810.826 859.751 760.168 765.316 760.168ZM711.091 1196.57C711.091 1196.57 710.632 1196.72 710.632 1196.46V1049.28L633.015 1049.13C633.015 1049.13 632.709 1048.93 632.811 1048.77L743.045 812.406C743.045 812.406 743.503 812.253 743.503 812.508V959.435H821.324C821.324 959.435 821.63 959.639 821.528 959.792L711.142 1196.52L711.091 1196.57Z"></path>
<path fill="white" d="M83.1211 1424.52L57.5375 1480.28H53.0018L27.4182 1424.52L18.9583 1480.43H0L13.4543 1394.81H32.0559L55.1932 1447.31L78.4325 1394.81H97.034L110.386 1480.43H91.53L83.0701 1424.52H83.1211Z"></path>
<path fill="white" d="M118.336 1447.41C118.336 1427.33 133.523 1412.55 154.061 1412.55C174.6 1412.55 189.634 1427.33 189.634 1447.41C189.634 1467.49 174.345 1482.27 154.061 1482.27C133.778 1482.27 118.336 1467.33 118.336 1447.41ZM171.593 1447.41C171.593 1436.76 164.356 1429.32 154.112 1429.32C143.869 1429.32 136.479 1436.76 136.479 1447.41C136.479 1458.06 143.716 1465.5 154.112 1465.5C164.509 1465.5 171.593 1458.06 171.593 1447.41Z"></path>
<path fill="white" d="M273.214 1447.41C273.214 1467.33 258.639 1482.27 238.457 1482.27C230.507 1482.27 223.27 1479.57 217.766 1474.93L215.677 1480.43H202.477V1390.53H220.314V1417.95C225.461 1414.54 231.577 1412.55 238.406 1412.55C258.588 1412.55 273.163 1427.33 273.163 1447.41H273.214ZM254.969 1447.41C254.969 1437.01 247.376 1429.32 236.979 1429.32C226.583 1429.32 218.989 1437.01 218.989 1447.41C218.989 1457.8 226.685 1465.4 236.979 1465.4C247.274 1465.4 254.969 1457.7 254.969 1447.41Z"></path>
<path fill="white" d="M303.894 1388.95V1405.57H286.057V1388.95H303.894ZM303.894 1414.38V1480.43H286.057V1414.38H303.894Z"></path>
<path fill="white" d="M338.906 1390.53V1480.43H321.069V1390.53H338.906Z"></path>
<path fill="white" d="M419.733 1452.45H369.84C371.318 1461.52 377.281 1466.42 385.996 1466.42C392.111 1466.42 397.259 1463.46 399.96 1458.82H418.816C413.923 1473.14 401.336 1482.32 386.047 1482.32C366.477 1482.32 351.799 1467.28 351.799 1447.46C351.799 1427.63 366.375 1412.6 386.047 1412.6C405.718 1412.6 420.192 1428.25 420.192 1447.2C420.192 1448.94 420.09 1450.77 419.835 1452.45H419.733ZM370.35 1440.22H402.253C399.807 1432.17 393.946 1427.74 385.996 1427.74C378.045 1427.74 372.439 1432.37 370.35 1440.22Z"></path>
<path fill="white" d="M458.363 1437.77C458.363 1412.19 477.423 1393.03 502.548 1393.03C523.341 1393.03 539.955 1406.84 544.032 1427.17H525.431C521.863 1417.03 513.301 1410.66 502.548 1410.66C488.126 1410.66 477.117 1422.38 477.117 1437.82C477.117 1453.27 488.126 1464.73 502.548 1464.73C513.811 1464.73 522.475 1457.9 525.533 1447H544.236C540.312 1468.15 523.698 1482.37 502.548 1482.37C477.474 1482.37 458.363 1463.15 458.363 1437.82V1437.77Z"></path>
<path fill="white" d="M618.388 1440.32V1480.43H600.551V1443.23C600.551 1433.44 597.136 1428.45 589.033 1428.45C580.114 1428.45 574.254 1434.92 574.254 1445.68V1480.43H556.417V1390.53H574.254V1420.5C579.248 1415.71 586.383 1412.8 594.18 1412.8C609.214 1412.8 618.388 1423.46 618.388 1440.32Z"></path>
<path fill="white" d="M702.019 1480.33H687.953L686.475 1474.47C680.869 1479.36 673.377 1482.32 665.07 1482.32C645.144 1482.32 630.466 1467.38 630.466 1447.31C630.466 1427.23 645.144 1412.55 665.07 1412.55C673.53 1412.55 681.073 1415.5 686.73 1420.6L688.666 1414.23H702.019V1480.28V1480.33ZM684.538 1447.31C684.538 1436.91 676.945 1429.21 666.548 1429.21C656.152 1429.21 648.558 1437.06 648.558 1447.31C648.558 1457.55 656.152 1465.4 666.548 1465.4C676.945 1465.4 684.538 1457.7 684.538 1447.31Z"></path>
<path fill="white" d="M758.792 1430.9H751.096C741.057 1430.9 737.031 1435.28 737.031 1446.08V1480.43H719.193V1414.38H730.711L733.871 1422.44C738.508 1416.58 744.522 1413.98 752.931 1413.98H758.792V1430.85V1430.9Z"></path>
<path fill="white" d="M798.9 1506.12C781.063 1506.12 768.322 1496.94 765.264 1481.91H783C784.936 1487.77 791.918 1490.83 798.543 1490.83C807.615 1490.83 815.055 1484.97 815.055 1475.28V1472.84C809.806 1476.61 803.436 1478.7 796.199 1478.7C777.75 1478.7 763.43 1464.28 763.43 1445.67C763.43 1427.07 777.75 1412.55 796.199 1412.55C804.761 1412.55 812.456 1415.71 818.215 1421.01L821.018 1414.38H832.638V1472.74C832.638 1493.43 819.795 1506.12 798.9 1506.12ZM815.157 1445.73C815.157 1435.94 808.175 1428.7 798.289 1428.7C788.402 1428.7 781.522 1435.94 781.522 1445.73C781.522 1455.51 788.504 1462.85 798.289 1462.85C808.073 1462.85 815.157 1455.61 815.157 1445.73Z"></path>
<path fill="white" d="M867.649 1388.95V1405.57H849.812V1388.95H867.649ZM867.649 1414.38V1480.43H849.812V1414.38H867.649Z"></path>
<path fill="white" d="M946.795 1440.43V1480.43H928.958V1443.23C928.958 1433.34 925.187 1428.45 917.44 1428.45C908.267 1428.45 902.661 1435.08 902.661 1445.68V1480.43H884.824V1414.38H897.055L900.623 1422.59C905.617 1416.58 913.465 1412.8 922.537 1412.8C937.571 1412.8 946.897 1423.71 946.897 1440.43H946.795Z"></path>
<path fill="white" d="M994.344 1506.12C976.507 1506.12 963.766 1496.94 960.709 1481.91H978.444C980.381 1487.77 987.362 1490.83 993.988 1490.83C1003.06 1490.83 1010.5 1484.97 1010.5 1475.28V1472.84C1005.25 1476.61 998.88 1478.7 991.643 1478.7C973.195 1478.7 958.874 1464.28 958.874 1445.67C958.874 1427.07 973.195 1412.55 991.643 1412.55C1000.21 1412.55 1007.9 1415.71 1013.66 1421.01L1016.46 1414.38H1028.08V1472.74C1028.08 1493.43 1015.24 1506.12 994.344 1506.12ZM1010.6 1445.73C1010.6 1435.94 1003.62 1428.7 993.733 1428.7C983.846 1428.7 976.966 1435.94 976.966 1445.73C976.966 1455.51 983.948 1462.85 993.733 1462.85C1003.52 1462.85 1010.6 1455.61 1010.6 1445.73Z"></path>
<path fill="white" d="M1139.03 1455.71C1139.03 1469.42 1126.9 1480.43 1112.12 1480.43H1075.68V1394.81H1111.15C1125.83 1394.81 1136.84 1404.24 1136.84 1416.83C1136.84 1424.17 1133.17 1431 1127.15 1435.28C1134.75 1439.2 1139.03 1446.64 1139.03 1455.71ZM1109.32 1410.61H1093.93V1428.86H1109.32C1115.18 1428.86 1118.85 1425.09 1118.85 1419.79C1118.85 1414.48 1115.18 1410.61 1109.32 1410.61ZM1120.48 1453.78C1120.48 1448.27 1116.45 1444.25 1110.34 1444.25H1093.93V1463.46H1110.34C1116.45 1463.46 1120.48 1459.43 1120.48 1453.78Z"></path>
<path fill="white" d="M1192.49 1430.9H1184.79C1174.75 1430.9 1170.73 1435.28 1170.73 1446.08V1480.43H1152.89V1414.38H1164.41L1167.57 1422.44C1172.21 1416.58 1178.22 1413.98 1186.63 1413.98H1192.49V1430.85V1430.9Z"></path>
<path fill="white" d="M1268.48 1480.33H1254.41L1252.93 1474.47C1247.33 1479.36 1239.83 1482.32 1231.53 1482.32C1211.6 1482.32 1196.92 1467.38 1196.92 1447.31C1196.92 1427.23 1211.6 1412.55 1231.53 1412.55C1239.99 1412.55 1247.53 1415.5 1253.19 1420.6L1255.12 1414.23H1268.48V1480.28V1480.33ZM1250.94 1447.31C1250.94 1436.91 1243.35 1429.21 1232.95 1429.21C1222.56 1429.21 1214.96 1437.06 1214.96 1447.31C1214.96 1457.55 1222.56 1465.4 1232.95 1465.4C1243.35 1465.4 1250.94 1457.7 1250.94 1447.31Z"></path>
<path fill="white" d="M1347.57 1440.43V1480.43H1329.73V1443.23C1329.73 1433.34 1325.96 1428.45 1318.22 1428.45C1309.04 1428.45 1303.44 1435.08 1303.44 1445.68V1480.43H1285.6V1414.38H1297.83L1301.4 1422.59C1306.39 1416.58 1314.24 1412.8 1323.31 1412.8C1338.35 1412.8 1347.67 1423.71 1347.67 1440.43H1347.57Z"></path>
<path fill="white" d="M1430.39 1480.43H1417.19L1415.1 1474.93C1409.49 1479.72 1402.36 1482.37 1394.41 1482.37C1374.33 1482.37 1359.65 1467.33 1359.65 1447.41C1359.65 1427.48 1374.33 1412.55 1394.41 1412.55C1401.13 1412.55 1407.35 1414.49 1412.5 1417.95V1390.53H1430.33V1480.43H1430.39ZM1413.87 1447.41C1413.87 1437.01 1406.18 1429.32 1395.78 1429.32C1385.39 1429.32 1377.79 1437.01 1377.79 1447.41C1377.79 1457.8 1385.49 1465.5 1395.78 1465.5C1406.08 1465.5 1413.87 1457.65 1413.87 1447.41Z"></path>
<path fill="white" d="M1483.74 1426.87L1473.35 1435.43L1465.04 1425.29L1456.84 1435.43L1446.44 1426.87L1454.03 1417.95L1443.13 1414.18L1447.66 1401.44L1458.31 1405.47V1393.95H1471.87V1405.47L1482.62 1401.44L1487.16 1414.18L1476.15 1417.95L1483.74 1426.87Z"></path>
<path fill="white" d="M1415.66 174.141C1449.85 147.946 1464.94 120.63 1462.49 85.5163C1458.93 34.3492 1417.54 0 1370.4 0H1235.15V295.842H1288.91V174.141H1352.41L1428.4 295.842H1491.85L1415.61 174.141H1415.66ZM1410.36 85.7202C1410.36 108.348 1394.41 121.7 1370.15 121.7H1288.96V52.2883H1370.15C1400.83 52.2883 1410.36 73.4381 1410.36 85.6692"></path>
<path fill="white" d="M825.706 185.302L895.016 295.739L959.026 295.841L860.463 139.18L825.706 185.302Z"></path>
<path fill="white" d="M939.508 0H871.217L730.558 186.984V0H676.537V269.647C676.537 279.584 682.296 291.816 697.738 295.383C703.904 296.81 716.136 295.281 723.525 285.598C724.443 284.426 939.508 0 939.508 0Z"></path>
<path fill="white" d="M1165.38 121.699H1059.17V174.089H1165.38V121.699Z"></path>
<path fill="white" d="M1192.69 0H981.909V269.545C981.909 284.069 993.681 295.842 1008.21 295.842H1192.69V243.553H1035.83V52.3902H1192.69V0Z"></path>
<path fill="white" d="M568.546 0V186.984L427.888 0H359.24V295.689H413.159V70.8389C476.914 155.183 574.968 284.834 575.579 285.598C582.969 295.281 595.2 296.81 601.367 295.383C616.809 291.816 622.567 279.584 622.567 269.647V0H568.546Z"></path>
<path fill="white" d="M139.334 15.9515L1.01929 295.842H61.2579L165.427 85.7202L269.545 295.842H329.274L192.03 16.8688C186.933 6.57426 176.435 0 164.968 0C154.113 0 144.175 6.16656 139.385 15.9515"></path>
<path fill="white" d="M214.3 254H178.677C178.32 254 178.065 253.695 178.116 253.389L185.047 177.352C185.098 176.791 184.334 176.485 184.028 176.944L107.277 277.291C106.972 277.698 107.277 278.208 107.736 278.208H143.359C143.716 278.208 143.971 278.514 143.92 278.82L136.989 354.857C136.938 355.417 137.651 355.723 138.008 355.264L214.759 254.918C215.065 254.51 214.759 254 214.3 254Z"></path>
</svg>
