<svg version="1.2" xmlns="http://www.w3.org/2000/svg" viewBox="0 0 512 512" width="512" height="512">
	<title>speed_12599246</title>
	<style>
		.s0 { fill: #ff0000 } 
	</style>
	<path fill-rule="evenodd" class="s0" d="m499.8 259.3c1.6 0 3.2 0.4 4.7 1 1.5 0.7 2.9 1.6 4 2.8 1.1 1.2 2 2.6 2.5 4.2 0.6 1.5 0.8 3.1 0.7 4.8-3.1 49.1-20.4 96.3-49.6 135.9-29.3 39.6-69.4 69.9-115.5 87.3-46 17.4-96.2 21.1-144.3 10.7-48.1-10.4-92.3-34.4-127.1-69.2-34.5-34.6-58.4-78.3-68.9-126-10.6-47.7-7.2-97.4 9.6-143.2 16.8-45.9 46.4-86 85.3-115.6 38.9-29.5 85.4-47.4 134.1-51.4 1.6-0.1 3.3 0.1 4.8 0.6 1.6 0.6 3 1.4 4.3 2.5 1.2 1.2 2.2 2.5 2.8 4.1 0.7 1.5 1 3.1 1 4.8v51.8c0 1.5-0.2 3-0.8 4.3-0.5 1.4-1.3 2.7-2.3 3.8-1 1.1-2.2 2-3.5 2.7-1.4 0.6-2.8 1-4.3 1.2-94.4 8.5-165.7 86.6-165.7 181.6 0 100.6 81.8 182.4 182.4 182.4 95.6 0 175.5-74.6 182-169.9 0.1-1.5 0.5-3 1.1-4.3 0.7-1.4 1.6-2.6 2.7-3.7 1.1-1 2.3-1.8 3.7-2.3 1.5-0.6 2.9-0.9 4.5-0.9zm-69.6-48.6c-2.3-8.7-5.3-17.2-8.9-25.4-3.5-8.3-7.7-16.2-12.5-23.9-4.8-7.6-10.1-14.8-15.9-21.6-1-1.2-1.7-2.5-2.2-3.9-0.5-1.4-0.7-2.9-0.7-4.4 0.1-1.5 0.4-3 1-4.3 0.6-1.4 1.5-2.7 2.5-3.7l37.4-37.4c1.2-1.2 2.6-2.1 4.1-2.7 1.5-0.6 3.2-0.9 4.8-0.8 1.6 0 3.3 0.4 4.7 1.1 1.5 0.7 2.8 1.7 3.9 2.9 9.1 10.3 17.3 21.2 24.6 32.7 7.3 11.6 13.6 23.7 19 36.3 5.3 12.5 9.6 25.5 12.9 38.8 3.2 13.3 5.4 26.8 6.5 40.4 0.1 1.6-0.1 3.3-0.6 4.9-0.6 1.5-1.4 3-2.6 4.2-1.1 1.2-2.4 2.2-4 2.8-1.5 0.7-3.1 1-4.8 1h-52.3c-1.4 0-2.9-0.2-4.2-0.7-1.4-0.6-2.7-1.3-3.8-2.3-1-1-1.9-2.1-2.6-3.4-0.7-1.3-1.1-2.7-1.3-4.2-1-8.9-2.7-17.8-5-26.4zm-53.6-91.6q-1.1 0-2.1-0.2-1-0.1-1.9-0.5-1-0.3-1.9-0.8-0.9-0.5-1.7-1.2c-6.9-5.7-14.3-10.8-22-15.4-7.8-4.6-15.8-8.6-24.1-12-8.4-3.4-16.9-6.1-25.6-8.3-8.8-2.1-17.6-3.5-26.6-4.4-1.5-0.1-2.9-0.5-4.2-1.1-1.4-0.7-2.6-1.6-3.6-2.7-1-1.1-1.8-2.4-2.3-3.8-0.5-1.3-0.8-2.8-0.8-4.3v-52.2c0-1.6 0.3-3.2 1-4.7 0.6-1.5 1.6-2.9 2.8-4 1.2-1.1 2.6-2 4.1-2.5 1.6-0.6 3.2-0.8 4.8-0.7 13.7 0.8 27.2 2.7 40.5 5.7 13.4 3 26.4 7.1 39.1 12.2 12.6 5.1 24.9 11.3 36.6 18.3 11.6 7.1 22.7 15.1 33.1 24 1.3 1.1 2.3 2.4 3 3.9 0.7 1.5 1.2 3.1 1.2 4.8 0.1 1.6-0.2 3.3-0.8 4.8-0.6 1.6-1.5 3-2.7 4.1l-37.4 37.5q-0.9 0.8-1.9 1.5-0.9 0.6-2 1.1-1.1 0.4-2.3 0.7-1.1 0.2-2.3 0.2zm110 164.2h-27.7c-3.1 24.8-10.7 48.8-22.3 70.9-11.6 22.1-27.2 41.9-45.9 58.4-18.7 16.6-40.3 29.6-63.6 38.4-23.4 8.8-48.1 13.4-73.1 13.4-113.8 0-206.4-92.6-206.4-206.4 0-24.6 4.4-49 13-72 8.6-23.1 21.2-44.4 37.3-63 16.1-18.6 35.4-34.2 56.9-46 21.6-11.8 45.1-19.7 69.4-23.3v-27.8c-113.1 15.8-200 114.3-200 229.9 0 127.9 104.1 232 232 232 117.9 0 216.7-88.9 230.4-204.5zm-132.6-138.8c2.6 0.4 5 1.6 6.9 3.4 1.9 1.9 3.1 4.3 3.4 7 0.4 2.6-0.2 5.3-1.5 7.6l-82.3 141.8c-2.1 3.7-4.6 7.2-7.5 10.3-2.9 3.1-6.2 5.8-9.7 8.2-3.5 2.3-7.3 4.3-11.3 5.7-4 1.5-8.2 2.5-12.4 3q-0.9 0.1-1.9 0.2-0.9 0.1-1.9 0.2-0.9 0.1-1.9 0.1-0.9 0-1.9 0-5.4 0-10.7-1-5.3-1.1-10.3-3.2-5-2.1-9.5-5.1-4.5-3.1-8.3-6.9 0-0.1-0.1-0.1c-6-6-10.5-13.3-13.3-21.4-2.7-8.1-3.6-16.6-2.5-25.1 1.1-8.4 4.1-16.5 8.9-23.6 4.7-7.1 11-13 18.3-17.2l141.9-82.4c2.3-1.3 4.9-1.8 7.6-1.5z"/>
</svg>