<svg width="24" height="24" viewBox="0 0 24 24" fill="none" xmlns="http://www.w3.org/2000/svg">
<rect x="2.39062" y="2.99219" width="12.0269" height="18.0078" rx="2" fill="#D40000"/>
<path d="M8.41602 9.64453V13.5542" stroke="white" stroke-width="2.4" stroke-miterlimit="10" stroke-linecap="round"/>
<path d="M10.3578 11.6113H6.4668" stroke="white" stroke-width="2.4" stroke-miterlimit="10" stroke-linecap="round"/>
<path d="M17.2461 9.76943C17.2461 9.76943 18.3017 9.3204 18.8564 8.79395V14.4069" stroke="white" stroke-width="2.4" stroke-linecap="round" stroke-linejoin="round"/>
<path d="M17.2461 14.4062H18.8564H20.4668" stroke="white" stroke-width="2.4" stroke-miterlimit="10" stroke-linecap="round"/>
<path d="M13.718 12.5015C14.7521 12.5015 15.5903 11.6281 15.5903 10.5506C15.5903 9.47309 14.7521 8.59961 13.718 8.59961C12.684 8.59961 11.8457 9.47309 11.8457 10.5506C11.8457 11.6281 12.684 12.5015 13.718 12.5015Z" stroke="white" stroke-width="2.4" stroke-miterlimit="10" stroke-linecap="round"/>
<path d="M12.0547 13.539C12.2473 14.1041 12.7944 14.5996 13.6496 14.5996C15.6683 14.5996 15.5913 11.797 15.5913 10.5273" stroke="white" stroke-width="2.4" stroke-miterlimit="10" stroke-linecap="round"/>
<path d="M8.41797 18L8.4268 18" stroke="white" stroke-width="1.2" stroke-linecap="round" stroke-linejoin="round"/>
<path d="M8.41602 9.64453V13.5542" stroke="#D40000" stroke-width="1.2" stroke-miterlimit="10" stroke-linecap="round"/>
<path d="M10.3578 11.6113H6.4668" stroke="#D40000" stroke-width="1.2" stroke-miterlimit="10" stroke-linecap="round"/>
<path d="M17.2461 9.76943C17.2461 9.76943 18.3017 9.3204 18.8564 8.79395V14.4069" stroke="#D40000" stroke-width="1.2" stroke-linecap="round" stroke-linejoin="round"/>
<path d="M17.2461 14.4062H18.8564H20.4668" stroke="#D40000" stroke-width="1.2" stroke-miterlimit="10" stroke-linecap="round"/>
<path d="M13.718 12.5015C14.7521 12.5015 15.5903 11.6281 15.5903 10.5506C15.5903 9.47309 14.7521 8.59961 13.718 8.59961C12.684 8.59961 11.8457 9.47309 11.8457 10.5506C11.8457 11.6281 12.684 12.5015 13.718 12.5015Z" stroke="#D40000" stroke-width="1.2" stroke-miterlimit="10" stroke-linecap="round"/>
<path d="M12.0547 13.539C12.2473 14.1041 12.7944 14.5996 13.6496 14.5996C15.6683 14.5996 15.5913 11.797 15.5913 10.5273" stroke="#D40000" stroke-width="1.2" stroke-miterlimit="10" stroke-linecap="round"/>
</svg>
