<svg width="36" height="36" viewBox="0 0 36 36" fill="none" xmlns="http://www.w3.org/2000/svg">
<path d="M34.3147 17.2485C32.7901 10.303 30.4957 6.59586 27.0922 5.58325C26.3768 5.37178 25.6347 5.26613 24.8892 5.26961C23.9037 5.26961 23.0455 5.51154 22.1376 5.76795C21.0436 6.07724 19.8008 6.42854 17.9888 6.42854C16.1767 6.42854 14.9332 6.07796 13.837 5.76868C12.9285 5.51154 12.0709 5.26961 11.0884 5.26961C10.3174 5.26692 9.54981 5.37223 8.80763 5.58252C5.42213 6.59079 3.12918 10.2964 1.58234 17.2442C-0.0809419 24.7207 0.737761 29.4411 3.87816 30.5363C4.30863 30.6892 4.76156 30.768 5.21799 30.7695C7.36933 30.7695 9.09443 28.9638 10.2732 27.4854C11.6052 25.8122 13.1642 24.9633 17.9888 24.9633C22.2979 24.9633 24.0812 25.5522 25.6216 27.4854C26.5898 28.7009 27.5048 29.5512 28.4177 30.0865C29.6317 30.7978 30.8451 30.9557 32.0232 30.5479C33.8791 29.9098 34.9429 28.2228 35.1858 25.5327C35.3706 23.4698 35.0859 20.7601 34.3147 17.2485ZM14.5386 16.8588H12.2384V19.1767C12.2384 19.484 12.1173 19.7788 11.9016 19.9962C11.6859 20.2135 11.3934 20.3356 11.0884 20.3356C10.7833 20.3356 10.4908 20.2135 10.2751 19.9962C10.0595 19.7788 9.93829 19.484 9.93829 19.1767V16.8588H7.63816C7.33314 16.8588 7.04062 16.7367 6.82494 16.5194C6.60926 16.3021 6.48809 16.0073 6.48809 15.6999C6.48809 15.3926 6.60926 15.0978 6.82494 14.8804C7.04062 14.6631 7.33314 14.541 7.63816 14.541H9.93829V12.2231C9.93829 11.9158 10.0595 11.621 10.2751 11.4037C10.4908 11.1863 10.7833 11.0642 11.0884 11.0642C11.3934 11.0642 11.6859 11.1863 11.9016 11.4037C12.1173 11.621 12.2384 11.9158 12.2384 12.2231V14.541H14.5386C14.8436 14.541 15.1361 14.6631 15.3518 14.8804C15.5675 15.0978 15.6886 15.3926 15.6886 15.6999C15.6886 16.0073 15.5675 16.3021 15.3518 16.5194C15.1361 16.7367 14.8436 16.8588 14.5386 16.8588ZM20.5764 17.1486C20.2921 17.1486 20.0141 17.0636 19.7777 16.9044C19.5413 16.7452 19.3571 16.519 19.2482 16.2543C19.1394 15.9896 19.111 15.6983 19.1664 15.4173C19.2219 15.1363 19.3588 14.8782 19.5599 14.6756C19.7609 14.473 20.0171 14.335 20.2959 14.2791C20.5748 14.2232 20.8639 14.2519 21.1265 14.3615C21.3892 14.4712 21.6137 14.6569 21.7717 14.8951C21.9297 15.1333 22.014 15.4134 22.014 15.6999C22.014 16.0841 21.8625 16.4526 21.5929 16.7243C21.3233 16.9959 20.9577 17.1486 20.5764 17.1486ZM23.7391 20.3356C23.4546 20.3356 23.1765 20.2506 22.94 20.0912C22.7035 19.9319 22.5193 19.7054 22.4106 19.4405C22.3019 19.1756 22.2736 18.8841 22.3294 18.603C22.3852 18.3219 22.5224 18.0638 22.7238 17.8613C22.9252 17.6589 23.1817 17.5212 23.4608 17.4657C23.7399 17.4102 24.0291 17.4394 24.2917 17.5496C24.5543 17.6598 24.7786 17.8461 24.9361 18.0848C25.0937 18.3235 25.1774 18.6039 25.1767 18.8906C25.1757 19.2742 25.0238 19.6417 24.7543 19.9126C24.4848 20.1835 24.1197 20.3356 23.7391 20.3356ZM23.7391 13.9615C23.4548 13.9615 23.1768 13.8766 22.9404 13.7174C22.704 13.5582 22.5197 13.332 22.4109 13.0673C22.3021 12.8025 22.2737 12.5113 22.3291 12.2303C22.3846 11.9493 22.5215 11.6911 22.7226 11.4885C22.9236 11.2859 23.1798 11.148 23.4586 11.0921C23.7375 11.0362 24.0265 11.0649 24.2892 11.1745C24.5519 11.2841 24.7764 11.4698 24.9344 11.7081C25.0924 11.9463 25.1767 12.2264 25.1767 12.5129C25.1767 12.8971 25.0252 13.2656 24.7556 13.5372C24.486 13.8089 24.1204 13.9615 23.7391 13.9615ZM26.9018 17.1486C26.6174 17.1486 26.3395 17.0636 26.1031 16.9044C25.8667 16.7452 25.6824 16.519 25.5736 16.2543C25.4648 15.9896 25.4363 15.6983 25.4918 15.4173C25.5473 15.1363 25.6842 14.8782 25.8852 14.6756C26.0863 14.473 26.3424 14.335 26.6213 14.2791C26.9002 14.2232 27.1892 14.2519 27.4519 14.3615C27.7146 14.4712 27.9391 14.6569 28.0971 14.8951C28.255 15.1333 28.3393 15.4134 28.3393 15.6999C28.3393 16.0841 28.1879 16.4526 27.9183 16.7243C27.6487 16.9959 27.283 17.1486 26.9018 17.1486Z" fill="white"/>
</svg>
