<?xml version="1.0" encoding="UTF-8"?>
<svg width="32px" height="32px" viewBox="0 0 32 32" version="1.1" xmlns="http://www.w3.org/2000/svg" xmlns:xlink="http://www.w3.org/1999/xlink">
    <!-- Generator: Sketch 47.1 (45422) - http://www.bohemiancoding.com/sketch -->
    <title>Facebook</title>
    <desc>Created with Sketch.</desc>
    <defs></defs>
    <g id="Page-1" stroke="none" stroke-width="1" fill="none" fill-rule="evenodd">
        <g id="导航-copy" transform="translate(-1152.000000, -1533.000000)">
            <g id="页尾-copy-8" transform="translate(0.000000, 1387.000000)">
                <g id="Group-9">
                    <g id="文字" transform="translate(377.000000, 93.000000)">
                        <g id="Group-11" transform="translate(775.000000, 0.000000)">
                            <g id="Group-24">
                                <g id="Group-27">
                                    <g id="Group-8">
                                        <circle id="Oval-Copy-2" stroke="#979797" cx="16" cy="69" r="15.5"></circle>
                                        <path d="M13,66.6297222 L14.4996258,66.6297222 L14.4996258,65.2235 C14.4996258,64.6028333 14.5157464,63.6461667 14.98244,63.0535 C15.4745236,62.4262222 16.1495768,62 17.3110714,62 C19.2032356,62 20,62.2601667 20,62.2601667 L19.6247913,64.4048889 C19.6247913,64.4048889 19.0001151,64.2298889 18.4169497,64.2298889 C17.8333813,64.2298889 17.3110714,64.4317222 17.3110714,64.9944444 L17.3110714,66.6297222 L19.7029766,66.6297222 L19.5361276,68.7242778 L17.3110714,68.7242778 L17.3110714,76 L14.4996258,76 L14.4996258,68.7242778 L13,68.7242778 L13,66.6297222" id="Fill-3" fill="#999999"></path>
                                    </g>
                                    <g id="电话icon" transform="translate(10.000000, 32.000000)"></g>
                                </g>
                            </g>
                        </g>
                    </g>
                </g>
            </g>
        </g>
    </g>
</svg>