<svg width="36" height="36" viewBox="0 0 36 36" fill="none" xmlns="http://www.w3.org/2000/svg">
<g clip-path="url(#clip0_2099_9046)">
<path d="M18 3.00001C20.2234 2.99775 22.4193 3.49077 24.4283 4.44325C26.4373 5.39574 28.209 6.78377 29.6145 8.50651L20.121 18L29.6145 27.4935C28.209 29.2163 26.4373 30.6043 24.4283 31.5568C22.4193 32.5093 20.2234 33.0023 18 33C9.7155 33 3 26.2845 3 18C3 9.71551 9.7155 3.00001 18 3.00001ZM18 7.50001C17.4033 7.50001 16.831 7.73706 16.409 8.15902C15.9871 8.58097 15.75 9.15327 15.75 9.75001C15.75 10.3467 15.9871 10.919 16.409 11.341C16.831 11.763 17.4033 12 18 12C18.5967 12 19.169 11.763 19.591 11.341C20.0129 10.919 20.25 10.3467 20.25 9.75001C20.25 9.15327 20.0129 8.58097 19.591 8.15902C19.169 7.73706 18.5967 7.50001 18 7.50001Z" fill="white"/>
</g>
<defs>
<clipPath id="clip0_2099_9046">
<rect width="36" height="36" fill="white"/>
</clipPath>
</defs>
</svg>
