<svg width="30" height="30" viewBox="0 0 30 30" fill="none" xmlns="http://www.w3.org/2000/svg">
<circle cx="15" cy="15" r="15" fill="url(#paint0_linear_1_4)"/>
<g clip-path="url(#clip0_1_4)">
<path d="M9.27597 12.6041C9.70134 11.9248 10.212 11.2792 10.8074 10.6838C13.8055 7.68573 18.0782 6.83383 21.5212 8.21958C22.907 11.6626 22.055 15.9353 19.057 18.9334C18.4616 19.5288 17.816 20.0395 17.1367 20.4648L17.2689 22.7133C17.2807 22.9133 17.1484 23.0934 16.954 23.142L13.0929 24.1073C12.8696 24.1631 12.6434 24.0274 12.5876 23.8041C12.5793 23.7711 12.5751 23.7371 12.5751 23.703L12.5751 21.0463C12.5751 20.8254 12.4873 20.6133 12.3311 20.4571L9.28371 17.4097C9.12743 17.2534 8.91544 17.1657 8.69445 17.1656L6.03774 17.1656C5.8076 17.1657 5.62105 16.9791 5.62107 16.749C5.62107 16.7149 5.62522 16.681 5.63351 16.6479L6.59876 12.7868C6.64737 12.5924 6.82749 12.4601 7.02749 12.4719L9.27597 12.6041ZM14.9322 14.8086C15.5831 15.4595 16.6383 15.4595 17.2892 14.8086C17.94 14.1577 17.9401 13.1025 17.2892 12.4516C16.6383 11.8008 15.583 11.8007 14.9322 12.4516C14.2813 13.1025 14.2813 14.1578 14.9322 14.8086Z" fill="url(#paint1_linear_1_4)"/>
</g>
<defs>
<linearGradient id="paint0_linear_1_4" x1="15" y1="30" x2="15" y2="0" gradientUnits="userSpaceOnUse">
<stop stop-color="#E0ECFE" stop-opacity="0.1"/>
<stop offset="1" stop-color="#E0ECFE"/>
</linearGradient>
<linearGradient id="paint1_linear_1_4" x1="14.3727" y1="26.3567" x2="4.0876" y2="10.8971" gradientUnits="userSpaceOnUse">
<stop stop-color="#FF9670"/>
<stop offset="1" stop-color="#F35731"/>
</linearGradient>
<clipPath id="clip0_1_4">
<rect width="20" height="20" fill="white" transform="translate(15.1426 1) rotate(45)"/>
</clipPath>
</defs>
</svg>
