<svg width="16" height="16" viewBox="0 0 16 16" fill="none" xmlns="http://www.w3.org/2000/svg">
<mask id="path-1-inside-1_184_1410" fill="white">
<path fill-rule="evenodd" clip-rule="evenodd" d="M0 0H16V16H0V0Z"/>
</mask>
<!-- <path fill-rule="evenodd" clip-rule="evenodd" d="M0 0H16V16H0V0Z" fill="white"/> -->
<!-- <path d="M0 0V-1H-1V0H0ZM16 0H17V-1H16V0ZM16 16V17H17V16H16ZM0 16H-1V17H0V16ZM0 1H16V-1H0V1ZM15 0V16H17V0H15ZM16 15H0V17H16V15ZM1 16V0H-1V16H1Z" fill="black" fill-opacity="0.2" mask="url(#path-1-inside-1_184_1410)"/> -->
<path fill-rule="evenodd" clip-rule="evenodd" d="M2.81042 8.0393L2 8.88935L5.8443 13L14 4.88069L13.1476 4L5.78876 10.379L2.81042 8.0393Z" fill="#006EFF"/>
</svg>
