<?xml version="1.0" encoding="UTF-8"?>
<svg width="36.1558216px" height="35.9892257px" viewBox="0 0 36.1558216 35.9892257" version="1.1" xmlns="http://www.w3.org/2000/svg" xmlns:xlink="http://www.w3.org/1999/xlink">
    <title>选中1</title>
    <defs>
        <linearGradient x1="50%" y1="10.208297%" x2="50%" y2="85.5498417%" id="linearGradient-1">
            <stop stop-color="#FFFFFF" stop-opacity="0" offset="0%"></stop>
            <stop stop-color="#FF851D" offset="100%"></stop>
        </linearGradient>
    </defs>
    <g id="选中1" stroke="none" stroke-width="1" fill="none" fill-rule="evenodd">
        <path d="M18.0589321,15.9892257 L35.9443427,24.1513081 C36.0502292,24.1996298 36.11861,24.3048365 36.1197777,24.421222 L36.1538373,27.8159671 C36.1550411,27.9359501 36.0846364,28.0451098 35.9748374,28.0934994 L18.4708755,35.8076779 C18.2089071,35.9231301 17.9100196,35.9207698 17.6499073,35.8011946 L0.174694493,27.7677367 C0.068226219,27.7187926 -6.51783474e-16,27.6123386 0,27.4951592 L0,24.4233516 C-5.694987e-16,24.3058713 0.0685729465,24.1992018 0.175450134,24.1504279 L18.0589321,15.9892257 L18.0589321,15.9892257 Z" id="Polygon" stroke="#E37D29" stroke-width="0.5" fill-opacity="0.16" fill="#FF8F30"></path>
        <path d="M18.0609202,0 L34.052966,7.29803738 C34.1596709,7.34673258 34.2282111,7.4531471 34.2284157,7.57043778 L34.2617192,26.6639867 C34.261927,26.7830727 34.1916775,26.891007 34.0827047,26.9390325 L18.4728636,33.8184522 C18.2108952,33.9339044 17.9120077,33.9315441 17.6518954,33.8119689 L2.06845494,26.6481699 C1.96198667,26.5992258 1.89376045,26.4927717 1.89376045,26.3755923 L1.89376045,7.57080763 C1.89376045,7.45332732 1.9623334,7.34665781 2.06921058,7.29788396 L18.0609202,0 L18.0609202,0 Z" id="Polygon" fill-opacity="0.6" fill="url(#linearGradient-1)"></path>
    </g>
</svg>