<svg width="19" height="19" viewBox="0 0 19 19" fill="none" xmlns="http://www.w3.org/2000/svg">
<g clip-path="url(#clip0_1760_14423)">
<path d="M9.5 0C14.9254 0 19 4.07465 19 9.5C19 14.9526 14.9526 19 9.5 19C4.04742 19 0 14.9526 0 9.5C0 4.07465 4.07465 0 9.5 0ZM9.5 2C5.17921 2 2 5.17921 2 9.5C2 13.848 5.15198 17 9.5 17C13.848 17 17 13.848 17 9.5C17 5.17921 13.8208 2 9.5 2ZM12.8916 5.60938C13.3312 5.35698 13.8993 5.47387 14.2012 5.89453C14.5221 6.34228 14.4208 6.96562 13.9746 7.28809L13.9697 7.29102C13.9645 7.29492 13.9545 7.30269 13.9404 7.31348C13.9118 7.33539 13.8653 7.37158 13.8027 7.42285C13.6771 7.52579 13.4857 7.68978 13.2393 7.9209C12.8075 8.32583 12.2061 8.93822 11.4941 9.79297L11.1826 10.1738C10.3979 11.1513 9.78216 12.072 9.36328 12.7471C9.15427 13.084 8.99446 13.3588 8.88867 13.5469C8.83585 13.6408 8.79615 13.7141 8.77051 13.7617C8.75806 13.7849 8.74897 13.8025 8.74316 13.8135C8.74035 13.8188 8.73749 13.823 8.73633 13.8252L8.73535 13.8262L8.73633 13.8271C8.57353 14.142 8.25529 14.347 7.90137 14.3662C7.54747 14.3853 7.20953 14.2153 7.01367 13.9199V13.9209L7.0166 13.9238V13.9258C7.01502 13.9235 7.01276 13.9186 7.00879 13.9131C6.99709 13.897 6.9748 13.8675 6.94238 13.8271C6.87713 13.7459 6.76847 13.6188 6.6123 13.4609C6.33877 13.1844 5.91704 12.8107 5.32031 12.416L5.05371 12.2461L4.96875 12.1875C4.56684 11.8793 4.45527 11.3106 4.72656 10.8701C4.99837 10.4293 5.55752 10.2729 6.01367 10.4941L6.10254 10.5439L6.42383 10.748C6.92626 11.0804 7.33474 11.4069 7.65918 11.6982C7.66023 11.6966 7.66199 11.695 7.66309 11.6934C8.11395 10.9667 8.77635 9.97654 9.62305 8.92188L9.95801 8.5127C10.7235 7.59365 11.3811 6.92243 11.8711 6.46289C12.1509 6.20053 12.3757 6.00665 12.5352 5.87598C12.6149 5.81067 12.6791 5.76045 12.7246 5.72559C12.7471 5.70835 12.7657 5.69462 12.7793 5.68457C12.7859 5.67965 12.7915 5.67509 12.7959 5.67188C12.798 5.67031 12.8002 5.66912 12.8018 5.66797L12.8037 5.66602H12.8047L12.8057 5.66504L12.8916 5.60938Z" fill="white"/>
</g>
<defs>
<clipPath id="clip0_1760_14423">
<rect width="19" height="19" fill="white"/>
</clipPath>
</defs>
</svg>
