<svg width="36" height="36" viewBox="0 0 36 36" fill="none" xmlns="http://www.w3.org/2000/svg">
<path d="M28.9254 20.1778C29.0264 20.1778 29.1256 20.2058 29.213 20.2591C29.3004 20.3124 29.373 20.389 29.4234 20.4812C29.4738 20.5734 29.5003 20.678 29.5002 20.7844V26.48C29.5003 26.6962 29.4455 26.9085 29.3415 27.0949C29.2375 27.2813 29.088 27.435 28.9086 27.54L18.559 33.5975C18.3882 33.6975 18.196 33.75 18.0006 33.75C17.8052 33.75 17.613 33.6975 17.4422 33.5975L7.09258 27.54C6.91318 27.435 6.76368 27.2813 6.65967 27.0949C6.55565 26.9085 6.50087 26.6962 6.50104 26.48V20.7844C6.50089 20.678 6.52735 20.5734 6.57776 20.4812C6.62816 20.389 6.70075 20.3124 6.78818 20.2591C6.87561 20.2058 6.97481 20.1778 7.07581 20.1778C7.17681 20.1777 7.27604 20.2057 7.36351 20.2589L17.4299 26.3202C17.6037 26.4248 17.8004 26.4799 18.0006 26.48C18.2008 26.4799 18.3975 26.4248 18.5713 26.3202L28.6377 20.2589C28.7252 20.2057 28.8244 20.1777 28.9254 20.1778Z" fill="white"/>
<path d="M17.9992 2.25C18.1994 2.25 18.3961 2.30507 18.5699 2.40972L34.6693 12.1017C34.8285 12.1972 34.9637 12.3315 35.0637 12.4932C35.1637 12.6549 35.2256 12.8395 35.2442 13.0315V13.0399C35.248 13.0776 35.2499 13.1155 35.25 13.1534V26.48C35.25 26.6439 35.2184 26.8062 35.1571 26.957C35.0958 27.1077 35.006 27.2438 34.8933 27.3569C34.7806 27.4701 34.6473 27.5579 34.5014 27.6151C34.3556 27.6724 34.2001 27.6979 34.0447 27.69C33.4259 27.6574 32.9501 27.0978 32.9501 26.4459V15.5023C32.9502 15.4757 32.9436 15.4494 32.9311 15.4263C32.9185 15.4032 32.9003 15.384 32.8784 15.3707C32.8566 15.3573 32.8318 15.3502 32.8065 15.3502C32.7812 15.3501 32.7564 15.3572 32.7345 15.3705L18.5699 23.8972C18.3961 24.0018 18.1994 24.0569 17.9992 24.0569C17.799 24.0569 17.6023 24.0018 17.4286 23.8972L1.32919 14.2051C1.15324 14.0992 1.00696 13.9461 0.905255 13.7614C0.803549 13.5767 0.75 13.367 0.75 13.1534C0.750001 12.9399 0.803546 12.7302 0.905255 12.5455C1.00697 12.3608 1.15324 12.2077 1.32919 12.1017L17.4286 2.40972C17.6023 2.30507 17.799 2.25001 17.9992 2.25Z" fill="white"/>
</svg>
