<svg width="24" height="24" viewBox="0 0 24 24" fill="none" xmlns="http://www.w3.org/2000/svg">
<path d="M14.8169 18.9943V17.5402C14.8169 16.7688 14.5105 16.0291 13.9651 15.4837C13.4197 14.9382 12.6799 14.6318 11.9086 14.6318H6.09192C5.32058 14.6318 4.58084 14.9382 4.03542 15.4837C3.49001 16.0291 3.18359 16.7688 3.18359 17.5402V18.9943" fill="#D40000"/>
<path d="M14.8169 18.9943V17.5402C14.8169 16.7688 14.5105 16.0291 13.9651 15.4837C13.4196 14.9382 12.6799 14.6318 11.9086 14.6318H6.09192C5.32058 14.6318 4.58084 14.9382 4.03542 15.4837C3.49001 16.0291 3.18359 16.7688 3.18359 17.5402V18.9943H14.8169Z" stroke="#D40000" stroke-width="1.2" stroke-linecap="square" stroke-linejoin="round"/>
<path d="M14.8184 5.3584C14.8184 4.80611 15.2661 4.3584 15.8184 4.3584L20.3701 4.3584C20.9224 4.3584 21.3701 4.80611 21.3701 5.3584L21.3701 8.27222C21.3701 8.8245 20.9224 9.27222 20.3701 9.27222L16.7053 9.27222C16.417 9.27222 16.1426 9.3967 15.9527 9.61371L14.8184 10.9102L14.8184 5.3584Z" fill="#D40000"/>
<path d="M9.00012 11.7239C10.6063 11.7239 11.9084 10.4218 11.9084 8.81555C11.9084 7.20933 10.6063 5.90723 9.00012 5.90723C7.3939 5.90723 6.0918 7.20933 6.0918 8.81555C6.0918 10.4218 7.3939 11.7239 9.00012 11.7239Z" fill="#D40000" stroke="#D40000" stroke-width="1.2" stroke-linecap="round" stroke-linejoin="round"/>
</svg>
