<svg width="24" height="24" viewBox="0 0 24 24" fill="none" xmlns="http://www.w3.org/2000/svg">
<circle cx="12.5737" cy="11.7183" r="9.01123" fill="#D40000"/>
<path d="M12.1395 20.6774L12.1395 20.6773C10.5456 20.5044 9.01448 19.9611 7.66898 19.0908C6.41732 18.2965 5.35588 17.2372 4.55993 15.9878C3.68467 14.6386 3.13991 13.1026 2.96983 11.5042L2.96883 11.4948L2.96891 11.4948C2.94918 11.277 2.97512 11.0575 3.04505 10.8503C3.11498 10.643 3.22735 10.4527 3.37493 10.2914C3.52251 10.13 3.70207 10.0012 3.90213 9.91298C4.10219 9.82479 4.31841 9.77916 4.53703 9.77895L4.53759 9.77895L5.99902 9.77895C6.37993 9.77601 6.74922 9.91097 7.03839 10.1592C7.32842 10.4081 7.51808 10.754 7.57169 11.1325L7.57247 11.138L7.57245 11.1381C7.6283 11.5607 7.73188 11.9757 7.88123 12.3751L12.1395 20.6774ZM12.1395 20.6774L12.1503 20.6783L12.1395 20.6774ZM9.60619 16.1081L9.60619 16.1081C9.82052 15.8966 10.091 15.7509 10.3854 15.6882C10.6797 15.6256 10.9857 15.6484 11.2674 15.7539C11.6676 15.9029 12.0834 16.0063 12.5069 16.062L12.5123 16.0627L12.5123 16.0627C12.8948 16.1166 13.2443 16.3089 13.4944 16.6034C13.7426 16.8958 13.8755 17.2687 13.868 17.6521V19.1058V19.1067H13.268L9.60619 16.1081ZM9.60619 16.1081L9.60381 16.1104M9.60619 16.1081L9.60381 16.1104M9.60381 16.1104L9.31752 16.3962C8.48904 15.8546 7.78129 15.1484 7.23851 14.322L9.60381 16.1104Z" fill="#D40000" stroke="white" stroke-width="1.2" stroke-linecap="round" stroke-linejoin="round"/>
<path d="M10.3984 11.7227C10.3984 11.5146 10.4678 11.3457 10.6065 11.216C10.7483 11.0863 10.9247 11.0215 11.1358 11.0215C11.3499 11.0215 11.5264 11.0863 11.6651 11.216C11.8068 11.3457 11.8777 11.5146 11.8777 11.7227C11.8777 11.9277 11.8083 12.0951 11.6696 12.2248C11.5309 12.3515 11.3529 12.4148 11.1358 12.4148C10.9217 12.4148 10.7453 12.3515 10.6065 12.2248C10.4678 12.0951 10.3984 11.9277 10.3984 11.7227Z" fill="white"/>
<path d="M13.0946 11.7227C13.0946 11.5146 13.164 11.3457 13.3027 11.216C13.4444 11.0863 13.6209 11.0215 13.832 11.0215C14.0461 11.0215 14.2225 11.0863 14.3612 11.216C14.503 11.3457 14.5739 11.5146 14.5739 11.7227C14.5739 11.9277 14.5045 12.0951 14.3658 12.2248C14.227 12.3515 14.0491 12.4148 13.832 12.4148C13.6178 12.4148 13.4414 12.3515 13.3027 12.2248C13.164 12.0951 13.0946 11.9277 13.0946 11.7227Z" fill="white"/>
<path d="M15.7908 11.7227C15.7908 11.5146 15.8601 11.3457 15.9988 11.216C16.1406 11.0863 16.317 11.0215 16.5281 11.0215C16.7422 11.0215 16.9187 11.0863 17.0574 11.216C17.1991 11.3457 17.27 11.5146 17.27 11.7227C17.27 11.9277 17.2007 12.0951 17.0619 12.2248C16.9232 12.3515 16.7453 12.4148 16.5281 12.4148C16.314 12.4148 16.1376 12.3515 15.9988 12.2248C15.8601 12.0951 15.7908 11.9277 15.7908 11.7227Z" fill="white"/>
</svg>
