<svg width="19" height="24" viewBox="0 0 19 24" fill="none" xmlns="http://www.w3.org/2000/svg">
<path fill-rule="evenodd" clip-rule="evenodd" d="M2.3576 4.34766C0.400128 5.16746 -0.553514 7.23368 0.333206 9.33337C1.47925 12.0521 6.51515 13.5913 6.74938 13.6331C6.95851 13.6666 7.20947 13.5411 7.20947 13.3069C7.20947 13.0727 6.74938 11.1152 6.74938 10.9813C6.74938 10.8475 6.82467 10.722 6.95851 10.6634C7.09236 10.6049 12.9313 8.12877 14.8721 7.31734C16.8128 6.5059 17.7246 4.3142 16.8965 2.33163C16.0599 0.357419 13.8599 -0.512571 11.9108 0.307227C9.96165 1.12702 4.30672 3.52786 2.3576 4.34766Z" fill="#FB275D"/>
<path fill-rule="evenodd" clip-rule="evenodd" d="M15.8926 19.2128C17.8501 18.393 18.8038 16.3267 17.917 14.2271C16.771 11.5083 11.7351 9.97749 11.5009 9.94403C11.2917 9.91057 11.0408 10.0361 11.0408 10.2703C11.0408 10.5045 11.5009 12.4453 11.5009 12.5875C11.5009 12.7297 11.4256 12.8468 11.2917 12.9053C11.1579 12.9639 5.31891 15.44 3.37817 16.2515C1.43742 17.0629 0.525607 19.263 1.35377 21.2372C2.1903 23.2197 4.39037 24.0814 6.33948 23.2616C8.28859 22.4418 13.9435 20.0409 15.8926 19.2211V19.2128Z" fill="#FB275D"/>
</svg>
