<svg width="21" height="20" viewBox="0 0 21 20" fill="none" xmlns="http://www.w3.org/2000/svg">
<path d="M10.2916 13.4877C11.7629 13.4877 12.9564 12.2943 12.9564 10.8229C12.9564 9.3515 11.7629 8.15804 10.2916 8.15804C8.82016 8.15804 7.6267 9.3515 7.6267 10.8229C7.6267 12.2943 8.82016 13.4877 10.2916 13.4877Z" fill="#6161FF"/>
<path d="M10.2916 5.3297C11.7629 5.3297 12.9564 4.13624 12.9564 2.66485C12.9564 1.19346 11.7629 0 10.2916 0C8.82016 0 7.6267 1.19346 7.6267 2.66485C7.6267 4.13624 8.82016 5.3297 10.2916 5.3297Z" fill="#6161FF"/>
<path d="M2.66485 10.6594C4.13624 10.6594 5.3297 9.46594 5.3297 7.99455C5.3297 6.52316 4.13624 5.3297 2.66485 5.3297C1.19346 5.3297 0 6.52316 0 7.99455C0 9.46594 1.19346 10.6594 2.66485 10.6594Z" fill="#6161FF"/>
<path d="M5.09264 19.9128C6.56403 19.9128 7.75749 18.7193 7.75749 17.248C7.75749 15.7766 6.56403 14.5831 5.09264 14.5831C3.62125 14.5831 2.42779 15.7766 2.42779 17.248C2.42779 18.7193 3.62125 19.9128 5.09264 19.9128Z" fill="#6161FF"/>
<path d="M15.4823 19.9128C16.9537 19.9128 18.1471 18.7193 18.1471 17.248C18.1471 15.7766 16.9537 14.5831 15.4823 14.5831C14.0109 14.5831 12.8174 15.7766 12.8174 17.248C12.8174 18.7193 14.0109 19.9128 15.4823 19.9128Z" fill="#6161FF"/>
<path d="M17.8692 10.6594C19.3406 10.6594 20.5341 9.46594 20.5341 7.99455C20.5341 6.52316 19.3406 5.3297 17.8692 5.3297C16.3978 5.3297 15.2044 6.52316 15.2044 7.99455C15.2044 9.46594 16.3978 10.6594 17.8692 10.6594Z" fill="#6161FF"/>
</svg>
